SplineFontDB: 3.0
FontName: Inconsolata
FullName: Inconsolata
FamilyName: Inconsolata
Weight: Medium
Copyright: Created by Raph Levien using his own tools and FontForge. Copyright 2006 Raph Levien. Released under the SIL Open Font License, http://scripts.sil.org/OFL.
Version: 001.010
ItalicAngle: 0
UnderlinePosition: -100
UnderlineWidth: 50
Ascent: 820
Descent: 180
InvalidEm: 0
sfntRevision: 0x0001028f
LayerCount: 2
Layer: 0 0 "Back" 1
Layer: 1 0 "Fore" 0
XUID: [1021 806 186421416 11289]
StyleMap: 0x0000
FSType: 8
OS2Version: 3
OS2_WeightWidthSlopeOnly: 0
OS2_UseTypoMetrics: 1
CreationTime: 1161020814
ModificationTime: 1454176495
PfmFamily: 17
TTFWeight: 500
TTFWidth: 5
LineGap: 90
VLineGap: 0
Panose: 2 11 6 9 3 0 3 0 0 0
OS2TypoAscent: 820
OS2TypoAOffset: 0
OS2TypoDescent: -180
OS2TypoDOffset: 0
OS2TypoLinegap: 0
OS2WinAscent: 834
OS2WinAOffset: 0
OS2WinDescent: 176
OS2WinDOffset: 0
HheadAscent: 834
HheadAOffset: 0
HheadDescent: -176
HheadDOffset: 0
OS2SubXSize: 650
OS2SubYSize: 700
OS2SubXOff: 0
OS2SubYOff: 140
OS2SupXSize: 650
OS2SupYSize: 700
OS2SupXOff: 0
OS2SupYOff: 480
OS2StrikeYSize: 49
OS2StrikeYPos: 258
OS2CapHeight: 623
OS2XHeight: 456
OS2Vendor: 'PfEd'
OS2CodePages: 00000013.00000000
OS2UnicodeRanges: 8000002f.0000016b.00000000.00000000
Lookup: 4 0 1 "Ligature Substitution" { "Ligature Substitution-1"  } ['liga' ('DFLT' <'dflt' > 'latn' <'dflt' > ) ]
MarkAttachClasses: 1
DEI: 91125
LangName: 1033 "" "" "" "FontForge 2.0 : Inconsolata : 7-2-2009"
Encoding: Custom
Compacted: 1
UnicodeInterp: none
NameList: AGL For New Fonts
DisplaySize: -48
AntiAlias: 1
FitToEm: 0
WinInfo: 0 33 10
BeginPrivate: 7
BlueValues 31 [-12 0 457 467 623 630 665 669]
OtherBlues 11 [-172 -167]
BlueShift 1 0
StdHW 4 [63]
StdVW 4 [66]
StemSnapH 7 [61 63]
StemSnapV 7 [64 66]
EndPrivate
Grid
35.5 1320 m 0
 35.5 -680 l 1024
457.5 1320 m 0
 457.5 -680 l 1024
-1000 250 m 0
 2000 250 l 1024
-776 1320 m 0
 -776 -680 l 1024
EndSplineSet
BeginChars: 615 353

StartChar: hypen_greater.liga
Encoding: 258 -1 1
Width: 1000
Flags: W
HStem: 210 74<24 849>
LayerCount: 2
Back
Fore
SplineSet
705 552 m 1
 976 247 l 1
 705 -58 l 1
 642 -4 l 1
 785 152 l 2
 805 174 825 194 849 210 c 1
 24 210 l 1
 24 284 l 1
 849 284 l 1
 820 302 813 311 785 342 c 2
 642 498 l 1
 705 552 l 1
EndSplineSet
Validated: 1
LCarets2: 1 0
Ligature2: "Ligature Substitution-1" hyphen greater
EndChar

StartChar: equal_greater.liga
Encoding: 259 -1 2
Width: 1000
Flags: W
HStem: 121 72<0 791> 311 72<0 791>
LayerCount: 2
Back
Fore
SplineSet
729 557 m 1
 1000 252 l 1
 729 -53 l 1
 666 1 l 1
 729 70 l 2
 744 87 761 103 791 121 c 1
 0 121 l 1
 0 193 l 1
 842 193 l 1
 895 252 l 1
 842 311 l 1
 0 311 l 1
 0 383 l 1
 791 383 l 1
 761 401 744 418 729 435 c 2
 666 503 l 1
 729 557 l 1
EndSplineSet
Validated: 1
LCarets2: 1 0
Ligature2: "Ligature Substitution-1" equal greater
EndChar

StartChar: colon_colon.liga
Encoding: 260 -1 3
Width: 1000
Flags: W
HStem: -11 162<244.989 354.861 644.989 754.861> 349 162<244.989 354.861 644.989 754.861>
VStem: 219.5 161<13.6261 125.601 374.536 486.125> 619.5 161<13.6261 125.601 374.536 486.125>
LayerCount: 2
Back
Fore
SplineSet
219.5 431 m 0
 219.5 475 253.5 511 299.5 511 c 0
 346.5 511 380.5 475 380.5 431 c 0
 380.5 386 346.5 349 299.5 349 c 0
 253.5 349 219.5 386 219.5 431 c 0
619.5 431 m 0
 619.5 475 653.5 511 699.5 511 c 0
 746.5 511 780.5 475 780.5 431 c 0
 780.5 386 746.5 349 699.5 349 c 0
 653.5 349 619.5 386 619.5 431 c 0
219.5 70 m 0
 219.5 114 253.5 151 299.5 151 c 0
 346.5 151 380.5 114 380.5 70 c 0
 380.5 24 346.5 -11 299.5 -11 c 0
 253.5 -11 219.5 24 219.5 70 c 0
619.5 70 m 0
 619.5 114 653.5 151 699.5 151 c 0
 746.5 151 780.5 114 780.5 70 c 0
 780.5 24 746.5 -11 699.5 -11 c 0
 653.5 -11 619.5 24 619.5 70 c 0
EndSplineSet
Validated: 1
Ligature2: "Ligature Substitution-1" colon colon
EndChar

StartChar: exclam_equal_equal.liga
Encoding: 263 -1 4
Width: 1000
Flags: W
HStem: 166 72<6 376 505 994> 370 72<6 489 618 994>
LayerCount: 2
Back
Fore
SplineSet
994 370 m 1
 575 370 l 1
 505 238 l 1
 994 238 l 1
 994 166 l 1
 462 166 l 1
 342 -36 l 1
 275 -2 l 1
 376 166 l 1
 6 166 l 1
 6 238 l 1
 419 238 l 1
 489 370 l 1
 6 370 l 1
 6 442 l 1
 533 442 l 1
 660 655 l 1
 725 622 l 1
 618 442 l 1
 994 442 l 1
 994 370 l 1
EndSplineSet
Validated: 1
LCarets2: 2 0 0
Ligature2: "Ligature Substitution-1" exclam equal equal
EndChar

StartChar: slash_slash.liga
Encoding: 266 -1 5
Width: 1000
Flags: W
LayerCount: 2
Back
Fore
SplineSet
71 -103 m 1
 3 -73 l 1
 430 809 l 1
 497 777 l 1
 71 -103 l 1
571 -103 m 1
 503 -73 l 1
 930 809 l 1
 997 777 l 1
 571 -103 l 1
EndSplineSet
Validated: 1
Ligature2: "Ligature Substitution-1" slash slash
EndChar

StartChar: slash_slash_slash.liga
Encoding: 267 -1 6
Width: 1500
Flags: W
LayerCount: 2
Back
Fore
SplineSet
71 -103 m 1
 3 -73 l 1
 430 809 l 1
 497 777 l 1
 71 -103 l 1
571 -103 m 1
 503 -73 l 1
 930 809 l 1
 997 777 l 1
 571 -103 l 1
1071 -103 m 1
 1003 -73 l 1
 1430 809 l 1
 1497 777 l 1
 1071 -103 l 1
EndSplineSet
Validated: 1
Ligature2: "Ligature Substitution-1" slash_slash.liga slash
EndChar

StartChar: bar_bar.liga
Encoding: 268 -1 7
Width: 500
Flags: W
VStem: 32.5 75<-102 807> 392.5 75<-102 807>
LayerCount: 2
Back
Fore
SplineSet
107.5 807 m 1
 107.5 -102 l 1
 32.5 -102 l 1
 32.5 807 l 1
 107.5 807 l 1
467.5 807 m 1
 467.5 -102 l 1
 392.5 -102 l 1
 392.5 807 l 1
 467.5 807 l 1
EndSplineSet
Validated: 1
LCarets2: 1 0
Ligature2: "Ligature Substitution-1" bar bar
EndChar

StartChar: equal_equal_equal.liga
Encoding: 270 -1 8
Width: 1000
Flags: W
HStem: 167 72<6 994> 370 72<6 994>
LayerCount: 2
Back
Fore
SplineSet
994 442 m 1
 994 370 l 1
 6 370 l 1
 6 442 l 1
 994 442 l 1
994 239 m 5
 994 167 l 5
 6 167 l 5
 6 239 l 5
 994 239 l 5
EndSplineSet
Validated: 1
LCarets2: 2 0 0
Ligature2: "Ligature Substitution-1" equal equal equal
EndChar

StartChar: greater_equal.liga
Encoding: 271 -1 9
Width: 500
GlyphClass: 3
Flags: W
LayerCount: 2
Back
Fore
SplineSet
459.361328125 0 m 1
 37.361328125 0 l 1
 37.361328125 -60 l 1
 459.361328125 -60 l 1
 459.361328125 0 l 1
37.1083984375 466.224609375 m 1
 37.1083984375 536.991210938 l 1
 460.841796875 344.336914062 l 1
 460.841796875 296.008789062 l 1
 34.51953125 77.46484375 l 1
 34.51953125 152.545898438 l 1
 384.034179688 319.309570312 l 1
 37.1083984375 466.224609375 l 1
EndSplineSet
Validated: 9
LCarets2: 1 0
Ligature2: "Ligature Substitution-1" greater equal
EndChar

StartChar: less_equal.liga
Encoding: 272 -1 10
Width: 500
GlyphClass: 3
Flags: W
HStem: 0 74<124 493 124 493>
VStem: 427 66<340 340>
LayerCount: 2
Back
Fore
SplineSet
36 0 m 1
 458 0 l 1
 458 -60 l 1
 36 -60 l 1
 36 0 l 1
458.252929688 466.224609375 m 1
 458.252929688 536.991210938 l 1
 34.51953125 344.336914062 l 1
 34.51953125 296.008789062 l 1
 460.841796875 77.46484375 l 1
 460.841796875 152.545898438 l 1
 111.327148438 319.309570312 l 1
 458.252929688 466.224609375 l 1
EndSplineSet
Validated: 9
Ligature2: "Ligature Substitution-1" less equal
EndChar

StartChar: bracketleft_bracketright.liga
Encoding: 273 -1 11
Width: 1000
GlyphClass: 3
Flags: WO
HStem: -168.889 56.958<279.769 432.422 567.578 720.232> 610.141 59.5479<279.769 431.559 568.441 720.232>
VStem: 215.906 63.8623<-114.042 610.141> 720.232 63.8613<-111.931 610.141>
LayerCount: 2
Back
Fore
SplineSet
784.09375 669.688476562 m 1
 784.09375 -168.888671875 l 1
 567.578125 -168.888671875 l 1
 567.578125 -111.930664062 l 1
 720.232421875 -111.930664062 l 1
 720.232421875 610.140625 l 1
 568.44140625 610.140625 l 1
 568.44140625 669.688476562 l 1
 784.09375 669.688476562 l 1
215.90625 669.688476562 m 1
 431.55859375 669.688476562 l 1
 431.55859375 610.140625 l 1
 279.768554688 610.140625 l 1
 279.768554688 -114.041992188 l 1
 432.421875 -114.041992188 l 1
 432.421875 -171 l 1
 215.90625 -171 l 1
 215.90625 669.688476562 l 1
EndSplineSet
LCarets2: 1 0
Ligature2: "Ligature Substitution-1" bracketleft bracketright
EndChar

StartChar: exclam
Encoding: 289 33 27
Width: 500
GlyphClass: 2
Flags: W
LayerCount: 2
Back
Fore
SplineSet
298.599609375 47.888671875 m 0
 298.599609375 15.275390625 272.100585938 -11.2333984375 239.463867188 -11.2333984375 c 0
 206.836914062 -11.2333984375 180.327148438 15.263671875 180.327148438 47.890625 c 0
 180.327148438 80.505859375 206.827148438 107.013671875 239.462890625 107.013671875 c 0
 272.08984375 107.013671875 298.599609375 80.515625 298.599609375 47.888671875 c 0
241.01171875 667.962890625 m 0
 259.780273438 667.962890625 280.823242188 655.368164062 288.540039062 625.088867188 c 0
 290.046875 619.180664062 292.349609375 607.974609375 292.349609375 584.466796875 c 0
 292.349609375 546.260742188 285.561523438 508.407226562 283.064453125 470.334960938 c 2
 264.94140625 194.174804688 l 1
 214.88671875 194.174804688 l 1
 200.215820312 470.334960938 l 2
 196.725585938 536.041015625 190.34765625 560.32421875 190.34765625 592.595703125 c 0
 190.34765625 611.330078125 192.573242188 624.822265625 197.163085938 635.874023438 c 0
 206.086914062 657.365234375 223.69140625 667.962890625 241.01171875 667.962890625 c 0
EndSplineSet
Validated: 1
EndChar

StartChar: quotedbl
Encoding: 290 34 28
Width: 500
GlyphClass: 2
Flags: W
LayerCount: 2
Back
Fore
SplineSet
396.696289062 604.66015625 m 0
 396.696289062 578.387695312 388.19140625 546.490234375 363.323242188 478.1015625 c 2
 339.159179688 411.651367188 l 1
 283.926757812 425.458984375 l 1
 305.501953125 492.7734375 l 2
 310.895507812 509.6015625 315.256835938 528.470703125 315.256835938 548.095703125 c 0
 315.256835938 569.806640625 308.9921875 589.798828125 308.9921875 611.451171875 c 0
 308.9921875 650.9609375 332.39453125 666.359375 351.676757812 666.359375 c 0
 371.3203125 666.359375 396.696289062 649.91015625 396.696289062 604.66015625 c 0
224.096679688 604.66015625 m 0
 224.096679688 578.387695312 215.591796875 546.490234375 190.723632812 478.1015625 c 2
 166.559570312 411.651367188 l 1
 111.327148438 425.458984375 l 1
 132.90234375 492.7734375 l 2
 138.295898438 509.6015625 142.657226562 528.470703125 142.657226562 548.095703125 c 0
 142.657226562 569.806640625 136.392578125 589.798828125 136.392578125 611.451171875 c 0
 136.392578125 650.9609375 159.794921875 666.359375 179.077148438 666.359375 c 0
 198.720703125 666.359375 224.096679688 649.91015625 224.096679688 604.66015625 c 0
EndSplineSet
Validated: 1
EndChar

StartChar: numbersign
Encoding: 291 35 29
Width: 500
GlyphClass: 2
Flags: W
LayerCount: 2
Back
Fore
SplineSet
173.462890625 623.94921875 m 1
 233.873046875 626.538085938 l 1
 213.109375 455.1171875 l 1
 323.268554688 456.432617188 l 1
 342.611328125 618.771484375 l 1
 404.747070312 621.360351562 l 1
 384.689453125 457.16796875 l 1
 475.512695312 458.252929688 l 1
 470.334960938 409.924804688 l 1
 378.806640625 409.009765625 l 1
 358.247070312 240.704101562 l 1
 457.389648438 242.502929688 l 1
 452.211914062 195.901367188 l 1
 352.577148438 194.290039062 l 1
 330.529296875 13.8076171875 l 1
 270.119140625 10.3564453125 l 1
 291.916992188 193.310546875 l 1
 181.180664062 191.520507812 l 1
 159.655273438 13.8076171875 l 1
 100.970703125 11.21875 l 1
 122.189453125 190.568359375 l 1
 25.02734375 188.997070312 l 1
 29.341796875 234.736328125 l 1
 127.625976562 236.51953125 l 1
 147.759765625 406.69921875 l 1
 38.8349609375 405.610351562 l 1
 42.287109375 453.075195312 l 1
 153.404296875 454.403320312 l 1
 173.462890625 623.94921875 l 1
207.31640625 407.294921875 m 1
 186.760742188 237.591796875 l 1
 297.43359375 239.600585938 l 1
 317.544921875 408.397460938 l 1
 207.31640625 407.294921875 l 1
EndSplineSet
Validated: 1
EndChar

StartChar: dollar
Encoding: 292 36 30
Width: 500
GlyphClass: 2
Flags: W
LayerCount: 2
Back
Fore
SplineSet
234.736328125 650.702148438 m 1
 299.4609375 650.702148438 l 2
 299.930664062 649.633789062 300.172851562 648.471679688 300.172851562 647.290039062 c 0
 300.172851562 639.881835938 293.419921875 639.59375 293.419921875 629.990234375 c 2
 293.419921875 591.612304688 l 1
 352.5078125 585.658203125 405.133789062 559.049804688 441.856445312 515.2109375 c 1
 398.706054688 460.841796875 l 2
 396.57421875 461.400390625 393.877929688 463.309570312 393.526367188 467.7734375 c 0
 393.298828125 470.666992188 394.033203125 473.432617188 392.555664062 476.490234375 c 0
 392.118164062 477.39453125 391.431640625 478.474609375 388.3203125 482.248046875 c 0
 367.538085938 507.45703125 336.740234375 526.090820312 293.419921875 532.6171875 c 1
 293.419921875 340.028320312 l 1
 316.038085938 332.438476562 338.88671875 324.689453125 359.606445312 315.77734375 c 0
 380.666992188 306.716796875 459.796875 272.806640625 459.796875 181.494140625 c 0
 459.796875 109.774414062 406.651367188 30.978515625 293.419921875 16.2158203125 c 1
 293.419921875 -46.6015625 l 1
 234.736328125 -46.6015625 l 1
 234.736328125 14.3701171875 l 1
 165.80859375 18.673828125 104.0546875 45.794921875 59.546875 94.0673828125 c 1
 102.697265625 153.614257812 l 1
 107.643554688 151.358398438 107.165039062 145.604492188 107.09765625 144.352539062 c 0
 106.864257812 139.98046875 106.341796875 137.284179688 110.176757812 133.204101562 c 0
 138.251953125 103.329101562 182.163085938 77.8515625 234.736328125 72.0107421875 c 1
 234.736328125 291.815429688 l 1
 216.481445312 297.92578125 197.868164062 304.87890625 179.868164062 313.38671875 c 0
 95.7998046875 353.125 79.255859375 409.44921875 79.255859375 445.86328125 c 0
 79.255859375 517.850585938 142.573242188 578.915039062 234.736328125 590.797851562 c 1
 234.736328125 650.702148438 l 1
293.419921875 273.440429688 m 1
 293.419921875 74.08203125 l 1
 357.555664062 86.4912109375 394.500976562 131.66015625 394.500976562 176.83203125 c 0
 394.500976562 197.364257812 386.8359375 230.633789062 344.853515625 253.467773438 c 0
 331.12109375 260.936523438 313.37109375 267.15234375 293.419921875 273.440429688 c 1
234.736328125 360.81640625 m 1
 234.736328125 533.8671875 l 1
 171.848632812 526.51953125 145.3359375 489.04296875 145.3359375 454.46875 c 0
 145.3359375 432.653320312 155.640625 402.68359375 199.715820312 377.30078125 c 0
 210.057617188 371.34375 221.9296875 365.932617188 234.736328125 360.81640625 c 1
EndSplineSet
Validated: 1
EndChar

StartChar: percent
Encoding: 293 37 31
Width: 500
GlyphClass: 2
Flags: W
LayerCount: 2
Back
Fore
SplineSet
390.939453125 623.0859375 m 1
 458.252929688 623.0859375 l 1
 109.600585938 0 l 1
 45.7392578125 0 l 1
 390.939453125 623.0859375 l 1
139.723632812 634.396484375 m 0
 200.625 634.396484375 252.133789062 578.684570312 252.133789062 502.427734375 c 0
 252.133789062 428.154296875 201.53515625 372.80078125 140.627929688 372.80078125 c 0
 79.2578125 372.80078125 28.3505859375 428.833984375 28.3505859375 503.515625 c 0
 28.3505859375 580.390625 80.294921875 634.396484375 139.723632812 634.396484375 c 0
138.365234375 581.666015625 m 0
 118.645507812 581.666015625 88.869140625 566.235351562 88.869140625 506.952148438 c 0
 88.869140625 439.2265625 121.908203125 426.245117188 139.934570312 426.245117188 c 0
 159.829101562 426.245117188 189.076171875 441.977539062 189.076171875 499.8046875 c 0
 189.076171875 571.018554688 154.561523438 581.666015625 138.365234375 581.666015625 c 0
482.432617188 119.60546875 m 0
 482.432617188 44.65625 431.485351562 -10.462890625 370.827148438 -10.462890625 c 0
 309.859375 -10.462890625 258.8828125 44.921875 258.8828125 119.3203125 c 0
 258.8828125 194.251953125 310.005859375 249.408203125 370.735351562 249.408203125 c 0
 431.609375 249.408203125 482.432617188 194.063476562 482.432617188 119.60546875 c 0
370.50390625 197.630859375 m 0
 349.028320312 197.630859375 318.442382812 180.31640625 318.442382812 119.387695312 c 0
 318.442382812 60.3154296875 347.91796875 40.3623046875 371.3515625 40.3623046875 c 0
 392.763671875 40.3623046875 422.877929688 57.6435546875 422.877929688 117.284179688 c 0
 422.877929688 181.514648438 391.07421875 197.630859375 370.50390625 197.630859375 c 0
EndSplineSet
Validated: 1
EndChar

StartChar: ampersand
Encoding: 294 38 32
Width: 500
GlyphClass: 2
Flags: W
LayerCount: 2
Back
Fore
SplineSet
228.883789062 629.224609375 m 0
 303.853515625 629.224609375 362.501953125 573.112304688 362.501953125 496.088867188 c 0
 362.501953125 430.672851562 319.81640625 365.326171875 254.584960938 329.666015625 c 1
 366.775390625 173.462890625 l 1
 390.530273438 201.047851562 404.206054688 230.194335938 411.676757812 253.801757812 c 0
 412.426757812 256.171875 413.015625 258.83203125 413.015625 261.607421875 c 0
 413.015625 265.55078125 411.633789062 269.4375 411.633789062 273.516601562 c 0
 411.633789062 278.400390625 413.59765625 281.778320312 415.965820312 283.926757812 c 2
 480.69140625 239.05078125 l 1
 458.171875 198.541992188 432.8046875 159.609375 404.747070312 122.545898438 c 1
 474.650390625 31.9306640625 l 1
 415.965820312 -12.08203125 l 1
 360.734375 75.9443359375 l 1
 321.041015625 26.744140625 259.4609375 -10.3828125 192.120117188 -10.3828125 c 0
 102.125 -10.3828125 36.0146484375 57.1943359375 36.0146484375 146.219726562 c 0
 36.0146484375 223.28515625 85.400390625 300.59375 162.244140625 342.611328125 c 1
 125.24609375 387.3125 91.4677734375 443.112304688 91.4677734375 498.024414062 c 0
 91.4677734375 572.654296875 152.848632812 629.224609375 228.883789062 629.224609375 c 0
160.430664062 496.75390625 m 0
 160.430664062 470.456054688 171.305664062 434.905273438 220.927734375 372.81640625 c 1
 267.3203125 398.459960938 297.014648438 445.75 297.014648438 491.309570312 c 0
 297.014648438 538.670898438 264.455078125 569.927734375 227.603515625 569.927734375 c 0
 192.14453125 569.927734375 160.430664062 540.607421875 160.430664062 496.75390625 c 0
196.763671875 296.008789062 m 1
 143.625976562 261.576171875 111.642578125 204.91796875 111.642578125 153.139648438 c 0
 111.642578125 95.0615234375 151.904296875 54.21875 202.955078125 54.21875 c 0
 269.606445312 54.21875 324.48828125 123.409179688 324.48828125 123.409179688 c 1
 196.763671875 296.008789062 l 1
EndSplineSet
Validated: 1
EndChar

StartChar: quotesingle
Encoding: 295 39 33
Width: 500
GlyphClass: 2
Flags: W
LayerCount: 2
Back
Fore
SplineSet
319.026367188 604.66015625 m 0
 319.026367188 578.387695312 310.521484375 546.490234375 285.653320312 478.1015625 c 2
 261.489257812 411.651367188 l 1
 206.256835938 425.458984375 l 1
 227.83203125 492.7734375 l 2
 233.225585938 509.6015625 237.586914062 528.470703125 237.586914062 548.095703125 c 0
 237.586914062 569.806640625 231.322265625 589.798828125 231.322265625 611.451171875 c 0
 231.322265625 650.9609375 254.724609375 666.359375 274.006835938 666.359375 c 0
 293.650390625 666.359375 319.026367188 649.91015625 319.026367188 604.66015625 c 0
EndSplineSet
Validated: 1
EndChar

StartChar: parenleft
Encoding: 296 40 34
Width: 500
GlyphClass: 2
Flags: W
LayerCount: 2
Back
Fore
SplineSet
391.801757812 666.236328125 m 1
 422.006835938 604.962890625 l 2
 418.619140625 603.032226562 415.38671875 602.901367188 413.954101562 602.901367188 c 0
 409.98828125 602.901367188 406.813476562 604.041015625 403.299804688 604.041015625 c 0
 399.32421875 604.041015625 396.91796875 602.494140625 394.249023438 600.919921875 c 0
 277.4140625 532.010742188 208.21875 404.625976562 208.21875 261.786132812 c 0
 208.21875 106.419921875 288.78515625 -40.5341796875 425.458984375 -119.95703125 c 1
 392.665039062 -172.599609375 l 1
 234.266601562 -89.45703125 138.666992188 76.7998046875 138.666992188 258.435546875 c 0
 138.666992188 441.482421875 237.046875 598.161132812 391.801757812 666.236328125 c 1
EndSplineSet
Validated: 1
EndChar

StartChar: parenright
Encoding: 297 41 35
Width: 500
GlyphClass: 2
Flags: W
LayerCount: 2
Back
Fore
SplineSet
77.669921875 603.237304688 m 1
 96.65625 665.373046875 l 1
 259.12890625 590.595703125 364.185546875 428.59375 364.185546875 250.51953125 c 0
 364.185546875 70.8564453125 257.3203125 -95.2607421875 91.4775390625 -174.326171875 c 1
 72.4921875 -113.916015625 l 1
 207.6328125 -42.3876953125 293.444335938 97.1708984375 293.444335938 247.662109375 c 0
 293.444335938 396.078125 209.840820312 532.971679688 77.669921875 603.237304688 c 1
EndSplineSet
Validated: 1
EndChar

StartChar: asterisk
Encoding: 298 42 36
Width: 500
GlyphClass: 2
Flags: W
LayerCount: 2
Back
Fore
SplineSet
213.161132812 518.663085938 m 1
 294.283203125 518.663085938 l 1
 292.587890625 506.768554688 289.528320312 504.342773438 288.2421875 491.91015625 c 2
 272.708007812 341.748046875 l 1
 431.5 414.240234375 l 1
 458.252929688 352.966796875 l 1
 286.515625 301.1875 l 1
 412.513671875 150.162109375 l 1
 358.14453125 107.01171875 l 1
 250.26953125 272.708007812 l 1
 138.080078125 106.149414062 l 1
 83.7109375 150.162109375 l 1
 214.024414062 300.32421875 l 1
 41.423828125 352.966796875 l 1
 67.314453125 417.692382812 l 1
 228.6953125 341.748046875 l 1
 213.161132812 518.663085938 l 1
EndSplineSet
Validated: 1
EndChar

StartChar: plus
Encoding: 299 43 37
Width: 500
GlyphClass: 2
Flags: W
LayerCount: 2
Back
Fore
SplineSet
221.791015625 522.978515625 m 1
 284.790039062 522.978515625 l 1
 284.790039062 352.103515625 l 1
 455.6640625 352.103515625 l 1
 455.6640625 290.831054688 l 1
 284.790039062 290.831054688 l 1
 284.790039062 103.559570312 l 1
 221.791015625 103.559570312 l 1
 221.791015625 290.831054688 l 1
 44.8759765625 290.831054688 l 1
 44.8759765625 352.103515625 l 1
 221.791015625 352.103515625 l 1
 221.791015625 522.978515625 l 1
EndSplineSet
Validated: 1
EndChar

StartChar: comma
Encoding: 300 44 38
Width: 500
GlyphClass: 2
Flags: HWO
LayerCount: 2
Back
Fore
SplineSet
363.633789062 19.70703125 m 4
 363.633789062 -32.357421875 327.001953125 -97.568359375 257.352539062 -168.28515625 c 5
 222.833007812 -138.080078125 l 5
 246.549804688 -116.268554688 263.3515625 -91.9345703125 273.119140625 -75.88671875 c 4
 278.002929688 -67.8642578125 287.926757812 -50.7734375 287.926757812 -34.224609375 c 4
 287.926757812 -13.6376953125 273.189453125 -4.4296875 264.501953125 1.3486328125 c 4
 255.666992188 7.224609375 236.6171875 18.72265625 236.6171875 45.611328125 c 4
 236.6171875 75.814453125 261.267578125 102.63671875 294.178710938 102.63671875 c 4
 329.747070312 102.63671875 363.633789062 70.880859375 363.633789062 19.70703125 c 4
EndSplineSet
EndChar

StartChar: hyphen
Encoding: 301 45 39
Width: 500
GlyphClass: 2
Flags: W
LayerCount: 2
Back
Fore
SplineSet
70.765625 347.7890625 m 1
 430.63671875 347.7890625 l 1
 430.63671875 281.337890625 l 1
 70.765625 281.337890625 l 1
 70.765625 347.7890625 l 1
EndSplineSet
Validated: 1
EndChar

StartChar: period
Encoding: 302 46 40
Width: 500
GlyphClass: 2
Flags: W
LayerCount: 2
Back
Fore
SplineSet
297.736328125 46.1650390625 m 0
 297.736328125 14.6787109375 271.458007812 -11.2587890625 238.569335938 -11.2587890625 c 0
 205.751953125 -11.2587890625 179.462890625 14.654296875 179.462890625 46.177734375 c 0
 179.462890625 77.6376953125 205.724609375 103.561523438 238.586914062 103.561523438 c 0
 271.461914062 103.561523438 297.736328125 77.63671875 297.736328125 46.1650390625 c 0
EndSplineSet
Validated: 1
EndChar

StartChar: slash
Encoding: 303 47 41
Width: 500
GlyphClass: 2
Flags: W
LayerCount: 2
Back
Fore
SplineSet
63.8623046875 -12.9453125 m 1
 377.130859375 664.509765625 l 1
 436.677734375 634.3046875 l 1
 122.545898438 -42.287109375 l 1
 63.8623046875 -12.9453125 l 1
EndSplineSet
Validated: 1
EndChar

StartChar: zero
Encoding: 304 48 42
Width: 500
GlyphClass: 2
Flags: W
LayerCount: 2
Back
Fore
SplineSet
251.34765625 627.401367188 m 0
 347.223632812 627.401367188 449.62890625 513.673828125 449.62890625 301.00390625 c 0
 449.62890625 86.8994140625 342.880859375 -11.2373046875 252.44921875 -11.2373046875 c 0
 153.922851562 -11.2373046875 50.046875 104.991210938 50.046875 306.556640625 c 0
 50.046875 505.963867188 152.461914062 627.401367188 251.34765625 627.401367188 c 0
348.709960938 484.969726562 m 1
 321.978515625 539.974609375 284.494140625 566.127929688 250.405273438 566.127929688 c 0
 188.649414062 566.127929688 115.46484375 478.12890625 115.46484375 318.71484375 c 0
 115.46484375 274.6640625 120.58203125 235.172851562 129.370117188 200.942382812 c 1
 348.709960938 484.969726562 l 1
371.834960938 418.145507812 m 1
 152.452148438 137.573242188 l 1
 179.530273438 82.9208984375 217.860351562 52.5439453125 254.8671875 52.5439453125 c 0
 309.845703125 52.5439453125 384.983398438 118.758789062 384.983398438 292.881835938 c 0
 384.983398438 341.340820312 380.1171875 383.00390625 371.834960938 418.145507812 c 1
EndSplineSet
Validated: 1
EndChar

StartChar: one
Encoding: 305 49 43
Width: 500
GlyphClass: 2
Flags: W
LayerCount: 2
Back
Fore
SplineSet
299.4609375 623.94921875 m 1
 299.4609375 -0.86328125 l 1
 229.557617188 -0.86328125 l 1
 229.557617188 536.786132812 l 1
 104.422851562 499.676757812 l 1
 88.0263671875 538.51171875 l 1
 251.1328125 623.94921875 l 1
 299.4609375 623.94921875 l 1
EndSplineSet
Validated: 1
EndChar

StartChar: two
Encoding: 306 50 44
Width: 500
GlyphClass: 2
Flags: W
LayerCount: 2
Back
Fore
SplineSet
77.669921875 526.4296875 m 1
 114.392578125 589.1875 181.380859375 627.408203125 252.088867188 627.408203125 c 0
 353.80859375 627.408203125 432.826171875 549.465820312 432.826171875 452.379882812 c 0
 432.826171875 362.767578125 368.875 298.680664062 323.1953125 255.884765625 c 0
 278.271484375 213.796875 205.5859375 151.876953125 153.614257812 61.2734375 c 1
 415.103515625 61.2734375 l 2
 419.663085938 61.2734375 421.741210938 61.9130859375 425.796875 65.41015625 c 0
 427.875 67.2021484375 432.776367188 72.056640625 439.266601562 69.9033203125 c 1
 439.266601562 0 l 1
 73.35546875 0 l 1
 73.35546875 44.0126953125 l 1
 125.831054688 147.512695312 183.21875 211.81640625 254.379882812 275.924804688 c 0
 299.5625 316.62890625 363.517578125 371.330078125 363.517578125 447.245117188 c 0
 363.517578125 514.215820312 310.232421875 565.65234375 243.844726562 565.65234375 c 0
 189.42578125 565.65234375 152.015625 531.74609375 137.310546875 508.883789062 c 0
 131.9765625 500.591796875 134.532226562 494.342773438 128.586914062 485.869140625 c 1
 77.669921875 526.4296875 l 1
EndSplineSet
Validated: 1
EndChar

StartChar: three
Encoding: 307 51 45
Width: 500
GlyphClass: 2
Flags: W
LayerCount: 2
Back
Fore
SplineSet
410.821289062 467.188476562 m 0
 410.821289062 406.610351562 373.495117188 353.081054688 317.583984375 332.254882812 c 1
 382.228515625 308.6328125 424.619140625 245.551757812 424.619140625 171.413085938 c 0
 424.619140625 74.6025390625 352.139648438 -10.5205078125 232.770507812 -10.5205078125 c 0
 170.368164062 -10.5205078125 110.830078125 13.9501953125 69.0400390625 60.41015625 c 1
 121.682617188 123.409179688 l 1
 130.565429688 114.31640625 126.114257812 104.625 134.606445312 95.0576171875 c 0
 139.034179688 90.0693359375 174.096679688 52.869140625 232.14453125 52.869140625 c 0
 305.092773438 52.869140625 357.54296875 111.4609375 357.54296875 179.891601562 c 0
 357.54296875 254.159179688 295.540039062 298.234375 211.166015625 298.234375 c 0
 200.577148438 298.234375 189.997070312 297.485351562 179.50390625 296.008789062 c 1
 179.50390625 352.103515625 l 1
 238.620117188 352.233398438 266.965820312 363.10546875 277.920898438 367.916992188 c 0
 321.052734375 386.861328125 344.374023438 428.001953125 344.374023438 465.958984375 c 0
 344.374023438 518.591796875 300.001953125 563.04296875 236.059570312 563.04296875 c 0
 197.529296875 563.04296875 157.650390625 546.358398438 128.586914062 515.2109375 c 1
 89.751953125 558.361328125 l 1
 128.859375 601.083007812 183.270507812 625.0625 239.475585938 625.0625 c 0
 338.026367188 625.0625 410.821289062 552.244140625 410.821289062 467.188476562 c 0
EndSplineSet
Validated: 1
EndChar

StartChar: four
Encoding: 308 52 46
Width: 500
GlyphClass: 2
Flags: W
LayerCount: 2
Back
Fore
SplineSet
313.268554688 623.94921875 m 1
 371.953125 623.94921875 l 1
 371.953125 233.873046875 l 1
 452.211914062 233.873046875 l 1
 452.211914062 171.737304688 l 1
 371.953125 171.737304688 l 1
 371.953125 0 l 1
 299.4609375 0 l 1
 299.4609375 172.599609375 l 1
 48.328125 172.599609375 l 1
 48.328125 224.379882812 l 1
 313.268554688 623.94921875 l 1
300.32421875 512.622070312 m 1
 117.368164062 233.873046875 l 1
 300.32421875 233.873046875 l 1
 300.32421875 512.622070312 l 1
EndSplineSet
Validated: 1
EndChar

StartChar: five
Encoding: 309 53 47
Width: 500
GlyphClass: 2
Flags: W
LayerCount: 2
Back
Fore
SplineSet
106.149414062 623.0859375 m 1
 422.006835938 623.0859375 l 1
 422.006835938 560.086914062 l 1
 164.833007812 560.086914062 l 1
 155.33984375 380.583007812 l 1
 187.624023438 396.6875 222.4296875 404.758789062 256.83984375 404.758789062 c 0
 361.16796875 404.758789062 445.34765625 330.381835938 445.34765625 196.994140625 c 0
 445.34765625 61.9375 356.245117188 -11.2333984375 248.534179688 -11.2333984375 c 0
 174.487304688 -11.2333984375 105.182617188 23.5810546875 63.8623046875 84.57421875 c 1
 125.998046875 131.17578125 l 1
 134.5546875 125.072265625 129.421875 115.223632812 133.450195312 107.606445312 c 0
 136.916992188 101.051757812 180.388671875 50.0419921875 247.672851562 50.0419921875 c 0
 314.563476562 50.0419921875 373.70703125 102.493164062 373.70703125 198.323242188 c 0
 373.70703125 297.623046875 311.780273438 347.01953125 246.180664062 347.01953125 c 0
 203.630859375 347.01953125 159.521484375 326.112304688 129.450195312 288.2421875 c 1
 84.57421875 306.365234375 l 1
 106.149414062 623.0859375 l 1
EndSplineSet
Validated: 1
EndChar

StartChar: six
Encoding: 310 54 48
Width: 500
GlyphClass: 2
Flags: W
LayerCount: 2
Back
Fore
SplineSet
287.084960938 630.109375 m 0
 337.7890625 630.109375 387.127929688 609.11328125 423.733398438 573.032226562 c 1
 375.405273438 519.526367188 l 1
 366.229492188 526.275390625 366.420898438 535.638671875 360.31640625 542.030273438 c 0
 356.498046875 546.029296875 328.9453125 568.06640625 287.517578125 568.06640625 c 0
 242.721679688 568.06640625 140.161132812 540.2265625 136.353515625 327.077148438 c 1
 163.8828125 373.677734375 214.03515625 402.276367188 268.397460938 402.276367188 c 0
 356.484375 402.276367188 439.3359375 327.774414062 439.3359375 198.091796875 c 0
 439.3359375 69.78125 356.205078125 -10.3583984375 261.486328125 -10.3583984375 c 0
 206.001953125 -10.3583984375 150.557617188 17.587890625 114.2734375 72.3896484375 c 0
 74.25390625 132.83203125 67.150390625 210.728515625 67.150390625 283.689453125 c 0
 67.150390625 343.486328125 72.9052734375 416.03125 93.7978515625 475.388671875 c 0
 132.14453125 584.329101562 212.80859375 630.109375 287.084960938 630.109375 c 0
261.859375 340.962890625 m 0
 215.609375 340.962890625 167.895507812 308.286132812 139.805664062 257.173828125 c 1
 131.549804688 140.751953125 188.424804688 51.732421875 264.439453125 51.732421875 c 0
 317.286132812 51.732421875 371.235351562 97.0966796875 371.235351562 194.529296875 c 0
 371.235351562 301.913085938 311.946289062 340.962890625 261.859375 340.962890625 c 0
EndSplineSet
Validated: 33
EndChar

StartChar: seven
Encoding: 311 55 49
Width: 500
GlyphClass: 2
Flags: W
LayerCount: 2
Back
Fore
SplineSet
78.533203125 623.0859375 m 1
 431.5 623.0859375 l 1
 431.5 584.250976562 l 1
 389.33203125 487.876953125 349.900390625 390.305664062 313.268554688 291.694335938 c 0
 277.5 195.404296875 244.401367188 98.123046875 214.024414062 0 c 1
 135.491210938 0 l 1
 172.420898438 112.00390625 212.134765625 223.087890625 254.584960938 333.118164062 c 0
 283.525390625 408.127929688 313.735351562 482.6484375 345.200195312 556.634765625 c 1
 78.533203125 556.634765625 l 1
 78.533203125 623.0859375 l 1
EndSplineSet
Validated: 1
EndChar

StartChar: eight
Encoding: 312 56 50
Width: 500
GlyphClass: 2
Flags: W
LayerCount: 2
Back
Fore
SplineSet
258.228515625 630.905273438 m 0
 349.665039062 630.905273438 420.455078125 565.456054688 420.455078125 483.349609375 c 0
 420.455078125 423.317382812 381.436523438 364.837890625 321.036132812 333.118164062 c 1
 391.283203125 300.711914062 441.307617188 234.20703125 441.307617188 160.845703125 c 0
 441.307617188 65.916015625 358.944335938 -10.4111328125 249.512695312 -10.4111328125 c 0
 142.203125 -10.4111328125 60.2763671875 63.8525390625 60.2763671875 156.68359375 c 0
 60.2763671875 228.5859375 110.732421875 296.626953125 184.681640625 331.391601562 c 1
 128.439453125 360.118164062 89.7119140625 416.010742188 89.7119140625 477.295898438 c 0
 89.7119140625 561.240234375 162.861328125 630.905273438 258.228515625 630.905273438 c 0
237.325195312 302.913085938 m 1
 178.021484375 278.29296875 132.033203125 224.841796875 132.033203125 165.958007812 c 0
 132.033203125 103.262695312 184.921875 52.638671875 252.708007812 52.638671875 c 0
 319.318359375 52.638671875 370.447265625 101.497070312 370.447265625 161.573242188 c 0
 370.447265625 222.462890625 317.4921875 277.620117188 237.325195312 302.913085938 c 1
252.861328125 572.182617188 m 0
 198.48046875 572.182617188 156.99609375 532.37890625 156.99609375 483.264648438 c 0
 156.99609375 400.922851562 266.666992188 358.14453125 266.666992188 358.14453125 c 1
 315.208984375 384.251953125 352.103515625 430.770507812 352.103515625 478.7265625 c 0
 352.103515625 530.7578125 308.557617188 572.182617188 252.861328125 572.182617188 c 0
EndSplineSet
Validated: 1
EndChar

StartChar: nine
Encoding: 313 57 51
Width: 500
GlyphClass: 2
Flags: W
LayerCount: 2
Back
Fore
SplineSet
217.1953125 -10.4912109375 m 0
 165.760742188 -10.4912109375 116.135742188 10.1826171875 79.396484375 46.6015625 c 1
 127.723632812 100.108398438 l 1
 138.357421875 93.3583984375 135.584960938 82.5888671875 144.024414062 76.0517578125 c 0
 144.231445312 75.8916015625 174.349609375 53.4013671875 219.0625 53.4013671875 c 0
 263.850585938 53.4013671875 315.596679688 76.0048828125 342.24609375 139.005859375 c 0
 348.81640625 154.536132812 364.6796875 196.541015625 367.637695312 293.419921875 c 1
 338.594726562 251.301757812 290.573242188 226.069335938 239.151367188 226.069335938 c 0
 148.6328125 226.069335938 68.171875 303.043945312 68.171875 422.74609375 c 0
 68.171875 543.494140625 149.583007812 629.126953125 246.514648438 629.126953125 c 0
 311.557617188 629.126953125 383.294921875 589.21875 415.755859375 493.920898438 c 0
 430.260742188 451.33984375 437.250976562 397.53125 437.250976562 319.53515625 c 0
 437.250976562 217.553710938 421.506835938 163.495117188 410.571289062 134.658203125 c 0
 372.819335938 35.107421875 293.244140625 -10.4912109375 217.1953125 -10.4912109375 c 0
245.9453125 287.14453125 m 0
 290.818359375 287.14453125 336.640625 316.899414062 364.185546875 363.323242188 c 1
 375.243164062 489.102539062 315.982421875 567.028320312 245.05859375 567.028320312 c 0
 188.528320312 567.028320312 136.327148438 516.301757812 136.327148438 425.627929688 c 0
 136.327148438 332.8671875 190.393554688 287.14453125 245.9453125 287.14453125 c 0
EndSplineSet
Validated: 33
EndChar

StartChar: colon
Encoding: 314 58 52
Width: 500
GlyphClass: 2
Flags: W
LayerCount: 2
Back
Fore
SplineSet
297.736328125 365.474609375 m 0
 297.736328125 333.98828125 271.458007812 308.05078125 238.569335938 308.05078125 c 0
 205.751953125 308.05078125 179.462890625 333.963867188 179.462890625 365.487304688 c 0
 179.462890625 396.947265625 205.724609375 422.87109375 238.586914062 422.87109375 c 0
 271.461914062 422.87109375 297.736328125 396.946289062 297.736328125 365.474609375 c 0
297.736328125 46.1650390625 m 0
 297.736328125 14.6787109375 271.458007812 -11.2587890625 238.569335938 -11.2587890625 c 0
 205.751953125 -11.2587890625 179.462890625 14.654296875 179.462890625 46.177734375 c 0
 179.462890625 77.6376953125 205.724609375 103.561523438 238.586914062 103.561523438 c 0
 271.461914062 103.561523438 297.736328125 77.63671875 297.736328125 46.1650390625 c 0
EndSplineSet
Validated: 1
EndChar

StartChar: semicolon
Encoding: 315 59 53
Width: 500
GlyphClass: 2
Flags: W
LayerCount: 2
Back
Fore
SplineSet
305.633789062 19.70703125 m 0
 305.633789062 -32.357421875 269.001953125 -97.568359375 199.352539062 -168.28515625 c 1
 164.833007812 -138.080078125 l 1
 188.549804688 -116.268554688 205.3515625 -91.9345703125 215.119140625 -75.88671875 c 0
 220.002929688 -67.8642578125 229.926757812 -50.7734375 229.926757812 -34.224609375 c 0
 229.926757812 -13.6376953125 215.189453125 -4.4296875 206.501953125 1.3486328125 c 0
 197.666992188 7.224609375 178.6171875 18.72265625 178.6171875 45.611328125 c 0
 178.6171875 75.814453125 203.267578125 102.63671875 236.178710938 102.63671875 c 0
 271.747070312 102.63671875 305.633789062 70.880859375 305.633789062 19.70703125 c 0
297.736328125 365.474609375 m 0
 297.736328125 333.98828125 271.458007812 308.05078125 238.569335938 308.05078125 c 0
 205.751953125 308.05078125 179.462890625 333.963867188 179.462890625 365.487304688 c 0
 179.462890625 396.947265625 205.724609375 422.87109375 238.586914062 422.87109375 c 0
 271.461914062 422.87109375 297.736328125 396.946289062 297.736328125 365.474609375 c 0
EndSplineSet
Validated: 1
EndChar

StartChar: less
Encoding: 316 60 54
Width: 500
GlyphClass: 2
Flags: W
LayerCount: 2
Back
Fore
SplineSet
458.252929688 496.224609375 m 5
 458.252929688 566.991210938 l 5
 34.51953125 344.336914062 l 5
 34.51953125 296.008789062 l 5
 460.841796875 47.46484375 l 5
 460.841796875 122.545898438 l 5
 111.327148438 319.309570312 l 5
 458.252929688 496.224609375 l 5
EndSplineSet
Validated: 9
EndChar

StartChar: equal
Encoding: 317 61 55
Width: 500
GlyphClass: 2
Flags: W
LayerCount: 2
Back
Fore
SplineSet
44.8759765625 438.403320312 m 1
 455.6640625 438.403320312 l 1
 455.6640625 377.130859375 l 1
 44.8759765625 377.130859375 l 1
 44.8759765625 438.403320312 l 1
44.8759765625 231.283203125 m 1
 455.6640625 231.283203125 l 1
 455.6640625 170.010742188 l 1
 44.8759765625 170.010742188 l 1
 44.8759765625 231.283203125 l 1
EndSplineSet
Validated: 1
EndChar

StartChar: greater
Encoding: 318 62 56
Width: 500
GlyphClass: 2
Flags: W
LayerCount: 2
Back
Fore
SplineSet
42.287109375 496.224609375 m 1
 42.287109375 566.991210938 l 1
 466.01953125 344.336914062 l 1
 466.01953125 296.008789062 l 1
 39.6982421875 47.46484375 l 1
 39.6982421875 122.545898438 l 1
 389.212890625 319.309570312 l 1
 42.287109375 496.224609375 l 1
EndSplineSet
Validated: 1
EndChar

StartChar: question
Encoding: 319 63 57
Width: 500
GlyphClass: 2
Flags: W
LayerCount: 2
Back
Fore
SplineSet
320.174804688 44.4384765625 m 0
 320.174804688 12.9521484375 293.896484375 -12.984375 261.006835938 -12.984375 c 0
 228.190429688 -12.984375 201.900390625 12.927734375 201.900390625 44.4521484375 c 0
 201.900390625 75.912109375 228.162109375 101.8359375 261.024414062 101.8359375 c 0
 293.899414062 101.8359375 320.174804688 75.91015625 320.174804688 44.4384765625 c 0
63.8623046875 560.950195312 m 1
 107.37890625 627.998046875 181.779296875 665.424804688 256.658203125 665.424804688 c 0
 369.967773438 665.424804688 434.295898438 582.208007812 434.295898438 489.008789062 c 0
 434.295898438 395.04296875 368.196289062 356.994140625 335.193359375 327.66015625 c 0
 294.017578125 291.0625 291.694335938 261.346679688 291.694335938 226.106445312 c 2
 291.694335938 184.681640625 l 1
 226.106445312 184.681640625 l 1
 226.106445312 226.106445312 l 2
 226.106445312 270.994140625 228.918945312 306.197265625 273.095703125 354.704101562 c 0
 303.319335938 387.890625 355.190429688 428.734375 355.190429688 494.248046875 c 0
 355.190429688 553.33984375 309.772460938 599.916992188 249.954101562 599.916992188 c 0
 199.392578125 599.916992188 146.314453125 566.224609375 114.779296875 513.485351562 c 1
 63.8623046875 560.950195312 l 1
EndSplineSet
Validated: 1
EndChar

StartChar: at
Encoding: 320 64 58
Width: 500
GlyphClass: 2
Flags: W
LayerCount: 2
Back
Fore
SplineSet
434.952148438 30.205078125 m 1
 393.065429688 3.1435546875 344.41796875 -11.2236328125 294.870117188 -11.2236328125 c 0
 170.190429688 -11.2236328125 31.0498046875 81.76953125 31.0498046875 313.887695312 c 0
 31.0498046875 540.719726562 162.19140625 632.579101562 271.369140625 632.579101562 c 0
 343.866210938 632.579101562 410.592773438 592.864257812 442.733398438 521.9140625 c 0
 464.51953125 473.8203125 465.157226562 425.646484375 465.157226562 377.994140625 c 2
 465.157226562 175.189453125 l 1
 404.747070312 175.189453125 l 1
 404.747070312 213.161132812 l 1
 379.983398438 183.58984375 343.399414062 166.5078125 304.85546875 166.5078125 c 0
 233.264648438 166.5078125 174.904296875 224.51953125 174.904296875 296.841796875 c 0
 174.904296875 350.750976562 207.958984375 403.983398438 269.940429688 428.55078125 c 0
 309.422851562 444.200195312 349.296875 444.4453125 387.487304688 444.4453125 c 2
 402.158203125 444.4453125 l 1
 402.10546875 518.432617188 343.21875 579.084960938 268.477539062 579.084960938 c 0
 181.84375 579.084960938 88.87890625 496.78515625 88.87890625 316.930664062 c 0
 88.87890625 121.873046875 203.865234375 45.6806640625 300.74609375 45.6806640625 c 0
 339.022460938 45.6806640625 376.443359375 57.115234375 408.19921875 78.533203125 c 1
 434.952148438 30.205078125 l 1
404.747070312 394.390625 m 1
 388.349609375 394.390625 l 2
 352.5859375 394.390625 310.59375 394.052734375 276.854492188 370.892578125 c 0
 249.92578125 352.407226562 237.26171875 325.36328125 237.26171875 299.780273438 c 0
 237.26171875 256.512695312 272.484375 221.759765625 316.374023438 221.759765625 c 0
 345.248046875 221.759765625 374.612304688 237.1875 390.083984375 267.25390625 c 0
 405.684570312 297.569335938 404.747070312 335.764648438 404.747070312 375.405273438 c 2
 404.747070312 394.390625 l 1
EndSplineSet
Validated: 33
EndChar

StartChar: A
Encoding: 321 65 59
Width: 500
GlyphClass: 2
Flags: W
LayerCount: 2
Back
Fore
SplineSet
14.6708984375 -0.86328125 m 1
 234.736328125 634.3046875 l 1
 242.502929688 634.3046875 l 1
 483.280273438 0 l 1
 410.788085938 0 l 1
 341.748046875 182.092773438 l 1
 144.12109375 182.092773438 l 1
 83.7109375 -0.86328125 l 1
 14.6708984375 -0.86328125 l 1
326.213867188 236.461914062 m 1
 238.188476562 473.787109375 l 1
 157.928710938 236.461914062 l 1
 326.213867188 236.461914062 l 1
EndSplineSet
Validated: 1
EndChar

StartChar: B
Encoding: 322 66 60
Width: 500
GlyphClass: 2
Flags: W
LayerCount: 2
Back
Fore
SplineSet
48.328125 623.0859375 m 1
 225.243164062 623.0859375 l 2
 263.559570312 623.0859375 302.657226562 622.654296875 341.643554688 605.702148438 c 0
 400.193359375 580.241210938 432.36328125 526.853515625 432.36328125 470.861328125 c 0
 432.36328125 411.125 395.934570312 356.791992188 340.022460938 333.981445312 c 1
 409.833007812 310.451171875 456.6328125 245.075195312 456.6328125 172.516601562 c 0
 456.6328125 108.296875 419.772460938 47.2841796875 352.71875 18.7900390625 c 0
 309.66015625 0.4921875 266.762695312 0 224.379882812 0 c 2
 48.328125 0 l 1
 48.328125 623.0859375 l 1
117.368164062 563.5390625 m 1
 117.368164062 365.048828125 l 1
 214.88671875 365.048828125 l 2
 242.627929688 365.048828125 272.471679688 365.163085938 301.155273438 377.575195312 c 0
 340.387695312 394.5546875 361.743164062 428.84765625 361.743164062 464.413085938 c 0
 361.743164062 500.266601562 339.848632812 535.565429688 298.53125 552.254882812 c 0
 270.837890625 563.44140625 242.359375 563.5390625 215.75 563.5390625 c 2
 117.368164062 563.5390625 l 1
117.368164062 306.365234375 m 1
 117.368164062 61.2734375 l 1
 236.461914062 61.2734375 l 2
 263.391601562 61.2734375 289.798828125 61.7451171875 316.708007812 73.8701171875 c 0
 359.764648438 93.271484375 383.470703125 134.955078125 383.470703125 179.512695312 c 0
 383.470703125 224.575195312 358.9453125 269.043945312 312.696289062 290.995117188 c 0
 281.59375 305.7578125 250.677734375 306.365234375 219.202148438 306.365234375 c 2
 117.368164062 306.365234375 l 1
EndSplineSet
Validated: 1
EndChar

StartChar: C
Encoding: 323 67 61
Width: 500
GlyphClass: 2
Flags: W
LayerCount: 2
Back
Fore
SplineSet
277.556640625 628.263671875 m 0
 360.338867188 628.263671875 435.103515625 579.97265625 468.609375 504.85546875 c 1
 402.158203125 472.060546875 l 1
 397.55859375 475.28515625 397.59765625 480.70703125 397.59765625 481.877929688 c 0
 397.59765625 484.364257812 398.021484375 486.854492188 398.021484375 489.334960938 c 0
 398.021484375 493.984375 396.5625 496.567382812 394.577148438 499.995117188 c 0
 369.428710938 543.430664062 323.967773438 572.314453125 275.1953125 572.314453125 c 0
 187.112304688 572.314453125 108.7265625 479.637695312 108.7265625 314.10546875 c 0
 108.7265625 145.708007812 189.357421875 50.048828125 281.041015625 50.048828125 c 0
 329.939453125 50.048828125 379.462890625 78.43359375 408.19921875 125.998046875 c 1
 459.978515625 92.3408203125 l 1
 420.879882812 28.4609375 351.427734375 -10.357421875 277.1171875 -10.357421875 c 0
 174.479492188 -10.357421875 40.5322265625 67.185546875 40.5322265625 307.923828125 c 0
 40.5322265625 557.358398438 180.649414062 628.263671875 277.556640625 628.263671875 c 0
EndSplineSet
Validated: 1
EndChar

StartChar: D
Encoding: 324 68 62
Width: 500
GlyphClass: 2
Flags: W
LayerCount: 2
Back
Fore
SplineSet
53.505859375 623.0859375 m 1
 199.352539062 623.0859375 l 2
 254.305664062 623.0859375 299.154296875 619.145507812 344.426757812 589.6875 c 0
 424.56640625 537.541992188 460.134765625 432.546875 460.134765625 312.578125 c 0
 460.134765625 176.2265625 411.392578125 70.0703125 322.065429688 24.1455078125 c 0
 278.137695312 1.5625 236.798828125 -0.86328125 187.271484375 -0.86328125 c 2
 53.505859375 -0.86328125 l 1
 53.505859375 623.0859375 l 1
119.95703125 563.5390625 m 1
 119.95703125 54.369140625 l 1
 183.819335938 54.369140625 l 2
 222.997070312 54.369140625 261.262695312 56.1123046875 300.326171875 82.470703125 c 0
 350.111328125 116.063476562 389.516601562 184.419921875 389.516601562 303.198242188 c 0
 389.516601562 392.6796875 370.1796875 481.329101562 312.276367188 529.322265625 c 0
 273.713867188 561.286132812 234.296875 563.5390625 195.038085938 563.5390625 c 2
 119.95703125 563.5390625 l 1
EndSplineSet
Validated: 1
EndChar

StartChar: E
Encoding: 325 69 63
Width: 500
GlyphClass: 2
Flags: W
LayerCount: 2
Back
Fore
SplineSet
58.68359375 623.94921875 m 1
 440.993164062 623.94921875 l 1
 440.993164062 561.813476562 l 1
 125.134765625 561.813476562 l 1
 125.134765625 357.282226562 l 1
 385.760742188 357.282226562 l 1
 385.760742188 293.419921875 l 1
 125.134765625 293.419921875 l 1
 125.134765625 62.1357421875 l 1
 438.404296875 62.1357421875 l 1
 438.404296875 0 l 1
 58.68359375 0 l 1
 58.68359375 623.94921875 l 1
EndSplineSet
Validated: 1
EndChar

StartChar: F
Encoding: 326 70 64
Width: 500
GlyphClass: 2
Flags: W
LayerCount: 2
Back
Fore
SplineSet
77.669921875 623.94921875 m 1
 436.677734375 623.94921875 l 1
 436.677734375 562.67578125 l 1
 148.435546875 562.67578125 l 1
 148.435546875 366.775390625 l 1
 381.446289062 366.775390625 l 1
 381.446289062 306.365234375 l 1
 148.435546875 306.365234375 l 1
 148.435546875 0 l 1
 77.669921875 0 l 1
 77.669921875 623.94921875 l 1
EndSplineSet
Validated: 1
EndChar

StartChar: G
Encoding: 327 71 65
Width: 500
GlyphClass: 2
Flags: W
LayerCount: 2
Back
Fore
SplineSet
277.244140625 629.145507812 m 0
 354.01171875 629.145507812 422.62890625 589.2734375 458.252929688 524.704101562 c 1
 409.0625 474.650390625 l 1
 401.237304688 479.668945312 398.813476562 487.584960938 395.744140625 494.307617188 c 0
 376.686523438 536.063476562 332.419921875 567.913085938 276.809570312 567.913085938 c 0
 224.3203125 567.913085938 168.771484375 539.14453125 136.623046875 478.649414062 c 0
 112.247070312 432.776367188 105.280273438 376.880859375 105.280273438 318.856445312 c 0
 105.280273438 253.04296875 112.592773438 165.619140625 164.612304688 106.334960938 c 0
 198.500976562 67.712890625 242.791992188 51.77734375 283.103515625 51.77734375 c 0
 320.232421875 51.77734375 360.290039062 64.8349609375 395.25390625 89.751953125 c 1
 395.25390625 238.188476562 l 1
 282.201171875 238.188476562 l 1
 282.201171875 298.59765625 l 1
 459.978515625 298.59765625 l 1
 459.978515625 55.232421875 l 1
 401.23828125 11.98046875 334.639648438 -9.53515625 276.922851562 -9.53515625 c 0
 168.190429688 -9.53515625 36.1484375 68.271484375 36.1484375 304.096679688 c 0
 36.1484375 577.489257812 194.377929688 629.145507812 277.244140625 629.145507812 c 0
EndSplineSet
Validated: 1
EndChar

StartChar: H
Encoding: 328 72 66
Width: 500
GlyphClass: 2
Flags: W
LayerCount: 2
Back
Fore
SplineSet
54.369140625 623.0859375 m 1
 132.0390625 623.0859375 l 2
 132.749023438 621.66796875 133.119140625 620.090820312 133.119140625 618.48046875 c 0
 133.119140625 610.614257812 126.861328125 609.60546875 126.861328125 598.921875 c 2
 126.861328125 356.418945312 l 1
 371.08984375 356.418945312 l 1
 371.08984375 623.0859375 l 1
 447.034179688 623.0859375 l 2
 447.787109375 621.830078125 448.186523438 620.380859375 448.186523438 618.888671875 c 0
 448.186523438 611.318359375 440.993164062 611.008789062 440.993164062 600.6484375 c 2
 440.993164062 -0.86328125 l 1
 370.2265625 -0.86328125 l 1
 370.2265625 296.872070312 l 1
 126.861328125 296.872070312 l 1
 126.861328125 0 l 1
 54.369140625 0 l 1
 54.369140625 623.0859375 l 1
EndSplineSet
Validated: 1
EndChar

StartChar: I
Encoding: 329 73 67
Width: 500
GlyphClass: 2
Flags: W
LayerCount: 2
Back
Fore
SplineSet
88.0263671875 623.0859375 m 1
 396.98046875 623.0859375 l 1
 396.98046875 564.40234375 l 1
 273.571289062 564.40234375 l 1
 273.571289062 56.9580078125 l 1
 403.021484375 56.9580078125 l 1
 403.021484375 -0.86328125 l 1
 81.1220703125 -0.86328125 l 1
 81.1220703125 57.8212890625 l 1
 203.66796875 57.8212890625 l 1
 203.66796875 564.40234375 l 1
 88.0263671875 564.40234375 l 1
 88.0263671875 623.0859375 l 1
EndSplineSet
Validated: 1
EndChar

StartChar: J
Encoding: 330 74 68
Width: 500
GlyphClass: 2
Flags: W
LayerCount: 2
Back
Fore
SplineSet
171.737304688 623.0859375 m 1
 456.52734375 623.0859375 l 1
 456.52734375 564.40234375 l 1
 360.734375 564.40234375 l 1
 360.734375 208.845703125 l 2
 360.734375 163.72265625 360.328125 116.41015625 336.458984375 71.7421875 c 0
 307.58203125 17.703125 253.5703125 -11.306640625 194.576171875 -11.306640625 c 0
 139.478515625 -11.306640625 86.099609375 13.6591796875 49.19140625 57.8212890625 c 1
 95.79296875 114.779296875 l 1
 101.7265625 109.32421875 97.5390625 102.43359375 101.973632812 96.71484375 c 0
 104.131835938 93.9306640625 143.5703125 50.642578125 195.692382812 50.642578125 c 0
 225.626953125 50.642578125 252.67578125 65.5390625 269.348632812 90.375 c 0
 292.547851562 124.930664062 291.694335938 169.40625 291.694335938 207.983398438 c 2
 291.694335938 564.40234375 l 1
 171.737304688 564.40234375 l 1
 171.737304688 623.0859375 l 1
EndSplineSet
Validated: 33
EndChar

StartChar: K
Encoding: 331 75 69
Width: 500
GlyphClass: 2
Flags: W
LayerCount: 2
Back
Fore
SplineSet
42.287109375 623.94921875 m 1
 125.998046875 623.94921875 l 1
 127.108398438 617.196289062 122.678710938 612.6015625 120.359375 609.587890625 c 0
 116.866210938 605.043945312 116.504882812 602.38671875 116.504882812 598.05859375 c 2
 116.504882812 335.70703125 l 1
 377.130859375 628.263671875 l 1
 394.268554688 623.90234375 411.982421875 623.0859375 428.911132812 623.0859375 c 2
 454.80078125 623.0859375 l 1
 219.202148438 353.830078125 l 1
 471.198242188 -0.86328125 l 1
 421.842773438 -0.712890625 382.30859375 -4.3154296875 382.30859375 -4.3154296875 c 1
 165.696289062 311.54296875 l 1
 116.504882812 258.037109375 l 1
 116.504882812 0 l 1
 42.287109375 0 l 1
 42.287109375 623.94921875 l 1
EndSplineSet
Validated: 33
EndChar

StartChar: L
Encoding: 332 76 70
Width: 500
GlyphClass: 2
Flags: W
LayerCount: 2
Back
Fore
SplineSet
66.451171875 623.0859375 m 1
 147.573242188 623.0859375 l 1
 148.653320312 615.977539062 145.5625 610.172851562 144.083984375 607.359375 c 0
 141.137695312 601.750976562 138.943359375 598.463867188 138.943359375 589.428710938 c 2
 138.943359375 59.546875 l 1
 439.266601562 59.546875 l 1
 439.266601562 -0.86328125 l 1
 66.451171875 -0.86328125 l 1
 66.451171875 623.0859375 l 1
EndSplineSet
Validated: 1
EndChar

StartChar: M
Encoding: 333 77 71
Width: 500
GlyphClass: 2
Flags: W
LayerCount: 2
Back
Fore
SplineSet
40.560546875 623.0859375 m 1
 95.79296875 623.0859375 l 1
 250.26953125 318.447265625 l 1
 407.3359375 623.94921875 l 1
 459.978515625 623.94921875 l 1
 459.978515625 -0.86328125 l 1
 393.528320312 -0.86328125 l 1
 393.528320312 470.334960938 l 1
 258.900390625 219.202148438 l 1
 232.147460938 219.202148438 l 1
 106.149414062 466.8828125 l 1
 106.149414062 -0.86328125 l 1
 40.560546875 -0.86328125 l 1
 40.560546875 623.0859375 l 1
EndSplineSet
Validated: 1
EndChar

StartChar: N
Encoding: 334 78 72
Width: 500
GlyphClass: 2
Flags: W
LayerCount: 2
Back
Fore
SplineSet
50.0537109375 0 m 1
 50.0537109375 623.0859375 l 1
 118.231445312 623.0859375 l 1
 379.719726562 161.380859375 l 1
 379.719726562 623.94921875 l 1
 453.938476562 623.94921875 l 1
 454.739257812 618.127929688 452.139648438 613.319335938 451.022460938 611.193359375 c 0
 448.625 606.634765625 447.034179688 604.149414062 447.034179688 597.196289062 c 2
 447.034179688 -0.86328125 l 1
 391.801757812 -0.86328125 l 1
 117.368164062 490.18359375 l 1
 117.368164062 0 l 1
 50.0537109375 0 l 1
EndSplineSet
Validated: 1
EndChar

StartChar: O
Encoding: 335 79 73
Width: 500
GlyphClass: 2
Flags: W
LayerCount: 2
Back
Fore
SplineSet
471.205078125 310.251953125 m 0
 471.205078125 255.529296875 467.251953125 178.013671875 434.1484375 111.020507812 c 0
 393.12890625 28.0107421875 321.403320312 -9.505859375 254.140625 -9.505859375 c 0
 158.770507812 -9.505859375 29.341796875 67.658203125 29.341796875 312.50390625 c 0
 29.341796875 557.397460938 160.587890625 629.990234375 253.515625 629.990234375 c 0
 321.33984375 629.990234375 392.184570312 592.595703125 433.046875 512.538085938 c 0
 467.03125 445.953125 471.205078125 368.543945312 471.205078125 310.251953125 c 0
250.58203125 564.41015625 m 0
 185.110351562 564.41015625 98.3564453125 507.3671875 98.3564453125 321.604492188 c 0
 98.3564453125 123.454101562 184.353515625 58.6728515625 254.44140625 58.6728515625 c 0
 296.3671875 58.6728515625 344.643554688 82.369140625 373.475585938 143.013671875 c 0
 399.012695312 196.721679688 401.368164062 260.29296875 401.368164062 301.098632812 c 0
 401.368164062 353.838867188 398.17578125 413.509765625 377.1171875 465.889648438 c 0
 348.078125 538.1171875 294.79296875 564.41015625 250.58203125 564.41015625 c 0
EndSplineSet
Validated: 1
EndChar

StartChar: P
Encoding: 336 80 74
Width: 500
GlyphClass: 2
Flags: W
LayerCount: 2
Back
Fore
SplineSet
58.68359375 623.0859375 m 1
 248.543945312 623.0859375 l 2
 288.724609375 623.0859375 327.37890625 622.05859375 366.450195312 601.9375 c 0
 425.310546875 571.625 455.677734375 510.65234375 455.677734375 447.637695312 c 0
 455.677734375 384.46875 425.357421875 324.791015625 367.736328125 295.499023438 c 0
 329.891601562 276.260742188 292.537109375 275.296875 253.721679688 275.296875 c 1
 253.721679688 275.296875 l 1
 131.17578125 275.296875 l 1
 131.17578125 0 l 1
 58.68359375 0 l 1
 58.68359375 623.0859375 l 1
131.17578125 557.498046875 m 1
 130.313476562 336.5703125 l 1
 256.310546875 336.5703125 l 2
 280.876953125 336.5703125 304.6328125 337.155273438 328.657226562 349.310546875 c 0
 364.754882812 367.57421875 384.037109375 404.69921875 384.037109375 444.43359375 c 0
 384.037109375 484.993164062 363.866210938 524.635742188 325.022460938 544.12109375 c 0
 299.625 556.861328125 274.576171875 557.498046875 248.543945312 557.498046875 c 2
 131.17578125 557.498046875 l 1
EndSplineSet
Validated: 5
EndChar

StartChar: Q
Encoding: 337 81 75
Width: 500
GlyphClass: 2
Flags: W
LayerCount: 2
Back
Fore
SplineSet
250.694335938 566.149414062 m 0
 182.76171875 566.149414062 97.484375 505.62109375 97.484375 322.65625 c 0
 97.484375 125.029296875 181.705078125 55.2255859375 254.953125 55.2255859375 c 0
 307.23828125 55.2255859375 403.98828125 93.4990234375 403.98828125 300.546875 c 0
 403.98828125 352.936523438 400.19140625 413.528320312 378.500976562 466.6953125 c 0
 348.474609375 540.2890625 294.561523438 566.149414062 250.694335938 566.149414062 c 0
471.2109375 308.850585938 m 0
 471.2109375 254.151367188 467.271484375 176.935546875 434.171875 110.287109375 c 0
 399.911132812 41.298828125 344.168945312 3.828125 287.395507812 -6.5146484375 c 1
 288.55859375 -41.0849609375 298.022460938 -82.0595703125 360.647460938 -82.0595703125 c 0
 383.013671875 -82.0595703125 410.078125 -78.1806640625 441.856445312 -76.806640625 c 1
 440.129882812 -144.984375 l 1
 368.18359375 -144.3671875 324.630859375 -148.962890625 285.856445312 -129.71484375 c 0
 240.448242188 -107.176757812 225.079101562 -64.1962890625 225.924804688 -7.25390625 c 1
 135.297851562 6.9658203125 29.3408203125 90.99609375 29.3408203125 312.376953125 c 0
 29.3408203125 557.805664062 160.907226562 629.990234375 253.553710938 629.990234375 c 0
 321.918945312 629.990234375 393.13671875 592.034179688 433.766601562 511.127929688 c 0
 467.078125 444.791992188 471.2109375 367.926757812 471.2109375 308.850585938 c 0
EndSplineSet
Validated: 33
EndChar

StartChar: R
Encoding: 338 82 76
Width: 500
GlyphClass: 2
Flags: W
LayerCount: 2
Back
Fore
SplineSet
56.0947265625 623.0859375 m 1
 239.9140625 623.0859375 l 2
 280.1875 623.0859375 319.524414062 622.1796875 358.998046875 602.130859375 c 0
 416.352539062 573.001953125 447.157226562 514.763671875 447.157226562 452.193359375 c 0
 447.157226562 369.704101562 395.684570312 298.514648438 320.172851562 277.885742188 c 1
 464.293945312 0 l 1
 385.760742188 0 l 1
 247.680664062 275.296875 l 1
 126.861328125 275.296875 l 1
 126.861328125 0 l 1
 56.0947265625 0 l 1
 56.0947265625 623.0859375 l 1
126.861328125 557.498046875 m 1
 126.861328125 336.5703125 l 1
 247.680664062 336.5703125 l 2
 272.247070312 336.5703125 296.002929688 337.155273438 320.02734375 349.310546875 c 0
 356.125 367.57421875 375.407226562 404.69921875 375.407226562 444.43359375 c 0
 375.407226562 484.993164062 355.235351562 524.635742188 316.392578125 544.12109375 c 0
 290.995117188 556.861328125 265.946289062 557.498046875 239.9140625 557.498046875 c 2
 126.861328125 557.498046875 l 1
EndSplineSet
Validated: 1
EndChar

StartChar: S
Encoding: 339 83 77
Width: 500
GlyphClass: 2
Flags: W
LayerCount: 2
Back
Fore
SplineSet
434.952148438 548.868164062 m 1
 390.939453125 489.321289062 l 2
 388.752929688 489.985351562 385.872070312 491.9609375 385.672851562 497.500976562 c 0
 385.540039062 501.177734375 386.04296875 503.262695312 383.395507812 507.122070312 c 0
 359.262695312 542.311523438 314.634765625 568.836914062 256.588867188 568.836914062 c 0
 185.2578125 568.836914062 144.05859375 525.272460938 144.05859375 477.500976562 c 0
 144.05859375 452.029296875 155.580078125 415.067382812 207.725585938 384.571289062 c 0
 264.739257812 351.225585938 352.528320312 333.530273438 406.728515625 282.490234375 c 0
 445.732421875 245.76171875 455.137695312 202.245117188 455.137695312 169.637695312 c 0
 455.137695312 91.2177734375 399.119140625 -10.4150390625 247.458984375 -10.4150390625 c 0
 170.569335938 -10.4150390625 100.78125 16.541015625 51.7802734375 69.9033203125 c 1
 93.2041015625 141.532226562 l 1
 97.9853515625 139.10546875 97.7646484375 133.602539062 97.7421875 131.952148438 c 0
 97.685546875 127.826171875 97.4267578125 125.297851562 100.555664062 121.3359375 c 0
 128.415039062 86.0517578125 181.09375 52.599609375 249.493164062 52.599609375 c 0
 339.954101562 52.599609375 385.556640625 111.420898438 385.556640625 165.634765625 c 0
 385.556640625 193.5 374.145507812 226.045898438 333.278320312 251.661132812 c 0
 286.186523438 281.17578125 196.247070312 302.737304688 138.53125 345.352539062 c 0
 86.5791015625 383.712890625 72.3193359375 430.555664062 72.3193359375 466.88671875 c 0
 72.3193359375 552.103515625 149.612304688 626.544921875 262.145507812 626.544921875 c 0
 330.068359375 626.544921875 392.752929688 599.006835938 434.952148438 548.868164062 c 1
EndSplineSet
Validated: 1
EndChar

StartChar: T
Encoding: 340 84 78
Width: 500
GlyphClass: 2
Flags: W
LayerCount: 2
Back
Fore
SplineSet
31.068359375 623.94921875 m 1
 462.568359375 623.94921875 l 1
 462.568359375 560.950195312 l 1
 278.749023438 560.950195312 l 1
 278.749023438 -0.86328125 l 1
 207.983398438 -0.86328125 l 1
 207.983398438 560.950195312 l 1
 31.068359375 560.950195312 l 1
 31.068359375 623.94921875 l 1
EndSplineSet
Validated: 1
EndChar

StartChar: U
Encoding: 341 85 79
Width: 500
GlyphClass: 2
Flags: W
LayerCount: 2
Back
Fore
SplineSet
50.0537109375 623.0859375 m 1
 128.586914062 623.0859375 l 2
 129.26953125 621.500976562 129.623046875 619.782226562 129.623046875 618.038085938 c 0
 129.623046875 612.0703125 125.6796875 607.981445312 123.0390625 604.268554688 c 0
 119.349609375 599.079101562 119.09375 595.69921875 119.09375 591.155273438 c 2
 119.09375 214.024414062 l 2
 119.09375 183.078125 119.69921875 152.884765625 134.0546875 122.181640625 c 0
 156.4609375 74.263671875 203.499023438 48.259765625 252.916992188 48.259765625 c 0
 301.543945312 48.259765625 348.46484375 73.6513671875 371.493164062 121.293945312 c 0
 386.817382812 153 387.487304688 184.416992188 387.487304688 216.61328125 c 2
 387.487304688 623.0859375 l 1
 453.938476562 623.0859375 l 1
 453.938476562 218.338867188 l 2
 453.938476562 172.765625 452.564453125 129.599609375 428.984375 86.138671875 c 0
 393.54296875 20.8203125 323.547851562 -11.2822265625 251.53125 -11.2822265625 c 0
 178.006835938 -11.2822265625 108.872070312 21.5556640625 74.33984375 85.6240234375 c 0
 51.2705078125 128.426757812 50.0537109375 170.83984375 50.0537109375 214.88671875 c 1
 50.0537109375 214.88671875 l 1
 50.0537109375 623.0859375 l 1
EndSplineSet
Validated: 5
EndChar

StartChar: V
Encoding: 342 86 80
Width: 500
GlyphClass: 2
Flags: W
LayerCount: 2
Back
Fore
SplineSet
25.02734375 623.94921875 m 1
 98.3818359375 623.94921875 l 1
 258.037109375 144.984375 l 1
 409.0625 623.0859375 l 1
 478.1015625 623.0859375 l 1
 269.255859375 -4.3154296875 l 1
 237.325195312 -4.3154296875 l 1
 25.02734375 623.94921875 l 1
EndSplineSet
Validated: 1
EndChar

StartChar: W
Encoding: 343 87 81
Width: 500
GlyphClass: 2
Flags: W
LayerCount: 2
Back
Fore
SplineSet
17.259765625 623.0859375 m 1
 81.9853515625 623.0859375 l 1
 149.298828125 201.942382812 l 1
 249.407226562 577.346679688 l 1
 270.982421875 577.346679688 l 1
 371.953125 200.215820312 l 1
 428.911132812 623.0859375 l 1
 487.594726562 623.0859375 l 1
 389.212890625 -4.3154296875 l 1
 361.596679688 -4.3154296875 l 1
 254.584960938 407.3359375 l 1
 145.846679688 -4.3154296875 l 1
 117.368164062 -4.3154296875 l 1
 17.259765625 623.0859375 l 1
EndSplineSet
Validated: 1
EndChar

StartChar: X
Encoding: 344 88 82
Width: 500
GlyphClass: 2
Flags: W
LayerCount: 2
Back
Fore
SplineSet
378.857421875 623.94921875 m 1
 448.759765625 623.94921875 l 1
 291.083007812 319.3828125 l 1
 467.74609375 0 l 1
 389.212890625 0 l 1
 250.678710938 246.953125 l 1
 117.368164062 0 l 1
 40.560546875 0 l 1
 210.953125 317.7578125 l 1
 44.0126953125 623.94921875 l 1
 119.09375 623.94921875 l 1
 250.40234375 387.111328125 l 1
 378.857421875 623.94921875 l 1
EndSplineSet
Validated: 1
EndChar

StartChar: Y
Encoding: 345 89 83
Width: 500
GlyphClass: 2
Flags: W
LayerCount: 2
Back
Fore
SplineSet
28.478515625 623.94921875 m 1
 107.875 623.94921875 l 1
 260.625976562 321.036132812 l 1
 398.706054688 623.0859375 l 1
 472.923828125 623.0859375 l 1
 296.008789062 245.955078125 l 1
 296.008789062 0 l 1
 220.065429688 0 l 1
 220.065429688 245.955078125 l 1
 28.478515625 623.94921875 l 1
EndSplineSet
Validated: 1
EndChar

StartChar: Z
Encoding: 346 90 84
Width: 500
GlyphClass: 2
Flags: W
LayerCount: 2
Back
Fore
SplineSet
62.1357421875 623.0859375 m 1
 447.034179688 623.0859375 l 1
 446.170898438 573.89453125 l 1
 138.080078125 61.2734375 l 1
 432.36328125 61.2734375 l 2
 446.29296875 61.2734375 450.123046875 69.16015625 462.568359375 67.314453125 c 1
 462.568359375 -0.86328125 l 1
 50.0537109375 -0.86328125 l 1
 50.0537109375 48.328125 l 1
 364.185546875 560.086914062 l 1
 62.1357421875 560.086914062 l 1
 62.1357421875 623.0859375 l 1
EndSplineSet
Validated: 1
EndChar

StartChar: bracketleft
Encoding: 347 91 85
Width: 500
GlyphClass: 2
Flags: W
HStem: -171 56.958<195.038 417.692> 610.141 59.5479<195.038 416.829>
VStem: 131.176 63.8623<-114.042 610.141>
LayerCount: 2
Back
Fore
SplineSet
131.17578125 669.688476562 m 1
 416.829101562 669.688476562 l 1
 416.829101562 610.140625 l 1
 195.038085938 610.140625 l 1
 195.038085938 -114.041992188 l 5
 417.692382812 -114.041992188 l 5
 417.692382812 -171 l 5
 131.17578125 -171 l 5
 131.17578125 669.688476562 l 1
EndSplineSet
Validated: 1
EndChar

StartChar: backslash
Encoding: 348 92 86
Width: 500
GlyphClass: 2
Flags: W
LayerCount: 2
Back
Fore
SplineSet
436.677734375 -12.9453125 m 1
 377.994140625 -42.287109375 l 1
 63.8623046875 634.3046875 l 1
 123.409179688 664.509765625 l 1
 436.677734375 -12.9453125 l 1
EndSplineSet
Validated: 1
EndChar

StartChar: bracketright
Encoding: 349 93 87
Width: 500
GlyphClass: 2
Flags: W
HStem: -168.889 56.958<82.8477 305.502> 610.141 59.5479<83.7109 305.502>
VStem: 305.502 63.8623<-111.931 610.141>
LayerCount: 2
Back
Fore
SplineSet
369.364257812 669.688476562 m 5
 369.364257812 -168.888671875 l 5
 82.84765625 -168.888671875 l 5
 82.84765625 -111.930664062 l 5
 305.501953125 -111.930664062 l 5
 305.501953125 610.140625 l 5
 83.7109375 610.140625 l 5
 83.7109375 669.688476562 l 5
 369.364257812 669.688476562 l 5
EndSplineSet
Validated: 1
EndChar

StartChar: asciicircum
Encoding: 350 94 88
Width: 500
GlyphClass: 2
Flags: W
LayerCount: 2
Back
Fore
SplineSet
93.2041015625 366.775390625 m 1
 245.955078125 623.0859375 l 1
 267.530273438 623.0859375 l 1
 403.021484375 367.637695312 l 1
 349.514648438 342.611328125 l 1
 252.859375 517.799804688 l 1
 143.2578125 342.611328125 l 1
 93.2041015625 366.775390625 l 1
EndSplineSet
Validated: 1
EndChar

StartChar: underscore
Encoding: 351 95 89
Width: 500
GlyphClass: 2
Flags: W
LayerCount: 2
Back
Fore
SplineSet
34.51953125 -18.986328125 m 1
 466.01953125 -18.986328125 l 1
 466.01953125 -80.2587890625 l 1
 34.51953125 -80.2587890625 l 1
 34.51953125 -18.986328125 l 1
EndSplineSet
Validated: 1
EndChar

StartChar: grave
Encoding: 352 96 90
Width: 500
GlyphClass: 2
Flags: W
LayerCount: 2
Back
Fore
SplineSet
219.34765625 460.946289062 m 0
 202.459960938 481.072265625 188.471679688 510.973632812 163.5625 579.34765625 c 2
 139.360351562 645.784179688 l 1
 190.545898438 670.708984375 l 1
 217.287109375 605.275390625 l 2
 223.97265625 588.916992188 232.760742188 571.659179688 245.375 556.625976562 c 0
 259.331054688 539.994140625 276.98046875 528.706054688 290.8984375 512.119140625 c 0
 316.294921875 481.853515625 308.265625 455.014648438 293.494140625 442.620117188 c 0
 278.446289062 429.993164062 248.43359375 426.283203125 219.34765625 460.946289062 c 0
EndSplineSet
Validated: 33
EndChar

StartChar: a
Encoding: 353 97 91
Width: 500
GlyphClass: 2
Flags: W
LayerCount: 2
Back
Fore
SplineSet
90.615234375 403.021484375 m 1
 133.295898438 447.10546875 192.02734375 466.930664062 253.657226562 466.930664062 c 0
 324.56640625 466.930664062 382.5390625 440.989257812 412.520507812 391.022460938 c 0
 433.607421875 355.879882812 434.952148438 320.509765625 434.952148438 283.064453125 c 2
 434.952148438 0 l 1
 366.775390625 0 l 1
 366.775390625 50.0537109375 l 1
 316.928710938 9.2041015625 258.848632812 -11.220703125 202.734375 -11.220703125 c 0
 107.28515625 -11.220703125 49.0341796875 51.0576171875 49.0341796875 118.080078125 c 0
 49.0341796875 168.72265625 81.732421875 222.118164062 153.791015625 248.600585938 c 0
 211.915039062 269.9609375 283.947265625 269.255859375 351.241210938 269.255859375 c 2
 365.912109375 269.255859375 l 1
 365.912109375 285.653320312 l 2
 365.912109375 309.864257812 366.265625 339.2578125 351.044921875 364.25390625 c 0
 338.149414062 385.428710938 311.323242188 408.225585938 257.061523438 408.225585938 c 0
 214.848632812 408.225585938 163.416015625 396.456054688 125.998046875 357.282226562 c 1
 90.615234375 403.021484375 l 1
368.500976562 214.024414062 m 1
 352.103515625 214.024414062 l 2
 304.631835938 214.024414062 243.46484375 217.014648438 201.97265625 207.109375 c 0
 144.6953125 193.435546875 121.396484375 156.125 121.396484375 122.939453125 c 0
 121.396484375 82.1025390625 156.790039062 43.8525390625 217.358398438 43.8525390625 c 0
 277.1953125 43.8525390625 320.883789062 80.1240234375 337.482421875 97.7666015625 c 0
 368.301757812 130.522460938 368.500976562 160.154296875 368.500976562 183.819335938 c 2
 368.500976562 214.024414062 l 1
EndSplineSet
Validated: 33
EndChar

StartChar: b
Encoding: 354 98 92
Width: 500
GlyphClass: 2
Flags: W
LayerCount: 2
Back
Fore
SplineSet
59.546875 665.373046875 m 1
 144.12109375 665.373046875 l 1
 145.826171875 659.36328125 140.356445312 655.49609375 138.680664062 654.1640625 c 0
 133.985351562 650.434570312 132.90234375 648.248046875 132.90234375 642.934570312 c 2
 132.90234375 386.624023438 l 1
 161.873046875 436.8359375 215.497070312 467.806640625 273.681640625 467.806640625 c 0
 363.466796875 467.806640625 457.39453125 393.646484375 457.39453125 234.045898438 c 0
 457.39453125 68.3115234375 360.083007812 -11.28515625 266.404296875 -11.28515625 c 0
 211.583984375 -11.28515625 161.178710938 15.8369140625 131.17578125 60.41015625 c 1
 106.149414062 0 l 1
 59.546875 0 l 1
 59.546875 665.373046875 l 1
248.603515625 405.9140625 m 0
 203.381835938 405.9140625 161.87109375 380.3359375 144.849609375 339.14453125 c 0
 134.462890625 314.0078125 132.875 284.602539062 132.875 243.283203125 c 0
 132.875 203.747070312 132.54296875 176.828125 135.68359375 153.065429688 c 0
 147.196289062 65.970703125 216.213867188 53.482421875 247.459960938 53.482421875 c 0
 292.14453125 53.482421875 382.514648438 79.0166015625 382.514648438 218.924804688 c 0
 382.514648438 380.223632812 291.536132812 405.9140625 248.603515625 405.9140625 c 0
EndSplineSet
Validated: 33
EndChar

StartChar: c
Encoding: 355 99 93
Width: 500
GlyphClass: 2
Flags: W
LayerCount: 2
Back
Fore
SplineSet
456.52734375 381.446289062 m 1
 405.610351562 321.899414062 l 1
 397.692382812 327.874023438 403.129882812 337.267578125 399.3125 344.986328125 c 0
 396.6640625 350.34375 359.149414062 404.811523438 281.1484375 404.811523438 c 0
 197.19921875 404.811523438 130.286132812 339.821289062 130.286132812 235.708007812 c 0
 130.286132812 128.94921875 198.14453125 54.3505859375 287.16796875 54.3505859375 c 0
 332.954101562 54.3505859375 377.311523438 74.6005859375 408.19921875 109.600585938 c 1
 449.623046875 61.2734375 l 1
 406.0546875 14.3095703125 344.930664062 -11.2197265625 281.149414062 -11.2197265625 c 0
 151.9296875 -11.2197265625 56.0947265625 90.521484375 56.0947265625 228.271484375 c 0
 56.0947265625 365.376953125 151.435546875 466.044921875 285.697265625 466.044921875 c 0
 359.163085938 466.044921875 420.552734375 434.177734375 456.52734375 381.446289062 c 1
EndSplineSet
Validated: 1
EndChar

StartChar: d
Encoding: 356 100 94
Width: 500
GlyphClass: 2
Flags: W
LayerCount: 2
Back
Fore
SplineSet
371.08984375 390.076171875 m 1
 371.08984375 665.373046875 l 1
 447.897460938 665.373046875 l 1
 448.266601562 658.568359375 444.473632812 653.600585938 442.411132812 650.413085938 c 0
 438.84765625 644.904296875 438.396484375 642.106445312 438.404296875 636.89453125 c 2
 439.266601562 42.287109375 l 2
 439.287109375 28.4580078125 439.979492188 13.9892578125 443.58203125 0 c 1
 371.953125 0 l 1
 368.291992188 11.087890625 367.637695312 22.802734375 367.637695312 33.6572265625 c 2
 367.637695312 73.35546875 l 1
 338.946289062 22.0771484375 284.9609375 -10.1337890625 226.5390625 -10.1337890625 c 0
 138.228515625 -10.1337890625 44.875 63.576171875 44.875 232.22265625 c 0
 44.875 406.825195312 150.032226562 468.685546875 237.114257812 468.685546875 c 0
 300.2421875 468.685546875 349.126953125 437.033203125 371.08984375 390.076171875 c 1
240.463867188 409.959960938 m 0
 187.899414062 409.959960938 114.669921875 374.05859375 114.669921875 243.997070312 c 0
 114.669921875 93.517578125 191.529296875 53.341796875 243.25390625 53.341796875 c 0
 290.901367188 53.341796875 338.184570312 85.193359375 355.780273438 139.990234375 c 0
 363.1875 163.05859375 365.298828125 188.663085938 365.298828125 223.108398438 c 0
 365.298828125 274.106445312 363.282226562 299.60546875 357.619140625 320.852539062 c 0
 339.541992188 388.680664062 280.520507812 409.959960938 240.463867188 409.959960938 c 0
EndSplineSet
Validated: 1
EndChar

StartChar: e
Encoding: 357 101 95
Width: 500
GlyphClass: 2
Flags: W
LayerCount: 2
Back
Fore
SplineSet
258.639648438 467.98046875 m 0
 333.538085938 467.98046875 418.801757812 428.23828125 439.552734375 305.58984375 c 0
 444.040039062 279.069335938 445.490234375 249.727539062 442.71875 218.338867188 c 1
 118.48828125 218.338867188 l 1
 123.924804688 81.541015625 212.411132812 47.845703125 273.530273438 47.845703125 c 0
 318.955078125 47.845703125 362.025390625 65.896484375 391.801757812 99.2451171875 c 1
 431.5 60.41015625 l 1
 392.384765625 13.3828125 333.157226562 -10.4794921875 267.950195312 -10.4794921875 c 0
 143.862304688 -10.4794921875 48.5859375 70.9619140625 48.5859375 223.181640625 c 0
 48.5859375 389.952148438 149.524414062 467.98046875 258.639648438 467.98046875 c 0
120.827148438 273.571289062 m 1
 371.953125 273.571289062 l 1
 380.533203125 347.650390625 327.6640625 412.66015625 253.62109375 412.66015625 c 0
 204.59375 412.66015625 135.055664062 381.31640625 120.827148438 273.571289062 c 1
EndSplineSet
Validated: 33
EndChar

StartChar: f
Encoding: 358 102 96
Width: 500
GlyphClass: 2
Flags: W
LayerCount: 2
Back
Fore
SplineSet
343.493164062 670.942382812 m 0
 400.958984375 670.942382812 450.590820312 647.755859375 483.280273438 608.415039062 c 1
 450.486328125 541.963867188 l 2
 447.408203125 541.651367188 442.91796875 543.44921875 442.3671875 550.299804688 c 0
 442.0234375 554.571289062 442.82421875 557.3046875 439.615234375 562.16015625 c 0
 420.400390625 591.221679688 383.798828125 614.440429688 339.805664062 614.440429688 c 0
 302.0234375 614.440429688 266.758789062 597.606445312 247.916992188 563.846679688 c 0
 230.848632812 533.26171875 231.284179688 498.249023438 231.284179688 465.157226562 c 2
 231.284179688 429.774414062 l 1
 380.583007812 429.774414062 l 1
 380.583007812 372.81640625 l 1
 231.284179688 372.81640625 l 1
 231.284179688 0 l 1
 162.244140625 0 l 1
 162.244140625 372.81640625 l 1
 62.9990234375 372.81640625 l 1
 62.9990234375 429.774414062 l 1
 162.244140625 429.774414062 l 1
 162.244140625 474.650390625 l 2
 162.244140625 515.202148438 163.90625 553.268554688 187.321289062 591.349609375 c 0
 219.25 643.274414062 279.302734375 670.942382812 343.493164062 670.942382812 c 0
EndSplineSet
Validated: 33
EndChar

StartChar: g
Encoding: 359 103 97
Width: 500
GlyphClass: 2
Flags: W
LayerCount: 2
Back
Fore
SplineSet
125.958007812 314.358398438 m 0
 125.958007812 259.03125 170.997070312 214.0234375 226.530273438 214.0234375 c 0
 282.056640625 214.0234375 327.127929688 259.036132812 327.127929688 314.396484375 c 0
 327.127929688 369.720703125 282.095703125 414.733398438 226.568359375 414.733398438 c 0
 171.038085938 414.733398438 125.958007812 369.72265625 125.958007812 314.358398438 c 0
230.947265625 471.670898438 m 0
 272.610351562 471.670898438 310.9921875 456.119140625 339.159179688 428.047851562 c 1
 374.508789062 457.676757812 420.069335938 472.23046875 466.01953125 468.609375 c 1
 474.650390625 409.924804688 l 1
 465.9453125 411.426757812 457.126953125 412.181640625 448.29296875 412.181640625 c 0
 420.143554688 412.181640625 392.564453125 404.518554688 368.500976562 390.076171875 c 1
 383.661132812 367.258789062 391.803710938 340.337890625 391.803710938 312.646484375 c 0
 391.803710938 228.319335938 317.666992188 156.153320312 227.190429688 156.153320312 c 0
 207.37890625 156.153320312 187.724609375 159.673828125 169.1484375 166.55859375 c 1
 164.658203125 162.854492188 136.512695312 139.650390625 136.512695312 115.473632812 c 0
 136.512695312 101.07421875 146.697265625 90.302734375 164.196289062 85.494140625 c 0
 173.936523438 82.8173828125 195.33203125 79.7451171875 229.440429688 79.7451171875 c 0
 281.2109375 79.7451171875 336.39453125 86.1689453125 384.0859375 66.802734375 c 0
 432.61328125 47.09765625 455.122070312 7.17578125 455.122070312 -32.373046875 c 0
 455.122070312 -93.6494140625 399.643554688 -172.068359375 244.915039062 -172.068359375 c 0
 84.802734375 -172.068359375 38.341796875 -113.655273438 38.341796875 -63.84765625 c 0
 38.341796875 -27.5478515625 63.6064453125 6.046875 112.639648438 37.349609375 c 1
 83.7763671875 52.517578125 75.9931640625 79.2099609375 75.9931640625 98.232421875 c 0
 75.9931640625 127.584960938 94.7626953125 158.462890625 127.723632812 186.408203125 c 1
 85.859375 213.649414062 60.185546875 260.145507812 60.185546875 310.127929688 c 0
 60.185546875 399.396484375 139.995117188 471.670898438 230.947265625 471.670898438 c 0
161.314453125 24.419921875 m 1
 135.063476562 10.0048828125 104.400390625 -13.9873046875 104.400390625 -46.826171875 c 0
 104.400390625 -62.7890625 112.4921875 -87.92578125 149.420898438 -102.610351562 c 0
 183.956054688 -116.340820312 222.833984375 -117.540039062 243.693359375 -117.540039062 c 0
 274.2734375 -117.540039062 312.907226562 -115.60546875 346.383789062 -97.5400390625 c 0
 377.755859375 -80.6083984375 389.130859375 -56.7021484375 389.130859375 -36.90234375 c 0
 389.130859375 -16.787109375 376.98046875 9.8740234375 334.616210938 16.259765625 c 0
 308.408203125 20.2099609375 271.548828125 17.673828125 237.833984375 18.9228515625 c 0
 202.874023438 20.2177734375 178.629882812 22.1806640625 161.314453125 24.419921875 c 1
EndSplineSet
Validated: 33
EndChar

StartChar: h
Encoding: 360 104 98
Width: 500
GlyphClass: 2
Flags: W
LayerCount: 2
Back
Fore
SplineSet
69.9033203125 0 m 1
 69.9033203125 664.509765625 l 1
 152.750976562 664.509765625 l 2
 153.078125 663.548828125 153.245117188 662.53515625 153.245117188 661.512695312 c 0
 153.245117188 656.297851562 149.18359375 653.21875 146.887695312 650.796875 c 0
 143.490234375 647.211914062 143.2578125 644.6015625 143.2578125 641.208984375 c 2
 143.2578125 376.267578125 l 1
 176.803710938 427.186523438 233.11328125 467.748046875 295.109375 467.748046875 c 0
 347.168945312 467.748046875 393.997070312 438.515625 416.7421875 387.114257812 c 0
 432.9921875 350.389648438 433.225585938 312.694335938 433.225585938 277.0234375 c 1
 433.225585938 277.0234375 l 1
 433.225585938 0 l 1
 362.459960938 0 l 1
 362.459960938 275.296875 l 2
 362.459960938 307.56640625 362.25390625 346.7734375 337.528320312 376.3203125 c 0
 321.119140625 395.927734375 298.518554688 405.248046875 275.590820312 405.248046875 c 0
 227.28125 405.248046875 183.37890625 364.865234375 165.961914062 341.655273438 c 0
 146.958007812 316.33203125 143.2578125 293.982421875 143.2578125 263.21484375 c 2
 143.2578125 0 l 1
 69.9033203125 0 l 1
EndSplineSet
Validated: 5
EndChar

StartChar: i
Encoding: 361 105 99
Width: 500
GlyphClass: 2
Flags: W
LayerCount: 2
Back
Fore
SplineSet
106.149414062 457.389648438 m 1
 289.10546875 457.389648438 l 1
 289.10546875 57.8212890625 l 1
 396.1171875 57.8212890625 l 1
 396.1171875 0 l 1
 100.108398438 0 l 1
 100.108398438 57.8212890625 l 1
 216.61328125 57.8212890625 l 1
 216.61328125 398.706054688 l 1
 106.149414062 398.706054688 l 1
 106.149414062 457.389648438 l 1
254.587890625 655.879882812 m 0
 283.211914062 655.879882812 306.380859375 632.821289062 306.380859375 604.525390625 c 0
 306.380859375 576.248046875 283.220703125 553.17578125 254.576171875 553.17578125 c 0
 225.94921875 553.17578125 202.7890625 576.23828125 202.7890625 604.51953125 c 0
 202.7890625 632.806640625 225.952148438 655.879882812 254.587890625 655.879882812 c 0
EndSplineSet
Validated: 1
EndChar

StartChar: j
Encoding: 362 106 100
Width: 500
GlyphClass: 2
Flags: W
LayerCount: 2
Back
Fore
SplineSet
125.998046875 457.389648438 m 1
 368.500976562 457.389648438 l 1
 368.500976562 31.9306640625 l 2
 368.500976562 -7.4951171875 367.44140625 -44.966796875 347.9296875 -83.1767578125 c 0
 316.959960938 -143.825195312 253.064453125 -174.481445312 187.874023438 -174.481445312 c 0
 131.190429688 -174.481445312 81.0380859375 -151.048828125 48.328125 -110.463867188 c 1
 94.9296875 -48.328125 l 1
 101.147460938 -53.4609375 99.5546875 -59.962890625 103.655273438 -66.6650390625 c 0
 107.337890625 -72.6845703125 137.224609375 -112.203125 192.462890625 -112.203125 c 0
 231.103515625 -112.203125 267.103515625 -91.7353515625 284.323242188 -54.576171875 c 0
 295.575195312 -30.29296875 296.008789062 -6.2783203125 296.008789062 18.123046875 c 2
 296.008789062 397.842773438 l 1
 125.998046875 397.842773438 l 1
 125.998046875 457.389648438 l 1
333.120117188 655.879882812 m 0
 361.744140625 655.879882812 384.9140625 632.821289062 384.9140625 604.525390625 c 0
 384.9140625 576.248046875 361.75390625 553.17578125 333.109375 553.17578125 c 0
 304.482421875 553.17578125 281.322265625 576.23828125 281.322265625 604.51953125 c 0
 281.322265625 632.806640625 304.485351562 655.879882812 333.120117188 655.879882812 c 0
EndSplineSet
Validated: 1
EndChar

StartChar: k
Encoding: 363 107 101
Width: 500
GlyphClass: 2
Flags: W
LayerCount: 2
Back
Fore
SplineSet
66.451171875 664.509765625 m 1
 148.435546875 664.509765625 l 1
 149.545898438 657.7578125 145.116210938 653.163085938 142.796875 650.149414062 c 0
 139.3046875 645.604492188 138.943359375 642.947265625 138.943359375 638.620117188 c 2
 138.943359375 246.818359375 l 1
 367.637695312 459.116210938 l 1
 385.35546875 454.756835938 403.62890625 453.938476562 421.143554688 453.938476562 c 2
 447.034179688 453.938476562 l 1
 254.584960938 272.708007812 l 1
 478.96484375 -0.86328125 l 2
 476.633789062 -0.84765625 474.301757812 -0.83984375 471.971679688 -0.83984375 c 0
 424.079101562 -0.83984375 385.760742188 -4.3154296875 385.760742188 -4.3154296875 c 1
 199.352539062 228.6953125 l 1
 138.943359375 172.599609375 l 1
 138.943359375 -0.86328125 l 1
 66.451171875 -0.86328125 l 1
 66.451171875 664.509765625 l 1
EndSplineSet
Validated: 1
EndChar

StartChar: l
Encoding: 364 108 102
Width: 500
GlyphClass: 2
Flags: W
LayerCount: 2
Back
Fore
SplineSet
84.57421875 664.509765625 m 1
 286.515625 664.509765625 l 1
 286.515625 57.8212890625 l 1
 421.143554688 57.8212890625 l 1
 421.143554688 0 l 1
 78.533203125 0 l 1
 78.533203125 57.8212890625 l 1
 214.024414062 57.8212890625 l 1
 214.024414062 606.689453125 l 1
 84.57421875 606.689453125 l 1
 84.57421875 664.509765625 l 1
EndSplineSet
Validated: 1
EndChar

StartChar: m
Encoding: 365 109 103
Width: 500
GlyphClass: 2
Flags: W
LayerCount: 2
Back
Fore
SplineSet
37.9716796875 0 m 1
 37.9716796875 456.52734375 l 1
 104.422851562 456.52734375 l 1
 103.559570312 411.651367188 l 1
 124.5625 443.596679688 159.5859375 467.793945312 197.05859375 467.793945312 c 0
 238.000976562 467.793945312 270.723632812 439.026367188 277.885742188 401.294921875 c 1
 295.6328125 441.703125 336.431640625 467.748046875 380.251953125 467.748046875 c 0
 405.94921875 467.748046875 434.209960938 457.88671875 451.71875 431.451171875 c 0
 471.9375 400.927734375 470.334960938 362.293945312 470.334960938 324.48828125 c 2
 470.334960938 -0.86328125 l 1
 402.158203125 -0.86328125 l 1
 402.158203125 323.625 l 2
 402.158203125 344.396484375 404.388671875 370.5390625 395.974609375 389.776367188 c 0
 388.586914062 406.668945312 374.483398438 415.279296875 359.702148438 415.279296875 c 0
 331.9609375 415.279296875 314.143554688 386.849609375 306.580078125 374.091796875 c 0
 289.711914062 345.642578125 287.37890625 326.059570312 287.37890625 302.049804688 c 2
 287.37890625 0 l 1
 220.065429688 0 l 1
 220.065429688 317.583984375 l 2
 220.065429688 336.424804688 221.453125 358.465820312 215.555664062 377.573242188 c 0
 207.813476562 402.65234375 189.513671875 412.770507812 173.239257812 412.770507812 c 0
 154.943359375 412.770507812 134.528320312 400.837890625 118 370.146484375 c 0
 105.051757812 346.10546875 103.559570312 326.151367188 103.559570312 304.638671875 c 2
 103.559570312 0 l 1
 37.9716796875 0 l 1
EndSplineSet
Validated: 33
EndChar

StartChar: n
Encoding: 366 110 104
Width: 500
GlyphClass: 2
Flags: W
LayerCount: 2
Back
Fore
SplineSet
68.1767578125 0 m 1
 68.1767578125 456.52734375 l 1
 141.532226562 456.52734375 l 1
 141.532226562 376.267578125 l 1
 175.078125 427.186523438 231.387695312 467.748046875 293.3828125 467.748046875 c 0
 345.442382812 467.748046875 392.271484375 438.515625 415.016601562 387.114257812 c 0
 431.265625 350.389648438 431.5 312.694335938 431.5 277.0234375 c 1
 431.5 277.0234375 l 1
 431.5 0 l 1
 360.734375 0 l 1
 360.734375 275.296875 l 2
 360.734375 307.56640625 360.528320312 346.7734375 335.802734375 376.3203125 c 0
 319.393554688 395.927734375 296.79296875 405.248046875 273.865234375 405.248046875 c 0
 225.555664062 405.248046875 181.653320312 364.865234375 164.235351562 341.655273438 c 0
 145.231445312 316.33203125 141.532226562 293.982421875 141.532226562 263.21484375 c 2
 141.532226562 0 l 1
 68.1767578125 0 l 1
EndSplineSet
Validated: 5
EndChar

StartChar: o
Encoding: 367 111 105
Width: 500
GlyphClass: 2
Flags: W
LayerCount: 2
Back
Fore
SplineSet
460.077148438 226.368164062 m 0
 460.077148438 74.912109375 362.741210938 -12.08203125 254.557617188 -12.08203125 c 0
 139.416015625 -12.08203125 40.447265625 85.896484375 40.447265625 224.87890625 c 0
 40.447265625 366.032226562 140.263671875 466.887695312 256.69140625 466.887695312 c 0
 360.51953125 466.887695312 460.077148438 384.107421875 460.077148438 226.368164062 c 0
251.787109375 405.698242188 m 0
 181.916015625 405.698242188 116.4921875 343.107421875 116.4921875 231.116210938 c 0
 116.4921875 118.424804688 182.307617188 50.0478515625 255.115234375 50.0478515625 c 0
 321.798828125 50.0478515625 387.630859375 108.392578125 387.630859375 223.381835938 c 0
 387.630859375 348.826171875 317.694335938 405.698242188 251.787109375 405.698242188 c 0
EndSplineSet
Validated: 1
EndChar

StartChar: p
Encoding: 368 112 106
Width: 500
GlyphClass: 2
Flags: W
LayerCount: 2
Back
Fore
SplineSet
59.546875 456.52734375 m 1
 132.90234375 456.52734375 l 1
 132.90234375 386.624023438 l 1
 163.939453125 436.559570312 218.55859375 466.8828125 277.192382812 466.8828125 c 0
 367.073242188 466.8828125 462.575195312 394.836914062 462.575195312 233.60546875 c 0
 462.575195312 66.080078125 364.271484375 -12.2109375 270.8828125 -12.2109375 c 0
 215.389648438 -12.2109375 164.262695312 15.236328125 133.764648438 60.41015625 c 1
 133.764648438 -166.55859375 l 1
 60.41015625 -166.55859375 l 1
 59.546875 456.52734375 l 1
250.787109375 405.533203125 m 0
 204.762695312 405.533203125 162.264648438 380.36328125 144.868164062 339.329101562 c 0
 134.809570312 315.602539062 132.793945312 287.814453125 132.793945312 249.279296875 c 0
 132.793945312 183.108398438 132.5078125 145.466796875 145.885742188 114.6484375 c 0
 163.920898438 73.103515625 207.009765625 51.6396484375 250.336914062 51.6396484375 c 0
 293.131835938 51.6396484375 387.666015625 74.6845703125 387.666015625 218.759765625 c 0
 387.666015625 384.5703125 290.890625 405.533203125 250.787109375 405.533203125 c 0
EndSplineSet
Validated: 33
EndChar

StartChar: q
Encoding: 369 113 107
Width: 500
GlyphClass: 2
Flags: W
LayerCount: 2
Back
Fore
SplineSet
373.678710938 390.076171875 m 2
 373.678710938 456.52734375 l 1
 441.856445312 456.52734375 l 1
 441.856445312 -166.55859375 l 1
 370.2265625 -166.55859375 l 1
 370.2265625 73.35546875 l 1
 341.66015625 22.486328125 288.265625 -10.0595703125 230.084960938 -10.0595703125 c 0
 129.206054688 -10.0595703125 42.2841796875 84.6435546875 42.2841796875 232.697265625 c 0
 42.2841796875 387.954101562 140.415039062 468.666015625 240.50390625 468.666015625 c 0
 341.8671875 468.666015625 373.678710938 389.74609375 373.678710938 390.076171875 c 2
243.322265625 409.954101562 m 0
 182.02734375 409.954101562 114.67578125 362.180664062 114.67578125 242.999023438 c 0
 114.67578125 113.915039062 180.931640625 53.3251953125 246.099609375 53.3251953125 c 0
 293.736328125 53.3251953125 340.829101562 85.494140625 358.360351562 139.947265625 c 0
 365.81640625 163.104492188 367.891601562 188.749023438 367.891601562 222.905273438 c 0
 367.891601562 278.142578125 365.728515625 306.905273438 356.719726562 332.127929688 c 0
 336.712890625 388.15234375 284.111328125 409.954101562 243.322265625 409.954101562 c 0
EndSplineSet
Validated: 33
EndChar

StartChar: r
Encoding: 370 114 108
Width: 500
GlyphClass: 2
Flags: W
LayerCount: 2
Back
Fore
SplineSet
99.2451171875 456.52734375 m 1
 174.326171875 456.52734375 l 1
 171.737304688 368.500976562 l 1
 201.658203125 433.81640625 269.401367188 467.576171875 336.140625 467.576171875 c 0
 387.451171875 467.576171875 429.512695312 447.1328125 458.252929688 417.692382812 c 1
 424.595703125 348.65234375 l 1
 416.920898438 355.9921875 413.642578125 363.899414062 407.639648438 371.568359375 c 0
 394.813476562 387.955078125 370.645507812 405.787109375 332.20703125 405.787109375 c 0
 299.904296875 405.787109375 245.373046875 394.419921875 203.859375 328.787109375 c 0
 172.8046875 279.6875 171.737304688 249.359375 171.737304688 221.791015625 c 2
 171.737304688 -0.86328125 l 1
 99.2451171875 -0.86328125 l 1
 99.2451171875 456.52734375 l 1
EndSplineSet
Validated: 1
EndChar

StartChar: s
Encoding: 371 115 109
Width: 500
GlyphClass: 2
Flags: W
LayerCount: 2
Back
Fore
SplineSet
432.36328125 396.1171875 m 1
 390.076171875 333.118164062 l 2
 388.310546875 333.538085938 384.830078125 335.177734375 384.869140625 341.16015625 c 0
 384.892578125 344.672851562 385.548828125 347.072265625 382.732421875 350.708007812 c 0
 365.34375 373.1484375 321.040039062 413.44140625 255.913085938 413.44140625 c 0
 204.260742188 413.44140625 159.655273438 387.8203125 159.655273438 351.056640625 c 0
 159.655273438 335.70703125 167.596679688 313.551757812 204.916015625 295.515625 c 0
 247.6171875 274.879882812 321.186523438 264.563476562 372.8125 235.584960938 c 0
 426.870117188 205.240234375 439.870117188 163.90625 439.870117188 132.28515625 c 0
 439.870117188 63.326171875 374.66015625 -10.3564453125 249.805664062 -10.3564453125 c 0
 180.409179688 -10.3564453125 110.5859375 12.26953125 56.9580078125 62.1357421875 c 1
 98.3818359375 133.764648438 l 1
 103.30859375 131.461914062 102.872070312 125.734375 102.809570312 124.361328125 c 0
 102.625 120.362304688 102.180664062 117.547851562 105.586914062 113.673828125 c 0
 120.041992188 97.2431640625 170.202148438 50.0537109375 248.512695312 50.0537109375 c 0
 313.779296875 50.0537109375 365.970703125 79.541015625 365.970703125 122.3359375 c 0
 365.970703125 138.845703125 358.075195312 162.904296875 320.384765625 180.546875 c 0
 286.68359375 196.3203125 236.23828125 208.456054688 197.599609375 222.422851562 c 0
 172.802734375 231.38671875 86.2978515625 260.452148438 86.2978515625 340.221679688 c 0
 86.2978515625 408.458007812 155.8125 467.749023438 261.916992188 467.749023438 c 0
 329.493164062 467.749023438 390.147460938 442.637695312 432.36328125 396.1171875 c 1
EndSplineSet
Validated: 1
EndChar

StartChar: t
Encoding: 372 116 110
Width: 500
GlyphClass: 2
Flags: W
LayerCount: 2
Back
Fore
SplineSet
188.133789062 579.073242188 m 1
 266.666992188 592.017578125 l 1
 270.178710938 581.877929688 262.991210938 575.708007812 261.00390625 565.005859375 c 0
 256.302734375 539.676757812 249.407226562 457.389648438 249.407226562 457.389648438 c 1
 398.706054688 457.389648438 l 1
 398.706054688 397.842773438 l 1
 248.543945312 397.842773438 l 1
 242.770507812 338.44921875 239.875 278.806640625 239.875 219.090820312 c 0
 239.875 152.870117188 242.274414062 135.291992188 242.810546875 131.272460938 c 0
 250.122070312 76.4091796875 285.57421875 57.5390625 319.67578125 57.5390625 c 0
 347.8125 57.5390625 383.240234375 70.419921875 422.006835938 99.2451171875 c 1
 444.4453125 42.287109375 l 1
 405.80859375 14.0068359375 352.807617188 -8.734375 298.411132812 -8.734375 c 0
 251.749023438 -8.734375 216.044921875 9.396484375 194.380859375 39.921875 c 0
 167.791992188 77.384765625 167.421875 123.293945312 167.421875 164.279296875 c 0
 167.421875 241.86328125 170.5390625 319.619140625 176.915039062 397.842773438 c 1
 69.9033203125 397.842773438 l 1
 70.765625 456.52734375 l 1
 179.50390625 456.52734375 l 1
 188.133789062 579.073242188 l 1
EndSplineSet
Validated: 1
EndChar

StartChar: u
Encoding: 373 117 111
Width: 500
GlyphClass: 2
Flags: W
LayerCount: 2
Back
Fore
SplineSet
62.9990234375 456.52734375 m 1
 135.491210938 456.52734375 l 1
 135.491210938 201.942382812 l 2
 135.491210938 171.305664062 135.37890625 135.584960938 151.610351562 103.35546875 c 0
 169.801757812 67.2333984375 203.162109375 47.46484375 238.918945312 47.46484375 c 0
 282.92578125 47.46484375 323.532226562 76.9697265625 344.469726562 115.205078125 c 0
 359.735351562 143.084960938 362.459960938 170.224609375 362.459960938 205.393554688 c 2
 362.459960938 456.52734375 l 1
 434.952148438 456.52734375 l 1
 434.952148438 41.423828125 l 2
 434.952148438 28.0390625 435.741210938 13.6533203125 440.129882812 0 c 1
 364.185546875 0 l 1
 362.291992188 11.779296875 362.16796875 23.7275390625 362.459960938 35.3828125 c 2
 363.323242188 69.9033203125 l 1
 333.556640625 19.4912109375 279.529296875 -11.2333984375 222.239257812 -11.2333984375 c 0
 162.803710938 -11.2333984375 106.939453125 21.94921875 80.2548828125 81.955078125 c 0
 62.4091796875 122.084960938 62.0009765625 162.157226562 62.1357421875 201.942382812 c 2
 62.9990234375 456.52734375 l 1
EndSplineSet
Validated: 33
EndChar

StartChar: v
Encoding: 374 118 112
Width: 500
GlyphClass: 2
Flags: W
LayerCount: 2
Back
Fore
SplineSet
39.6982421875 457.389648438 m 1
 125.998046875 457.389648438 l 1
 127.723632812 449.217773438 122.80078125 443.895507812 122.80078125 437.814453125 c 0
 122.80078125 435.409179688 123.436523438 433.614257812 124.272460938 431.5 c 2
 256.310546875 97.5185546875 l 1
 329.666015625 267.530273438 l 2
 355.52734375 327.46875 379.711914062 390.821289062 391.801757812 457.389648438 c 1
 456.52734375 457.389648438 l 1
 441.326171875 387.756835938 415.674804688 321.145507812 388.349609375 257.173828125 c 2
 277.0234375 -3.4521484375 l 1
 220.927734375 -3.4521484375 l 1
 39.6982421875 457.389648438 l 1
EndSplineSet
Validated: 5
EndChar

StartChar: w
Encoding: 375 119 113
Width: 500
GlyphClass: 2
Flags: W
LayerCount: 2
Back
Fore
SplineSet
15.5341796875 457.389648438 m 1
 88.888671875 457.389648438 l 1
 91.5185546875 449.620117188 88.8876953125 442.920898438 87.23828125 437.607421875 c 0
 84.759765625 429.62890625 84.9697265625 426.021484375 86.2998046875 419.41796875 c 2
 152.750976562 89.751953125 l 1
 231.284179688 414.240234375 l 1
 275.296875 414.240234375 l 1
 371.953125 90.615234375 l 1
 411.315429688 350.55859375 416.04296875 401.313476562 414.240234375 456.52734375 c 1
 480.69140625 456.52734375 l 1
 461.01171875 303.186523438 435.677734375 150.609375 404.747070312 -0.86328125 c 1
 337.432617188 -0.86328125 l 1
 252.859375 295.146484375 l 1
 172.599609375 -0.86328125 l 1
 107.875 -0.86328125 l 1
 15.5341796875 457.389648438 l 1
EndSplineSet
Validated: 33
EndChar

StartChar: x
Encoding: 376 120 114
Width: 500
GlyphClass: 2
Flags: W
LayerCount: 2
Back
Fore
SplineSet
362.459960938 457.389648438 m 1
 435.815429688 457.389648438 l 1
 287.764648438 234.905273438 l 1
 455.6640625 0 l 1
 373.678710938 0 l 1
 247.732421875 177.635742188 l 1
 128.586914062 0 l 1
 47.46484375 0 l 1
 207.859375 232.189453125 l 1
 50.0537109375 457.389648438 l 1
 128.586914062 457.389648438 l 1
 248.317382812 288.170898438 l 1
 362.459960938 457.389648438 l 1
EndSplineSet
Validated: 1
EndChar

StartChar: y
Encoding: 377 121 115
Width: 500
GlyphClass: 2
Flags: W
LayerCount: 2
Back
Fore
SplineSet
45.7392578125 456.52734375 m 1
 135.491210938 456.52734375 l 1
 136.052734375 447.534179688 131.032226562 442.5078125 131.032226562 435.146484375 c 0
 131.032226562 432.235351562 131.775390625 430.021484375 132.90234375 427.184570312 c 2
 266.666992188 90.615234375 l 1
 353.830078125 335.70703125 l 2
 367.818359375 375.041015625 380.802734375 415.5625 388.349609375 457.389648438 c 1
 463.430664062 457.389648438 l 1
 449.997070312 412.723632812 434.119140625 368.856445312 417.692382812 325.350585938 c 2
 275.296875 -51.7802734375 l 2
 265.532226562 -77.6416015625 255.883789062 -101.736328125 235.927734375 -124.190429688 c 0
 205.486328125 -158.440429688 162.682617188 -173.618164062 121.420898438 -173.618164062 c 0
 83.859375 -173.618164062 48.8017578125 -160.734375 22.4384765625 -135.491210938 c 1
 59.546875 -70.765625 l 1
 65.447265625 -75.388671875 64.939453125 -82.0576171875 67.521484375 -87.0068359375 c 0
 70.064453125 -91.87890625 87.34375 -114.583007812 121.206054688 -114.583007812 c 0
 142.603515625 -114.583007812 166.072265625 -105.243164062 185.090820312 -84.990234375 c 0
 199.56640625 -69.576171875 208.692382812 -50.1015625 216.61328125 -31.9306640625 c 2
 231.284179688 1.7255859375 l 1
 45.7392578125 456.52734375 l 1
EndSplineSet
Validated: 1
EndChar

StartChar: z
Encoding: 378 122 116
Width: 500
GlyphClass: 2
Flags: W
LayerCount: 2
Back
Fore
SplineSet
70.765625 457.389648438 m 1
 426.322265625 457.389648438 l 1
 426.322265625 408.19921875 l 1
 147.573242188 61.2734375 l 1
 419.41796875 61.2734375 l 2
 433.348632812 61.2734375 437.177734375 69.16015625 449.623046875 67.314453125 c 1
 449.623046875 -0.86328125 l 1
 50.0537109375 -0.86328125 l 1
 50.0537109375 48.328125 l 1
 333.118164062 394.390625 l 1
 70.765625 394.390625 l 1
 70.765625 457.389648438 l 1
EndSplineSet
Validated: 1
EndChar

StartChar: braceleft
Encoding: 379 123 117
Width: 500
GlyphClass: 2
Flags: W
LayerCount: 2
Back
Fore
SplineSet
52.642578125 283.926757812 m 1
 72.4921875 283.926757812 l 2
 90.2529296875 283.926757812 117.571289062 283.568359375 139.404296875 306.470703125 c 0
 162.841796875 331.053710938 165.310546875 366.911132812 165.310546875 391.36328125 c 0
 165.310546875 415.532226562 162.759765625 438.171875 162.759765625 462.934570312 c 0
 162.759765625 500.57421875 168.127929688 556.806640625 212.1015625 596.889648438 c 0
 260.081054688 640.625976562 324.333007812 636.89453125 377.994140625 636.89453125 c 2
 408.19921875 636.89453125 l 1
 408.19921875 579.935546875 l 1
 373.678710938 579.935546875 l 2
 329.9609375 579.935546875 299.5 584.028320312 272.599609375 567.232421875 c 0
 234.099609375 543.193359375 232.517578125 494.521484375 232.517578125 474.213867188 c 0
 232.517578125 450.271484375 235.474609375 428.366210938 235.474609375 403.9375 c 0
 235.474609375 380.15234375 232.8125 350.588867188 219.581054688 323.529296875 c 0
 204.814453125 293.33203125 179.370117188 269.58203125 148.435546875 256.310546875 c 1
 186.372070312 243.124023438 232.903320312 205.061523438 232.903320312 100.552734375 c 0
 232.903320312 69.6376953125 229.735351562 43.4169921875 229.735351562 16.9443359375 c 0
 229.735351562 -17.4736328125 234.8203125 -61.251953125 270.56640625 -85.87890625 c 0
 297.92578125 -104.7265625 329.110351562 -102.697265625 370.2265625 -102.697265625 c 2
 407.3359375 -102.697265625 l 1
 407.3359375 -158.791992188 l 1
 371.08984375 -158.791992188 l 2
 309.317382812 -158.791992188 258.102539062 -161.817382812 214.907226562 -128.66796875 c 0
 162.225585938 -88.2392578125 159.168945312 -19.853515625 159.168945312 16.4462890625 c 0
 159.168945312 55.419921875 162.920898438 85.228515625 162.920898438 116.404296875 c 0
 162.920898438 159.584960938 156.171875 188.703125 136.54296875 207.936523438 c 0
 116.033203125 228.03515625 90.275390625 227.83203125 73.35546875 227.83203125 c 2
 52.642578125 227.83203125 l 1
 52.642578125 283.926757812 l 1
EndSplineSet
Validated: 33
EndChar

StartChar: bar
Encoding: 380 124 118
Width: 500
GlyphClass: 2
Flags: W
LayerCount: 2
Back
Fore
SplineSet
216.61328125 652.427734375 m 1
 283.926757812 652.427734375 l 1
 283.926757812 -151.025390625 l 1
 216.61328125 -151.025390625 l 1
 216.61328125 652.427734375 l 1
EndSplineSet
Validated: 1
EndChar

StartChar: braceright
Encoding: 381 125 119
Width: 500
GlyphClass: 2
Flags: W
LayerCount: 2
Back
Fore
SplineSet
447.897460938 283.926757812 m 1
 447.897460938 227.83203125 l 1
 427.184570312 227.83203125 l 2
 410.264648438 227.83203125 384.506835938 228.03515625 363.997070312 207.936523438 c 0
 344.368164062 188.703125 337.619140625 159.584960938 337.619140625 116.404296875 c 0
 337.619140625 85.228515625 341.370117188 55.419921875 341.370117188 16.4462890625 c 0
 341.370117188 -19.853515625 338.314453125 -88.2392578125 285.6328125 -128.66796875 c 0
 242.4375 -161.817382812 191.22265625 -158.791992188 129.450195312 -158.791992188 c 2
 93.2041015625 -158.791992188 l 1
 93.2041015625 -102.697265625 l 1
 130.313476562 -102.697265625 l 2
 171.4296875 -102.697265625 202.614257812 -104.7265625 229.973632812 -85.87890625 c 0
 265.719726562 -61.251953125 270.8046875 -17.4736328125 270.8046875 16.9443359375 c 0
 270.8046875 43.4169921875 267.63671875 69.6376953125 267.63671875 100.552734375 c 0
 267.63671875 205.061523438 314.16796875 243.124023438 352.103515625 256.310546875 c 1
 321.169921875 269.58203125 295.725585938 293.33203125 280.958984375 323.529296875 c 0
 267.727539062 350.588867188 265.065429688 380.15234375 265.065429688 403.9375 c 0
 265.065429688 428.366210938 268.022460938 450.271484375 268.022460938 474.213867188 c 0
 268.022460938 494.521484375 266.440429688 543.193359375 227.940429688 567.232421875 c 0
 201.040039062 584.028320312 170.579101562 579.935546875 126.861328125 579.935546875 c 2
 92.3408203125 579.935546875 l 1
 92.3408203125 636.89453125 l 1
 122.545898438 636.89453125 l 2
 176.20703125 636.89453125 240.458984375 640.625976562 288.438476562 596.889648438 c 0
 332.412109375 556.806640625 337.780273438 500.57421875 337.780273438 462.934570312 c 0
 337.780273438 438.171875 335.229492188 415.532226562 335.229492188 391.36328125 c 0
 335.229492188 366.911132812 337.698242188 331.053710938 361.135742188 306.470703125 c 0
 382.96875 283.568359375 410.287109375 283.926757812 428.047851562 283.926757812 c 2
 447.897460938 283.926757812 l 1
EndSplineSet
Validated: 33
EndChar

StartChar: asciitilde
Encoding: 382 126 120
Width: 500
GlyphClass: 2
Flags: W
LayerCount: 2
Back
Fore
SplineSet
91.4775390625 341.748046875 m 1
 41.423828125 374.541992188 l 1
 70.9375 424.625976562 122.11328125 464.337890625 178.7734375 464.337890625 c 0
 261.299804688 464.337890625 287.505859375 389.211914062 344.564453125 389.211914062 c 0
 377.36328125 389.211914062 400.9921875 414.803710938 429.774414062 453.938476562 c 1
 475.512695312 415.965820312 l 1
 449.459960938 376.513671875 399.897460938 323.950195312 337.032226562 323.950195312 c 0
 255.98046875 323.950195312 235.518554688 403.534179688 174.4765625 403.534179688 c 0
 146.211914062 403.534179688 116.784179688 383.157226562 91.4775390625 341.748046875 c 1
EndSplineSet
Validated: 1
EndChar

StartChar: exclamdown
Encoding: 417 161 155
Width: 500
GlyphClass: 2
Flags: W
LayerCount: 2
Back
Fore
SplineSet
180.329101562 608.841796875 m 0
 180.329101562 641.455078125 206.828125 667.963867188 239.46484375 667.963867188 c 0
 272.091796875 667.963867188 298.6015625 641.466796875 298.6015625 608.83984375 c 0
 298.6015625 576.224609375 272.1015625 549.716796875 239.465820312 549.716796875 c 0
 206.838867188 549.716796875 180.329101562 576.21484375 180.329101562 608.841796875 c 0
237.916992188 -11.232421875 m 0
 219.1484375 -11.232421875 198.10546875 1.3623046875 190.388671875 31.6416015625 c 0
 188.881835938 37.5498046875 186.579101562 48.755859375 186.579101562 72.263671875 c 0
 186.579101562 110.469726562 193.3671875 148.323242188 195.864257812 186.395507812 c 2
 213.987304688 462.555664062 l 1
 264.041992188 462.555664062 l 1
 278.712890625 186.395507812 l 2
 282.203125 120.689453125 288.581054688 96.40625 288.581054688 64.134765625 c 0
 288.581054688 45.400390625 286.35546875 31.908203125 281.765625 20.8564453125 c 0
 272.841796875 -0.634765625 255.237304688 -11.232421875 237.916992188 -11.232421875 c 0
EndSplineSet
Validated: 1
EndChar

StartChar: cent
Encoding: 418 162 156
Width: 500
GlyphClass: 2
Flags: W
LayerCount: 2
Back
Fore
SplineSet
284.790039062 623.94921875 m 1
 352.103515625 617.044921875 l 1
 352.7734375 610.571289062 349.698242188 605.219726562 348.501953125 603.087890625 c 0
 345.935546875 598.513671875 344.377929688 596.275390625 343.473632812 589.428710938 c 2
 332.649414062 507.291015625 l 1
 387.005859375 496.43359375 426.97265625 467.13671875 451.348632812 429.774414062 c 1
 407.3359375 372.81640625 l 1
 402.682617188 376.05859375 402.767578125 381.459960938 402.767578125 382.782226562 c 0
 402.767578125 388.435546875 404.494140625 392.72265625 399.352539062 398.821289062 c 0
 386.448242188 414.12890625 361.30078125 435.506835938 324.654296875 446.6171875 c 1
 278.53515625 96.65625 l 1
 279.153320312 96.6552734375 l 2
 327.475585938 96.6552734375 375.150390625 117.013671875 409.924804688 152.750976562 c 1
 446.170898438 104.422851562 l 1
 403.272460938 57.32421875 342.361328125 32.7841796875 277.543945312 32.7841796875 c 0
 275.059570312 32.7841796875 272.588867188 32.818359375 270.130859375 32.8876953125 c 2
 255.448242188 -78.533203125 l 1
 197.626953125 -71.62890625 l 1
 211.798828125 41.470703125 l 1
 113.426757812 68.673828125 48.328125 157.317382812 48.328125 272.56640625 c 0
 48.328125 406.658203125 136.705078125 505.033203125 270.69921875 511.5078125 c 1
 284.790039062 623.94921875 l 1
220.102539062 107.733398438 m 1
 263.452148438 453.665039062 l 1
 181.176757812 448.75390625 119.05078125 386.412109375 119.05078125 281.807617188 c 0
 119.05078125 194.733398438 159.630859375 132.004882812 220.102539062 107.733398438 c 1
EndSplineSet
Validated: 1
EndChar

StartChar: sterling
Encoding: 419 163 157
Width: 500
GlyphClass: 2
Flags: W
LayerCount: 2
Back
Fore
SplineSet
417.692382812 572.168945312 m 1
 373.678710938 516.9375 l 1
 365.517578125 522.920898438 366.14453125 530.95703125 360.3125 537.3671875 c 0
 356.067382812 542.03125 327.9453125 566.23828125 285.953125 566.23828125 c 0
 232.295898438 566.23828125 179.315429688 525.912109375 179.315429688 442.680664062 c 0
 179.315429688 421.294921875 182.721679688 399.840820312 187.416015625 377.994140625 c 1
 286.515625 377.994140625 l 1
 286.515625 321.036132812 l 1
 200.915039062 321.036132812 l 1
 208.185546875 290.090820312 214.487304688 257.909179688 214.487304688 223.673828125 c 0
 214.487304688 174.2890625 201.524414062 128.155273438 177.778320312 89.751953125 c 1
 186.624023438 91.2978515625 195.59375 92.060546875 204.5859375 92.060546875 c 0
 271.0703125 92.060546875 312.411132812 50.8447265625 369.673828125 50.8447265625 c 0
 397.260742188 50.8447265625 423.2734375 61.1474609375 443.58203125 78.533203125 c 1
 470.334960938 26.7529296875 l 1
 447.81640625 8.8486328125 409.677734375 -14.8115234375 366.033203125 -14.8115234375 c 0
 302.2734375 -14.8115234375 260.456054688 29.9169921875 187.8515625 29.9169921875 c 0
 167.416992188 29.9169921875 128.831054688 26.119140625 64.724609375 -7.7666015625 c 1
 38.8349609375 49.19140625 l 1
 85.361328125 70.6845703125 97.4755859375 75.4716796875 113.30078125 100.090820312 c 0
 135.536132812 134.680664062 147.7578125 176.654296875 147.7578125 221.662109375 c 0
 147.7578125 255.94140625 140.627929688 288.658203125 132.747070312 321.036132812 c 1
 67.314453125 321.036132812 l 1
 67.314453125 377.994140625 l 1
 119.375 377.994140625 l 1
 115.124023438 398.989257812 112.12890625 420.14453125 112.12890625 441.793945312 c 0
 112.12890625 553.9453125 194.9140625 623.090820312 287.69921875 623.090820312 c 0
 335.348632812 623.090820312 381.806640625 605.08203125 417.692382812 572.168945312 c 1
EndSplineSet
Validated: 1
EndChar

StartChar: euro
Encoding: 420 8364 158
Width: 500
GlyphClass: 2
Flags: W
LayerCount: 2
Back
Fore
SplineSet
464.293945312 573.89453125 m 1
 439.266601562 505.717773438 l 1
 432.1328125 511.549804688 436.141601562 519.584960938 430.672851562 526.239257812 c 0
 429.70703125 527.415039062 392.505859375 570.586914062 325.139648438 570.586914062 c 0
 265.4296875 570.586914062 192.9609375 535.904296875 163.524414062 433.514648438 c 0
 161.97265625 428.119140625 160.298828125 421.747070312 158.643554688 414.240234375 c 1
 405.610351562 414.240234375 l 1
 384.03515625 356.418945312 l 1
 150.234375 356.418945312 l 1
 148.817382812 339.506835938 147.932617188 319.962890625 147.932617188 297.401367188 c 0
 147.932617188 290.162109375 148.056640625 283.083007812 148.307617188 276.16015625 c 1
 353.830078125 276.16015625 l 1
 331.391601562 218.338867188 l 1
 154.028320312 218.338867188 l 1
 161.038085938 177.6953125 174.270507812 143.948242188 194.634765625 116.391601562 c 0
 229.830078125 68.7607421875 280.700195312 49.0107421875 327.021484375 49.0107421875 c 0
 366.859375 49.0107421875 404.862304688 63.4384765625 434.088867188 89.751953125 c 1
 462.568359375 39.6982421875 l 1
 424.319335938 6.400390625 375.220703125 -11.328125 322.963867188 -11.328125 c 0
 242.03515625 -11.328125 116.767578125 33.1982421875 90.603515625 218.338867188 c 1
 32.7939453125 218.338867188 l 1
 45.7392578125 276.16015625 l 1
 85.919921875 276.16015625 l 1
 85.7822265625 281.389648438 85.712890625 286.709960938 85.712890625 292.122070312 c 0
 85.712890625 313.681640625 86.5546875 335.23046875 88.490234375 356.418945312 c 1
 32.7939453125 356.418945312 l 1
 45.7392578125 414.240234375 l 1
 96.912109375 414.240234375 l 1
 104.249023438 449.708007812 115.666015625 483.078125 132.51953125 512.4765625 c 0
 183.650390625 601.665039062 266.64453125 627.740234375 329.110351562 627.740234375 c 0
 381.89453125 627.740234375 429.5703125 609.051757812 464.293945312 573.89453125 c 1
EndSplineSet
Validated: 1
EndChar

StartChar: yen
Encoding: 421 165 159
Width: 500
GlyphClass: 2
Flags: W
LayerCount: 2
Back
Fore
SplineSet
36.24609375 623.94921875 m 1
 113.916015625 623.94921875 l 1
 258.900390625 363.323242188 l 1
 391.801757812 623.0859375 l 1
 466.01953125 623.0859375 l 1
 291.694335938 295.146484375 l 1
 291.694335938 274.43359375 l 1
 426.322265625 274.43359375 l 1
 426.322265625 217.475585938 l 1
 291.694335938 217.475585938 l 1
 291.694335938 154.4765625 l 1
 426.322265625 154.4765625 l 1
 426.322265625 98.3818359375 l 1
 291.694335938 98.3818359375 l 1
 291.694335938 0 l 1
 223.516601562 0 l 1
 223.516601562 98.3818359375 l 1
 83.7109375 98.3818359375 l 1
 83.7109375 154.4765625 l 1
 223.516601562 154.4765625 l 1
 223.516601562 217.475585938 l 1
 83.7109375 217.475585938 l 1
 83.7109375 274.43359375 l 1
 223.516601562 274.43359375 l 1
 223.516601562 295.146484375 l 1
 36.24609375 623.94921875 l 1
EndSplineSet
Validated: 1
EndChar

StartChar: Scaron
Encoding: 422 352 160
Width: 500
GlyphClass: 2
Flags: W
LayerCount: 2
Back
Fore
SplineSet
402.158203125 755.125 m 1
 270.982421875 655.879882812 l 1
 249.407226562 655.879882812 l 1
 125.998046875 753.3984375 l 1
 158.791992188 791.37109375 l 1
 262.352539062 720.604492188 l 1
 373.6796875 788.782226562 l 1
 402.158203125 755.125 l 1
434.952148438 548.868164062 m 1
 390.939453125 489.321289062 l 2
 388.752929688 489.985351562 385.872070312 491.9609375 385.672851562 497.500976562 c 0
 385.540039062 501.177734375 386.04296875 503.262695312 383.395507812 507.122070312 c 0
 359.262695312 542.311523438 314.634765625 568.836914062 256.588867188 568.836914062 c 0
 185.2578125 568.836914062 144.05859375 525.272460938 144.05859375 477.500976562 c 0
 144.05859375 452.029296875 155.580078125 415.067382812 207.725585938 384.571289062 c 0
 264.739257812 351.225585938 352.528320312 333.530273438 406.728515625 282.490234375 c 0
 445.732421875 245.76171875 455.137695312 202.245117188 455.137695312 169.637695312 c 0
 455.137695312 91.2177734375 399.119140625 -10.4150390625 247.458984375 -10.4150390625 c 0
 170.569335938 -10.4150390625 100.78125 16.541015625 51.7802734375 69.9033203125 c 1
 93.2041015625 141.532226562 l 1
 97.9853515625 139.10546875 97.7646484375 133.602539062 97.7421875 131.952148438 c 0
 97.685546875 127.826171875 97.4267578125 125.297851562 100.555664062 121.3359375 c 0
 128.415039062 86.0517578125 181.09375 52.599609375 249.493164062 52.599609375 c 0
 339.954101562 52.599609375 385.556640625 111.420898438 385.556640625 165.634765625 c 0
 385.556640625 193.5 374.145507812 226.045898438 333.278320312 251.661132812 c 0
 286.186523438 281.17578125 196.247070312 302.737304688 138.53125 345.352539062 c 0
 86.5791015625 383.712890625 72.3193359375 430.555664062 72.3193359375 466.88671875 c 0
 72.3193359375 552.103515625 149.612304688 626.544921875 262.145507812 626.544921875 c 0
 330.068359375 626.544921875 392.752929688 599.006835938 434.952148438 548.868164062 c 1
EndSplineSet
Validated: 1
EndChar

StartChar: section
Encoding: 423 167 161
Width: 500
GlyphClass: 2
Flags: W
LayerCount: 2
Back
Fore
SplineSet
412.513671875 583.387695312 m 1
 356.418945312 533.333984375 l 1
 349.084960938 538.875 351.061523438 546.889648438 348.5546875 553.840820312 c 0
 340.41796875 576.412109375 310.569335938 612.65625 257.477539062 612.65625 c 0
 204.797851562 612.65625 166.553710938 577.484375 166.553710938 535.85546875 c 0
 166.553710938 515.583984375 175.814453125 484.595703125 219.501953125 461.4921875 c 0
 248.205078125 446.3125 285.7109375 437.883789062 325.987304688 418.65234375 c 0
 395.784179688 385.323242188 417.84375 341.458984375 417.84375 305.434570312 c 0
 417.84375 263.630859375 387.459960938 226.5625 343.939453125 208.741210938 c 1
 387.756835938 178.97265625 408.349609375 135.095703125 408.349609375 92.5791015625 c 0
 408.349609375 14.662109375 339.091796875 -54.38671875 237.993164062 -54.38671875 c 0
 171.412109375 -54.38671875 106.580078125 -23.736328125 64.724609375 31.068359375 c 1
 117.368164062 92.3408203125 l 1
 125.129882812 89.1650390625 123.5078125 80.4501953125 125.673828125 74.828125 c 0
 128.70703125 66.953125 162.833984375 11.875 238.208007812 11.875 c 0
 299.411132812 11.875 336.768554688 49.224609375 336.768554688 90.6376953125 c 0
 336.768554688 114.01171875 324.822265625 141.516601562 290.815429688 161.638671875 c 0
 249.36328125 186.166992188 192.588867188 189.750976562 142.709960938 219.225585938 c 0
 98.306640625 245.463867188 79.119140625 281.498046875 79.119140625 315.932617188 c 0
 79.119140625 361.103515625 112.977539062 399.66796875 160.6953125 416.67578125 c 1
 113.004882812 446.295898438 93.9814453125 489.93359375 93.9814453125 529.564453125 c 0
 93.9814453125 605.809570312 163.435546875 671.645507812 257.118164062 671.645507812 c 0
 323.275390625 671.645507812 381.685546875 637.612304688 412.513671875 583.387695312 c 1
197.40625 398.530273438 m 1
 170.80859375 389.837890625 151.853515625 365.169921875 151.853515625 336.1015625 c 0
 151.853515625 313.788085938 163.427734375 282.9765625 205.799804688 262.245117188 c 0
 235.9609375 247.48828125 270.584960938 242.916015625 306.571289062 228.337890625 c 1
 328.4375 239.360351562 343.001953125 261.995117188 343.001953125 288 c 0
 343.001953125 310.798828125 331.547851562 343.616210938 285.05078125 366.561523438 c 0
 259.366210938 379.237304688 228.375 386.154296875 197.40625 398.530273438 c 1
EndSplineSet
Validated: 1
EndChar

StartChar: scaron
Encoding: 424 353 162
Width: 500
GlyphClass: 2
Flags: W
LayerCount: 2
Back
Fore
SplineSet
377.131835938 658.469726562 m 1
 265.8046875 517.80078125 l 1
 244.229492188 517.80078125 l 1
 133.765625 659.33203125 l 1
 180.3671875 693.852539062 l 1
 258.037109375 591.155273438 l 1
 339.159179688 692.989257812 l 1
 377.131835938 658.469726562 l 1
432.36328125 396.1171875 m 1
 390.076171875 333.118164062 l 2
 388.310546875 333.538085938 384.830078125 335.177734375 384.869140625 341.16015625 c 0
 384.892578125 344.672851562 385.548828125 347.072265625 382.732421875 350.708007812 c 0
 365.34375 373.1484375 321.040039062 413.44140625 255.913085938 413.44140625 c 0
 204.260742188 413.44140625 159.655273438 387.8203125 159.655273438 351.056640625 c 0
 159.655273438 335.70703125 167.596679688 313.551757812 204.916015625 295.515625 c 0
 247.6171875 274.879882812 321.186523438 264.563476562 372.8125 235.584960938 c 0
 426.870117188 205.240234375 439.870117188 163.90625 439.870117188 132.28515625 c 0
 439.870117188 63.326171875 374.66015625 -10.3564453125 249.805664062 -10.3564453125 c 0
 180.409179688 -10.3564453125 110.5859375 12.26953125 56.9580078125 62.1357421875 c 1
 98.3818359375 133.764648438 l 1
 103.30859375 131.461914062 102.872070312 125.734375 102.809570312 124.361328125 c 0
 102.625 120.362304688 102.180664062 117.547851562 105.586914062 113.673828125 c 0
 120.041992188 97.2431640625 170.202148438 50.0537109375 248.512695312 50.0537109375 c 0
 313.779296875 50.0537109375 365.970703125 79.541015625 365.970703125 122.3359375 c 0
 365.970703125 138.845703125 358.075195312 162.904296875 320.384765625 180.546875 c 0
 286.68359375 196.3203125 236.23828125 208.456054688 197.599609375 222.422851562 c 0
 172.802734375 231.38671875 86.2978515625 260.452148438 86.2978515625 340.221679688 c 0
 86.2978515625 408.458007812 155.8125 467.749023438 261.916992188 467.749023438 c 0
 329.493164062 467.749023438 390.147460938 442.637695312 432.36328125 396.1171875 c 1
EndSplineSet
Validated: 1
EndChar

StartChar: copyright
Encoding: 425 169 163
Width: 500
GlyphClass: 2
Flags: W
LayerCount: 2
Back
Fore
SplineSet
262.024414062 423.811523438 m 0
 324.95703125 423.811523438 373.700195312 384.47265625 386.624023438 331.391601562 c 1
 334.84375 311.54296875 l 1
 329.249023438 318.323242188 332.576171875 325.37109375 330.965820312 331.936523438 c 0
 329.169921875 339.259765625 313.59765625 373.810546875 264.177734375 373.810546875 c 0
 216.977539062 373.810546875 170.87109375 344.377929688 170.87109375 282.193359375 c 0
 170.87109375 221.713867188 212.642578125 174.280273438 265.143554688 174.280273438 c 0
 296.467773438 174.280273438 325.209960938 191.625976562 340.022460938 219.202148438 c 1
 384.03515625 189.860351562 l 1
 356.380859375 147.94140625 309.880859375 121.66015625 260.73828125 121.66015625 c 0
 179.403320312 121.66015625 114.645507812 192.219726562 114.645507812 275.66796875 c 0
 114.645507812 361.025390625 181.43359375 423.811523438 262.024414062 423.811523438 c 0
255.712890625 18.888671875 m 0
 123.361328125 18.888671875 13.591796875 131.422851562 13.591796875 273.89453125 c 0
 13.591796875 417.122070312 123.729492188 529.8984375 256.108398438 529.8984375 c 0
 388.122070312 529.8984375 497.965820312 417.490234375 497.965820312 274.66015625 c 0
 497.965820312 131.548828125 387.893554688 18.888671875 255.712890625 18.888671875 c 0
59.310546875 274.260742188 m 0
 59.310546875 155.090820312 149.243164062 62.05859375 257.024414062 62.05859375 c 0
 364.471679688 62.05859375 454.805664062 155.036132812 454.805664062 275.024414062 c 0
 454.805664062 394.694335938 364.754882812 487.594726562 257.295898438 487.594726562 c 0
 149.67578125 487.594726562 59.310546875 394.44140625 59.310546875 274.260742188 c 0
EndSplineSet
Validated: 1
EndChar

StartChar: ordfeminine
Encoding: 426 170 164
Width: 500
GlyphClass: 2
Flags: W
LayerCount: 2
Back
Fore
SplineSet
122.545898438 566.127929688 m 1
 158.475585938 607.41796875 209.793945312 622.467773438 257 622.467773438 c 0
 311.228515625 622.467773438 357.016601562 600.875976562 377.616210938 556.603515625 c 0
 388.165039062 533.93359375 389.212890625 511.293945312 389.212890625 485.005859375 c 2
 389.212890625 266.666992188 l 1
 326.213867188 266.666992188 l 1
 326.213867188 300.32421875 l 1
 296.543945312 272.334960938 258.291015625 257.172851562 219.521484375 257.172851562 c 0
 150.205078125 257.172851562 101.830078125 305.962890625 101.830078125 361.56640625 c 0
 101.830078125 394.704101562 119.673828125 431.827148438 161.356445312 454.0234375 c 0
 206.119140625 477.859375 261.182617188 475.512695312 310.6796875 475.512695312 c 2
 325.350585938 475.512695312 l 1
 325.350585938 487.594726562 l 2
 325.350585938 504.499023438 325.036132812 522.302734375 314.305664062 539.026367188 c 0
 302.999023438 556.646484375 282.0234375 568.735351562 250.716796875 568.735351562 c 0
 216.083984375 568.735351562 179.533203125 555.5078125 157.06640625 524.704101562 c 1
 122.545898438 566.127929688 l 1
327.940429688 423.733398438 m 1
 311.54296875 423.733398438 l 2
 285.6484375 423.733398438 252.205078125 425.598632812 225.838867188 420.921875 c 0
 181.708984375 413.09375 166.442382812 385.9765625 166.442382812 364.3203125 c 0
 166.442382812 336.317382812 190.907226562 311.2734375 229.427734375 311.2734375 c 0
 260.1484375 311.2734375 287.97265625 326.126953125 305.733398438 342.650390625 c 0
 327.35546875 362.764648438 327.940429688 383.223632812 327.940429688 406.47265625 c 2
 327.940429688 423.733398438 l 1
75.9443359375 206.256835938 m 1
 425.458984375 206.256835938 l 1
 425.458984375 151.887695312 l 1
 75.9443359375 151.887695312 l 1
 75.9443359375 206.256835938 l 1
EndSplineSet
Validated: 33
EndChar

StartChar: guillemotleft
Encoding: 427 171 165
Width: 500
GlyphClass: 2
Flags: W
LayerCount: 2
Back
Fore
SplineSet
248.543945312 252.859375 m 1
 400.431640625 400.431640625 l 1
 439.266601562 359.0078125 l 1
 318.446289062 240.77734375 l 1
 446.170898438 100.970703125 l 1
 406.47265625 61.2734375 l 1
 248.543945312 229.557617188 l 1
 248.543945312 252.859375 l 1
67.314453125 252.859375 m 1
 219.202148438 400.431640625 l 1
 258.037109375 359.0078125 l 1
 137.216796875 240.77734375 l 1
 264.94140625 100.970703125 l 1
 225.243164062 61.2734375 l 1
 67.314453125 229.557617188 l 1
 67.314453125 252.859375 l 1
EndSplineSet
Validated: 1
EndChar

StartChar: logicalnot
Encoding: 428 172 166
Width: 500
GlyphClass: 2
Flags: W
LayerCount: 2
Back
Fore
SplineSet
91.4775390625 346.92578125 m 1
 414.240234375 346.92578125 l 1
 414.240234375 157.06640625 l 1
 350.377929688 157.06640625 l 1
 350.377929688 283.926757812 l 1
 91.4775390625 283.926757812 l 1
 91.4775390625 346.92578125 l 1
EndSplineSet
Validated: 1
EndChar

StartChar: softhyphen
Encoding: 429 173 167
Width: 500
GlyphClass: 2
Flags: W
LayerCount: 2
Back
Fore
SplineSet
70.765625 347.7890625 m 1
 430.63671875 347.7890625 l 1
 430.63671875 281.337890625 l 1
 70.765625 281.337890625 l 1
 70.765625 347.7890625 l 1
EndSplineSet
Validated: 1
EndChar

StartChar: registered
Encoding: 430 174 168
Width: 500
GlyphClass: 2
Flags: W
LayerCount: 2
Back
Fore
SplineSet
255.712890625 18.888671875 m 0
 123.361328125 18.888671875 13.591796875 131.422851562 13.591796875 273.89453125 c 0
 13.591796875 417.122070312 123.729492188 529.8984375 256.108398438 529.8984375 c 0
 388.122070312 529.8984375 497.965820312 417.490234375 497.965820312 274.66015625 c 0
 497.965820312 131.548828125 387.893554688 18.888671875 255.712890625 18.888671875 c 0
59.310546875 274.260742188 m 0
 59.310546875 155.090820312 149.243164062 62.05859375 257.024414062 62.05859375 c 0
 364.471679688 62.05859375 454.805664062 155.036132812 454.805664062 275.024414062 c 0
 454.805664062 394.694335938 364.754882812 487.594726562 257.295898438 487.594726562 c 0
 149.67578125 487.594726562 59.310546875 394.44140625 59.310546875 274.260742188 c 0
155.33984375 132.90234375 m 1
 155.33984375 424.595703125 l 1
 249.407226562 424.595703125 l 2
 271.708984375 424.595703125 295.138671875 424.44140625 318.14453125 414.708007812 c 0
 351.883789062 400.431640625 370.2265625 370.651367188 370.2265625 339.788085938 c 0
 370.2265625 304.336914062 346.176757812 272.928710938 311.54296875 263.21484375 c 1
 376.267578125 138.080078125 l 1
 328.802734375 131.17578125 l 1
 266.666992188 256.310546875 l 1
 201.079101562 256.310546875 l 1
 201.079101562 132.90234375 l 1
 155.33984375 132.90234375 l 1
201.079101562 384.03515625 m 1
 201.079101562 296.008789062 l 1
 252.859375 296.008789062 l 2
 269.274414062 296.008789062 288.9296875 295.927734375 304.802734375 305.971679688 c 0
 318.30078125 314.512695312 324.489257812 327.487304688 324.489257812 339.755859375 c 0
 324.489257812 352.75390625 317.51953125 366.581054688 302.298828125 375.141601562 c 0
 286.166015625 384.215820312 266.69921875 384.03515625 250.26953125 384.03515625 c 2
 201.079101562 384.03515625 l 1
EndSplineSet
Validated: 33
EndChar

StartChar: macron
Encoding: 431 175 169
Width: 500
GlyphClass: 2
Flags: W
LayerCount: 2
Back
Fore
SplineSet
123.409179688 621.360351562 m 1
 377.130859375 621.360351562 l 1
 377.130859375 565.264648438 l 1
 123.409179688 565.264648438 l 1
 123.409179688 621.360351562 l 1
EndSplineSet
Validated: 1
EndChar

StartChar: degree
Encoding: 432 176 170
Width: 500
GlyphClass: 2
Flags: W
LayerCount: 2
Back
Fore
SplineSet
390.939453125 504.381835938 m 0
 390.939453125 430.41796875 330.493164062 370.142578125 255.827148438 370.142578125 c 0
 181.198242188 370.142578125 120.735351562 430.408203125 120.735351562 504.403320312 c 0
 120.735351562 578.354492188 181.170898438 638.626953125 255.82421875 638.626953125 c 0
 330.490234375 638.626953125 390.939453125 578.345703125 390.939453125 504.381835938 c 0
256.859375 585.977539062 m 0
 216.198242188 585.977539062 182.073242188 550.845703125 182.073242188 505.564453125 c 0
 182.073242188 460.504882812 216.068359375 425.353515625 256.821289062 425.353515625 c 0
 297.359375 425.353515625 331.463867188 460.458984375 331.463867188 505.831054688 c 0
 331.463867188 550.875976562 297.486328125 585.977539062 256.859375 585.977539062 c 0
EndSplineSet
Validated: 1
EndChar

StartChar: plusminus
Encoding: 433 177 171
Width: 500
GlyphClass: 2
Flags: W
LayerCount: 2
Back
Fore
SplineSet
45.7392578125 80.2587890625 m 1
 457.389648438 80.2587890625 l 1
 457.389648438 17.259765625 l 1
 45.7392578125 17.259765625 l 1
 45.7392578125 80.2587890625 l 1
221.791015625 574.758789062 m 1
 284.790039062 574.758789062 l 1
 284.790039062 403.883789062 l 1
 455.6640625 403.883789062 l 1
 455.6640625 342.611328125 l 1
 284.790039062 342.611328125 l 1
 284.790039062 155.33984375 l 1
 221.791015625 155.33984375 l 1
 221.791015625 342.611328125 l 1
 44.8759765625 342.611328125 l 1
 44.8759765625 403.883789062 l 1
 221.791015625 403.883789062 l 1
 221.791015625 574.758789062 l 1
EndSplineSet
Validated: 1
EndChar

StartChar: uni00B2
Encoding: 434 178 172
Width: 500
GlyphClass: 2
Flags: W
LayerCount: 2
Back
Fore
SplineSet
111.327148438 554.045898438 m 1
 141.337890625 606.24609375 197.477539062 637.142578125 258.120117188 637.142578125 c 0
 337.72265625 637.142578125 391.802734375 585.779296875 391.802734375 525.1875 c 0
 391.802734375 477.84375 359.267578125 445.311523438 345.0625 432.219726562 c 0
 305.34375 395.614257812 250.046875 369.666992188 194.174804688 307.228515625 c 1
 376.267578125 307.228515625 l 2
 380.828125 307.228515625 382.90625 307.8671875 386.961914062 311.365234375 c 0
 389.040039062 313.158203125 393.94140625 318.01171875 400.431640625 315.858398438 c 1
 400.431640625 252.859375 l 1
 120.8203125 252.859375 l 1
 120.8203125 296.872070312 l 1
 176.530273438 373.916992188 249.984375 422.678710938 279.932617188 447.030273438 c 0
 308.94921875 470.626953125 331.490234375 494.766601562 331.490234375 524.84765625 c 0
 331.490234375 556.576171875 304.014648438 585.905273438 256.204101562 585.905273438 c 0
 217.797851562 585.905273438 185.157226562 565.921875 167.572265625 543.674804688 c 0
 162.178710938 536.8515625 162.88671875 532.388671875 157.928710938 522.978515625 c 1
 111.327148438 554.045898438 l 1
EndSplineSet
Validated: 1
EndChar

StartChar: uni00B3
Encoding: 435 179 173
Width: 500
GlyphClass: 2
Flags: W
LayerCount: 2
Back
Fore
SplineSet
257.64453125 637.852539062 m 0
 332.154296875 637.852539062 388.530273438 587.916015625 388.530273438 530.356445312 c 0
 388.530273438 493.766601562 365.41796875 462.771484375 332.254882812 452.211914062 c 1
 374.594726562 444.728515625 405.611328125 408.563476562 405.611328125 366.489257812 c 0
 405.611328125 301.137695312 334.250976562 251.125 254.501953125 251.125 c 0
 199.956054688 251.125 148.08984375 274.83984375 112.190429688 315.858398438 c 1
 158.791992188 367.637695312 l 1
 167.604492188 358.27734375 163.418945312 348.865234375 172.733398438 339.775390625 c 0
 178 334.633789062 208.176757812 307.216796875 255.516601562 307.216796875 c 0
 304.543945312 307.216796875 343.866210938 336.370117188 343.866210938 371.9609375 c 0
 343.866210938 390.35546875 332.536132812 427.271484375 255.997070312 427.271484375 c 0
 245.6328125 427.271484375 235.756835938 426.639648438 226.106445312 425.458984375 c 1
 226.106445312 475.512695312 l 1
 232.6953125 474.8828125 239.310546875 474.55859375 245.930664062 474.55859375 c 0
 311.447265625 474.55859375 329.26953125 503.040039062 329.26953125 526 c 0
 329.26953125 555.919921875 299.598632812 585.146484375 254.620117188 585.146484375 c 0
 220.797851562 585.146484375 185.395507812 568.524414062 161.380859375 538.51171875 c 1
 125.134765625 575.62109375 l 1
 158.732421875 615.33203125 207.306640625 637.852539062 257.64453125 637.852539062 c 0
EndSplineSet
Validated: 1
EndChar

StartChar: Zcaron
Encoding: 436 381 174
Width: 500
GlyphClass: 2
Flags: W
LayerCount: 2
Back
Fore
SplineSet
396.98046875 755.125 m 1
 265.8046875 655.879882812 l 1
 244.229492188 655.879882812 l 1
 120.8203125 753.3984375 l 1
 153.614257812 791.37109375 l 1
 257.174804688 720.604492188 l 1
 368.501953125 788.782226562 l 1
 396.98046875 755.125 l 1
62.1357421875 623.0859375 m 1
 447.034179688 623.0859375 l 1
 446.170898438 573.89453125 l 1
 138.080078125 61.2734375 l 1
 432.36328125 61.2734375 l 2
 446.29296875 61.2734375 450.123046875 69.16015625 462.568359375 67.314453125 c 1
 462.568359375 -0.86328125 l 1
 50.0537109375 -0.86328125 l 1
 50.0537109375 48.328125 l 1
 364.185546875 560.086914062 l 1
 62.1357421875 560.086914062 l 1
 62.1357421875 623.0859375 l 1
EndSplineSet
Validated: 1
EndChar

StartChar: micro
Encoding: 437 181 175
Width: 500
GlyphClass: 2
Flags: W
LayerCount: 2
Back
Fore
SplineSet
24.1640625 -166.55859375 m 1
 24.9736328125 -50.9052734375 44.0126953125 75.35546875 44.0126953125 201.942382812 c 2
 44.0126953125 456.52734375 l 1
 109.600585938 456.52734375 l 1
 109.600585938 185.544921875 l 2
 109.600585938 155.5390625 110.623046875 126.981445312 124.486328125 98.8701171875 c 0
 142.274414062 62.7958984375 174.157226562 43.13671875 205.963867188 43.13671875 c 0
 242.153320312 43.13671875 277.506835938 68.078125 295.169921875 108.420898438 c 0
 306.575195312 134.471679688 308.090820312 160.911132812 308.090820312 191.5859375 c 2
 308.090820312 456.52734375 l 1
 371.953125 456.52734375 l 1
 371.953125 115.641601562 l 2
 371.953125 100.286132812 371.818359375 82.005859375 380.362304688 66.990234375 c 0
 387.846679688 53.8359375 399.77734375 47.349609375 411.856445312 47.349609375 c 0
 445.75 47.349609375 466.8828125 95.79296875 466.8828125 95.79296875 c 1
 493.635742188 44.8759765625 l 1
 474.493164062 15.6357421875 442.880859375 -10.443359375 405.814453125 -10.443359375 c 0
 363.490234375 -10.443359375 329.215820312 24.2802734375 323.625 67.314453125 c 1
 300.4921875 19.5048828125 252.470703125 -11.22265625 200.966796875 -11.22265625 c 0
 152.323242188 -11.22265625 107.952148438 16.396484375 87.1630859375 60.41015625 c 1
 87.3349609375 -15.5546875 87.04296875 -91.19140625 86.2998046875 -166.55859375 c 1
 24.1640625 -166.55859375 l 1
EndSplineSet
Validated: 33
EndChar

StartChar: paragraph
Encoding: 438 182 176
Width: 500
GlyphClass: 2
Flags: W
LayerCount: 2
Back
Fore
SplineSet
435.815429688 665.373046875 m 1
 435.815429688 -68.1767578125 l 1
 377.994140625 -68.1767578125 l 1
 377.994140625 608.415039062 l 1
 302.049804688 608.415039062 l 1
 302.049804688 -68.1767578125 l 1
 242.502929688 -68.1767578125 l 1
 242.502929688 321.899414062 l 1
 141.1484375 328.537109375 63.8125 405.736328125 63.8125 495.83203125 c 0
 63.8125 557.196289062 100.080078125 615.649414062 166.454101562 644.387695312 c 0
 214.459960938 665.173828125 264.27734375 665.373046875 310.6796875 665.373046875 c 2
 435.815429688 665.373046875 l 1
EndSplineSet
Validated: 1
EndChar

StartChar: periodcentered
Encoding: 439 183 177
Width: 500
GlyphClass: 2
Flags: W
LayerCount: 2
Back
Fore
SplineSet
297.736328125 330.955078125 m 0
 297.736328125 299.46875 271.458007812 273.53125 238.569335938 273.53125 c 0
 205.751953125 273.53125 179.462890625 299.444335938 179.462890625 330.967773438 c 0
 179.462890625 362.427734375 205.724609375 388.3515625 238.586914062 388.3515625 c 0
 271.461914062 388.3515625 297.736328125 362.426757812 297.736328125 330.955078125 c 0
EndSplineSet
Validated: 1
EndChar

StartChar: zcaron
Encoding: 440 382 178
Width: 500
GlyphClass: 2
Flags: W
LayerCount: 2
Back
Fore
SplineSet
377.131835938 658.469726562 m 1
 265.8046875 517.80078125 l 1
 244.229492188 517.80078125 l 1
 133.765625 659.33203125 l 1
 180.3671875 693.852539062 l 1
 258.037109375 591.155273438 l 1
 339.159179688 692.989257812 l 1
 377.131835938 658.469726562 l 1
70.765625 457.389648438 m 1
 426.322265625 457.389648438 l 1
 426.322265625 408.19921875 l 1
 147.573242188 61.2734375 l 1
 419.41796875 61.2734375 l 2
 433.348632812 61.2734375 437.177734375 69.16015625 449.623046875 67.314453125 c 1
 449.623046875 -0.86328125 l 1
 50.0537109375 -0.86328125 l 1
 50.0537109375 48.328125 l 1
 333.118164062 394.390625 l 1
 70.765625 394.390625 l 1
 70.765625 457.389648438 l 1
EndSplineSet
Validated: 1
EndChar

StartChar: uni00B9
Encoding: 441 185 179
Width: 500
GlyphClass: 2
Flags: W
LayerCount: 2
Back
Fore
SplineSet
298.59765625 632.579101562 m 1
 298.59765625 252.859375 l 1
 234.736328125 252.859375 l 1
 234.736328125 553.182617188 l 1
 138.080078125 528.15625 l 1
 121.682617188 559.223632812 l 1
 255.448242188 632.579101562 l 1
 298.59765625 632.579101562 l 1
EndSplineSet
Validated: 1
EndChar

StartChar: ordmasculine
Encoding: 442 186 180
Width: 500
GlyphClass: 2
Flags: W
LayerCount: 2
Back
Fore
SplineSet
251.845703125 622.232421875 m 0
 323.817382812 622.232421875 397.072265625 564.236328125 397.072265625 444.234375 c 0
 397.072265625 314.81640625 318.76171875 256.259765625 245.607421875 256.259765625 c 0
 166.407226562 256.259765625 95.6435546875 323.147460938 95.6435546875 432.25 c 0
 95.6435546875 546.951171875 168.717773438 622.232421875 251.845703125 622.232421875 c 0
156.19140625 436.862304688 m 0
 156.19140625 353.13671875 202.71875 314.067382812 247.157226562 314.067382812 c 0
 289.907226562 314.067382812 337.432617188 350.786132812 337.432617188 436.856445312 c 0
 337.432617188 522.553710938 293.026367188 566.127929688 246.995117188 566.127929688 c 0
 201.366210938 566.127929688 156.19140625 523.02734375 156.19140625 436.862304688 c 0
75.9443359375 206.256835938 m 1
 425.458984375 206.256835938 l 1
 425.458984375 151.887695312 l 1
 75.9443359375 151.887695312 l 1
 75.9443359375 206.256835938 l 1
EndSplineSet
Validated: 1
EndChar

StartChar: guillemotright
Encoding: 443 187 181
Width: 500
GlyphClass: 2
Flags: W
LayerCount: 2
Back
Fore
SplineSet
264.94140625 252.859375 m 1
 264.94140625 229.557617188 l 1
 107.01171875 61.2734375 l 1
 67.314453125 100.970703125 l 1
 195.038085938 240.77734375 l 1
 74.2177734375 359.0078125 l 1
 113.052734375 400.431640625 l 1
 264.94140625 252.859375 l 1
446.170898438 252.859375 m 1
 446.170898438 229.557617188 l 1
 288.2421875 61.2734375 l 1
 248.543945312 100.970703125 l 1
 376.267578125 240.77734375 l 1
 255.448242188 359.0078125 l 1
 294.283203125 400.431640625 l 1
 446.170898438 252.859375 l 1
EndSplineSet
Validated: 1
EndChar

StartChar: OE
Encoding: 444 338 182
Width: 500
GlyphClass: 2
Flags: W
LayerCount: 2
Back
Fore
SplineSet
252.859375 595.469726562 m 1
 252.859375 623.94921875 l 1
 484.142578125 623.94921875 l 1
 484.142578125 561.813476562 l 1
 314.995117188 561.813476562 l 1
 314.995117188 357.282226562 l 1
 458.252929688 357.282226562 l 1
 458.252929688 293.419921875 l 1
 314.995117188 293.419921875 l 1
 314.995117188 62.1357421875 l 1
 481.553710938 62.1357421875 l 1
 481.553710938 0 l 1
 251.99609375 0 l 1
 251.99609375 31.068359375 l 1
 231.885742188 6.806640625 202.02734375 -6.9794921875 170.266601562 -6.9794921875 c 0
 120.939453125 -6.9794921875 60.6328125 26.390625 31.9794921875 120.065429688 c 0
 28.2548828125 132.2421875 9.3115234375 194.885742188 9.3115234375 312.251953125 c 0
 9.3115234375 396.19921875 16.0517578125 468.54296875 42.859375 531.23046875 c 0
 76 608.725585938 130.240234375 631.717773438 170.66796875 631.717773438 c 0
 201.92578125 631.717773438 231.692382812 618.440429688 252.859375 595.469726562 c 1
73.3330078125 324.297851562 m 0
 73.3330078125 296.407226562 73.3115234375 191.244140625 101.225585938 123.044921875 c 0
 123.70703125 68.115234375 156.516601562 54.3544921875 179.038085938 54.3544921875 c 0
 213.59765625 54.3544921875 242.178710938 85.095703125 251.99609375 129.450195312 c 1
 251.99609375 485.005859375 l 1
 241.32421875 518.8671875 215.65234375 573.8984375 170.58984375 573.8984375 c 0
 141.10546875 573.8984375 110.95703125 548.989257812 92.8046875 494.548828125 c 0
 86.6806640625 476.185546875 73.3330078125 430.063476562 73.3330078125 324.297851562 c 0
EndSplineSet
Validated: 33
EndChar

StartChar: oe
Encoding: 445 339 183
Width: 500
GlyphClass: 2
Flags: W
LayerCount: 2
Back
Fore
SplineSet
161.443359375 466.069335938 m 0
 198.735351562 466.069335938 232.96875 449.3359375 254.584960938 420.28125 c 1
 280.018554688 449.588867188 317.0234375 466.08203125 355.748046875 466.08203125 c 0
 402.08203125 466.08203125 453.729492188 441.775390625 476.379882812 379.849609375 c 0
 492.498046875 335.783203125 490.18359375 282.166015625 490.18359375 232.147460938 c 2
 490.18359375 220.927734375 l 1
 262.3515625 220.927734375 l 1
 262.877929688 157.8671875 265.909179688 128 276.752929688 103.422851562 c 0
 294.483398438 63.2421875 331.450195312 46.55859375 368.736328125 46.55859375 c 0
 397.607421875 46.55859375 433.515625 56.29296875 459.116210938 85.4365234375 c 1
 494.499023438 42.287109375 l 1
 460.962890625 7.7490234375 414.857421875 -11.76171875 366.68359375 -11.76171875 c 0
 325.110351562 -11.76171875 284.840820312 2.779296875 252.859375 29.341796875 c 1
 225.860351562 4.6611328125 190.111328125 -11.2412109375 153.900390625 -11.2412109375 c 0
 114.141601562 -11.2412109375 63.6806640625 9 33.869140625 70.2685546875 c 0
 9.7470703125 119.842773438 6.0341796875 183.935546875 6.0341796875 236.483398438 c 0
 6.0341796875 282.44921875 9.5 336.622070312 34.1630859375 383.17578125 c 0
 63.8447265625 439.196289062 114.288085938 466.069335938 161.443359375 466.069335938 c 0
263.21484375 277.885742188 m 1
 430.63671875 277.885742188 l 1
 430.63671875 286.515625 l 2
 430.63671875 316.09765625 431.26171875 347.487304688 415.495117188 373.806640625 c 0
 400.228515625 399.2890625 373.428710938 411.470703125 347.563476562 411.470703125 c 0
 321.517578125 411.470703125 289.19921875 398.768554688 273.795898438 357.348632812 c 0
 271.583984375 351.396484375 262.228515625 325.520507812 263.21484375 277.885742188 c 1
66.390625 246.034179688 m 0
 66.390625 212.260742188 68.4462890625 162.750976562 80.9033203125 123.182617188 c 0
 97.8818359375 69.2509765625 132.498046875 49.9072265625 162.553710938 49.9072265625 c 0
 187.538085938 49.9072265625 212.745117188 64.0732421875 212.745117188 89.0595703125 c 0
 212.745117188 102.017578125 200.174804688 149.134765625 200.174804688 236.041992188 c 0
 200.174804688 310.455078125 209.170898438 347.948242188 209.170898438 362.241210938 c 0
 209.170898438 388.5625 186.854492188 405.67578125 160.763671875 405.67578125 c 0
 132.454101562 405.67578125 102.057617188 386.180664062 84.20703125 347.650390625 c 0
 68.3232421875 313.370117188 66.390625 274.21484375 66.390625 246.034179688 c 0
EndSplineSet
Validated: 33
EndChar

StartChar: Ydieresis
Encoding: 446 376 184
Width: 500
GlyphClass: 2
Flags: W
LayerCount: 2
Back
Fore
SplineSet
208.861328125 738.294921875 m 0
 208.861328125 710.431640625 186.225585938 687.794921875 158.361328125 687.794921875 c 0
 130.495117188 687.794921875 107.858398438 710.4296875 107.858398438 738.294921875 c 0
 107.858398438 766.162109375 130.494140625 788.798828125 158.360351562 788.798828125 c 0
 186.2265625 788.798828125 208.861328125 766.162109375 208.861328125 738.294921875 c 0
386.625 738.306640625 m 0
 386.625 710.39453125 364.147460938 687.802734375 336.57421875 687.802734375 c 0
 309.005859375 687.802734375 286.513671875 710.3828125 286.513671875 738.30859375 c 0
 286.513671875 766.224609375 308.998046875 788.8125 336.576171875 788.8125 c 0
 364.129882812 788.8125 386.625 766.23828125 386.625 738.306640625 c 0
28.478515625 623.94921875 m 1
 107.875 623.94921875 l 1
 260.625976562 321.036132812 l 1
 398.706054688 623.0859375 l 1
 472.923828125 623.0859375 l 1
 296.008789062 245.955078125 l 1
 296.008789062 0 l 1
 220.065429688 0 l 1
 220.065429688 245.955078125 l 1
 28.478515625 623.94921875 l 1
EndSplineSet
Validated: 1
EndChar

StartChar: questiondown
Encoding: 447 191 185
Width: 500
GlyphClass: 2
Flags: W
LayerCount: 2
Back
Fore
SplineSet
181.365234375 607.962890625 m 0
 181.365234375 639.44921875 207.643554688 665.385742188 240.533203125 665.385742188 c 0
 273.349609375 665.385742188 299.639648438 639.473632812 299.639648438 607.94921875 c 0
 299.639648438 576.489257812 273.377929688 550.565429688 240.515625 550.565429688 c 0
 207.640625 550.565429688 181.365234375 576.491210938 181.365234375 607.962890625 c 0
437.677734375 91.451171875 m 1
 394.161132812 24.4033203125 319.760742188 -13.0234375 244.881835938 -13.0234375 c 0
 131.572265625 -13.0234375 67.244140625 70.193359375 67.244140625 163.392578125 c 0
 67.244140625 257.358398438 133.34375 295.407226562 166.346679688 324.741210938 c 0
 207.522460938 361.338867188 209.845703125 391.0546875 209.845703125 426.294921875 c 2
 209.845703125 467.719726562 l 1
 275.43359375 467.719726562 l 1
 275.43359375 426.294921875 l 2
 275.43359375 381.407226562 272.62109375 346.204101562 228.444335938 297.697265625 c 0
 198.220703125 264.510742188 146.349609375 223.666992188 146.349609375 158.153320312 c 0
 146.349609375 99.0615234375 191.767578125 52.484375 251.5859375 52.484375 c 0
 302.147460938 52.484375 355.225585938 86.1767578125 386.760742188 138.916015625 c 1
 437.677734375 91.451171875 l 1
EndSplineSet
Validated: 1
EndChar

StartChar: Agrave
Encoding: 448 192 186
Width: 500
GlyphClass: 2
Flags: W
LayerCount: 2
Back
Fore
SplineSet
181.23046875 791.37109375 m 1
 333.981445312 701.619140625 l 1
 310.680664062 660.194335938 l 1
 141.532226562 721.467773438 l 1
 181.23046875 791.37109375 l 1
14.6708984375 -0.86328125 m 1
 234.736328125 634.3046875 l 1
 242.502929688 634.3046875 l 1
 483.280273438 0 l 1
 410.788085938 0 l 1
 341.748046875 182.092773438 l 1
 144.12109375 182.092773438 l 1
 83.7109375 -0.86328125 l 1
 14.6708984375 -0.86328125 l 1
326.213867188 236.461914062 m 1
 238.188476562 473.787109375 l 1
 157.928710938 236.461914062 l 1
 326.213867188 236.461914062 l 1
EndSplineSet
Validated: 1
EndChar

StartChar: Aacute
Encoding: 449 193 187
Width: 500
GlyphClass: 2
Flags: W
LayerCount: 2
Back
Fore
SplineSet
308.090820312 791.37109375 m 1
 347.7890625 721.467773438 l 1
 178.641601562 660.194335938 l 1
 155.33984375 701.619140625 l 1
 308.090820312 791.37109375 l 1
14.6708984375 -0.86328125 m 1
 234.736328125 634.3046875 l 1
 242.502929688 634.3046875 l 1
 483.280273438 0 l 1
 410.788085938 0 l 1
 341.748046875 182.092773438 l 1
 144.12109375 182.092773438 l 1
 83.7109375 -0.86328125 l 1
 14.6708984375 -0.86328125 l 1
326.213867188 236.461914062 m 1
 238.188476562 473.787109375 l 1
 157.928710938 236.461914062 l 1
 326.213867188 236.461914062 l 1
EndSplineSet
Validated: 1
EndChar

StartChar: Acircumflex
Encoding: 450 194 188
Width: 500
GlyphClass: 2
Flags: W
LayerCount: 2
Back
Fore
SplineSet
101.833984375 692.125976562 m 1
 233.009765625 791.37109375 l 1
 254.584960938 791.37109375 l 1
 377.994140625 693.852539062 l 1
 345.200195312 655.879882812 l 1
 241.639648438 726.646484375 l 1
 130.3125 658.46875 l 1
 101.833984375 692.125976562 l 1
14.6708984375 -0.86328125 m 1
 234.736328125 634.3046875 l 1
 242.502929688 634.3046875 l 1
 483.280273438 0 l 1
 410.788085938 0 l 1
 341.748046875 182.092773438 l 1
 144.12109375 182.092773438 l 1
 83.7109375 -0.86328125 l 1
 14.6708984375 -0.86328125 l 1
326.213867188 236.461914062 m 1
 238.188476562 473.787109375 l 1
 157.928710938 236.461914062 l 1
 326.213867188 236.461914062 l 1
EndSplineSet
Validated: 1
EndChar

StartChar: Atilde
Encoding: 451 195 189
Width: 500
GlyphClass: 2
Flags: W
LayerCount: 2
Back
Fore
SplineSet
131.17578125 683.49609375 m 1
 86.2998046875 715.426757812 l 1
 123.288085938 773.970703125 160.391601562 801.958007812 199.377929688 801.958007812 c 0
 239.794921875 801.958007812 266.640625 772.443359375 279.4921875 759.051757812 c 0
 295.69921875 742.161132812 310.71484375 727.448242188 329.370117188 727.448242188 c 0
 354.034179688 727.448242188 365.73828125 750.802734375 387.486328125 780.15234375 c 1
 424.595703125 740.454101562 l 1
 390.02734375 697.424804688 362.795898438 669.475585938 325.912109375 669.475585938 c 0
 267.756835938 669.475585938 240.676757812 745.141601562 196.62890625 745.141601562 c 0
 170.142578125 745.141601562 155.134765625 722.146484375 131.17578125 683.49609375 c 1
14.6708984375 -0.86328125 m 1
 234.736328125 634.3046875 l 1
 242.502929688 634.3046875 l 1
 483.280273438 0 l 1
 410.788085938 0 l 1
 341.748046875 182.092773438 l 1
 144.12109375 182.092773438 l 1
 83.7109375 -0.86328125 l 1
 14.6708984375 -0.86328125 l 1
326.213867188 236.461914062 m 1
 238.188476562 473.787109375 l 1
 157.928710938 236.461914062 l 1
 326.213867188 236.461914062 l 1
EndSplineSet
Validated: 1
EndChar

StartChar: Adieresis
Encoding: 452 196 190
Width: 500
GlyphClass: 2
Flags: W
LayerCount: 2
Back
Fore
SplineSet
201.958007812 738.294921875 m 0
 201.958007812 710.431640625 179.322265625 687.794921875 151.458007812 687.794921875 c 0
 123.591796875 687.794921875 100.955078125 710.4296875 100.955078125 738.294921875 c 0
 100.955078125 766.162109375 123.590820312 788.798828125 151.45703125 788.798828125 c 0
 179.323242188 788.798828125 201.958007812 766.162109375 201.958007812 738.294921875 c 0
379.721679688 738.306640625 m 0
 379.721679688 710.39453125 357.244140625 687.802734375 329.670898438 687.802734375 c 0
 302.102539062 687.802734375 279.610351562 710.3828125 279.610351562 738.30859375 c 0
 279.610351562 766.224609375 302.094726562 788.8125 329.672851562 788.8125 c 0
 357.2265625 788.8125 379.721679688 766.23828125 379.721679688 738.306640625 c 0
14.6708984375 -0.86328125 m 1
 234.736328125 634.3046875 l 1
 242.502929688 634.3046875 l 1
 483.280273438 0 l 1
 410.788085938 0 l 1
 341.748046875 182.092773438 l 1
 144.12109375 182.092773438 l 1
 83.7109375 -0.86328125 l 1
 14.6708984375 -0.86328125 l 1
326.213867188 236.461914062 m 1
 238.188476562 473.787109375 l 1
 157.928710938 236.461914062 l 1
 326.213867188 236.461914062 l 1
EndSplineSet
Validated: 1
EndChar

StartChar: Aring
Encoding: 453 197 191
Width: 500
GlyphClass: 2
Flags: W
LayerCount: 2
Back
Fore
SplineSet
199.279296875 707.46484375 m 0
 199.279296875 681.865234375 218.016601562 661.83203125 240.772460938 661.83203125 c 0
 263.243164062 661.83203125 282.231445312 681.62890625 282.231445312 707.71875 c 0
 282.231445312 733.401367188 263.477539062 753.409179688 240.772460938 753.409179688 c 0
 218.315429688 753.409179688 199.279296875 733.612304688 199.279296875 707.46484375 c 0
326.213867188 236.461914062 m 1
 238.188476562 473.787109375 l 1
 157.928710938 236.461914062 l 1
 326.213867188 236.461914062 l 1
248.274414062 619.1015625 m 1
 483.280273438 0 l 1
 410.788085938 0 l 1
 341.748046875 182.092773438 l 1
 144.12109375 182.092773438 l 1
 83.7109375 -0.86328125 l 1
 14.6708984375 -0.86328125 l 1
 229.532226562 619.28515625 l 1
 183.57421875 624.23046875 148.368164062 661.864257812 148.368164062 706.853515625 c 0
 148.368164062 755.000976562 188.876953125 794.827148438 239.836914062 794.827148438 c 0
 290.841796875 794.827148438 331.396484375 754.984375 331.396484375 706.794921875 c 0
 331.396484375 661.283203125 295.251953125 623.208984375 248.274414062 619.1015625 c 1
EndSplineSet
Validated: 1
EndChar

StartChar: AE
Encoding: 454 198 192
Width: 500
GlyphClass: 2
Flags: W
LayerCount: 2
Back
Fore
SplineSet
200.215820312 623.94921875 m 1
 484.142578125 623.94921875 l 1
 484.142578125 561.813476562 l 1
 310.6796875 561.813476562 l 1
 312.40625 357.282226562 l 1
 458.252929688 357.282226562 l 1
 458.252929688 293.419921875 l 1
 313.268554688 293.419921875 l 1
 314.995117188 62.1357421875 l 1
 481.553710938 62.1357421875 l 1
 481.553710938 0 l 1
 251.99609375 0 l 1
 251.99609375 169.1484375 l 1
 121.682617188 169.1484375 l 1
 68.1767578125 0 l 1
 4.3154296875 0 l 1
 200.215820312 623.94921875 l 1
251.99609375 561.813476562 m 1
 240.77734375 561.813476562 l 1
 136.353515625 226.96875 l 1
 251.99609375 226.96875 l 1
 251.99609375 561.813476562 l 1
EndSplineSet
Validated: 1
EndChar

StartChar: Ccedilla
Encoding: 455 199 193
Width: 500
GlyphClass: 2
Flags: W
LayerCount: 2
Back
Fore
SplineSet
277.556640625 628.263671875 m 0
 360.338867188 628.263671875 435.103515625 579.97265625 468.609375 504.85546875 c 1
 402.158203125 472.060546875 l 1
 397.478515625 475.340820312 397.59765625 480.70703125 397.59765625 481.877929688 c 0
 397.59765625 484.364257812 398.021484375 486.854492188 398.021484375 489.334960938 c 0
 398.021484375 493.984375 396.5625 496.567382812 394.577148438 499.995117188 c 0
 369.427734375 543.4296875 323.967773438 572.314453125 275.1953125 572.314453125 c 0
 187.112304688 572.314453125 108.7265625 479.637695312 108.7265625 314.10546875 c 0
 108.7265625 145.708007812 189.357421875 50.048828125 281.041015625 50.048828125 c 0
 329.939453125 50.048828125 379.462890625 78.43359375 408.19921875 125.998046875 c 1
 459.978515625 92.3408203125 l 1
 425.584960938 36.1484375 367.705078125 -0.6513671875 303.690429688 -8.6953125 c 1
 299.4609375 -47.46484375 l 1
 315.858398438 -48.328125 l 2
 328.6171875 -49 341.743164062 -49.8095703125 354.591796875 -56.044921875 c 0
 373.655273438 -65.294921875 384.095703125 -83.2724609375 384.095703125 -102.659179688 c 0
 384.095703125 -138.383789062 349.025390625 -176.994140625 275.6328125 -176.994140625 c 0
 237.213867188 -176.994140625 194.430664062 -166.08203125 157.06640625 -139.805664062 c 1
 182.092773438 -98.3818359375 l 1
 213.50390625 -123.712890625 251.16015625 -133.774414062 281.393554688 -133.774414062 c 0
 320.275390625 -133.774414062 327.079101562 -118.081054688 327.079101562 -109.375976562 c 0
 327.079101562 -103.486328125 324.021484375 -96.8076171875 316.185546875 -92.005859375 c 0
 305.41796875 -85.40625 291.00390625 -85.4365234375 279.612304688 -85.4365234375 c 2
 250.26953125 -85.4365234375 l 1
 260.219726562 -9.6640625 l 1
 160.385742188 -1.4951171875 40.5322265625 80.2021484375 40.5322265625 307.923828125 c 0
 40.5322265625 557.358398438 180.649414062 628.263671875 277.556640625 628.263671875 c 0
EndSplineSet
Validated: 33
EndChar

StartChar: Egrave
Encoding: 456 200 194
Width: 500
GlyphClass: 2
Flags: W
LayerCount: 2
Back
Fore
SplineSet
181.23046875 791.37109375 m 1
 333.981445312 701.619140625 l 1
 310.680664062 660.194335938 l 1
 141.532226562 721.467773438 l 1
 181.23046875 791.37109375 l 1
58.68359375 623.94921875 m 1
 440.993164062 623.94921875 l 1
 440.993164062 561.813476562 l 1
 125.134765625 561.813476562 l 1
 125.134765625 357.282226562 l 1
 385.760742188 357.282226562 l 1
 385.760742188 293.419921875 l 1
 125.134765625 293.419921875 l 1
 125.134765625 62.1357421875 l 1
 438.404296875 62.1357421875 l 1
 438.404296875 0 l 1
 58.68359375 0 l 1
 58.68359375 623.94921875 l 1
EndSplineSet
Validated: 1
EndChar

StartChar: Eacute
Encoding: 457 201 195
Width: 500
GlyphClass: 2
Flags: W
LayerCount: 2
Back
Fore
SplineSet
325.350585938 791.37109375 m 1
 365.048828125 721.467773438 l 1
 195.901367188 660.194335938 l 1
 172.599609375 701.619140625 l 1
 325.350585938 791.37109375 l 1
58.68359375 623.94921875 m 1
 440.993164062 623.94921875 l 1
 440.993164062 561.813476562 l 1
 125.134765625 561.813476562 l 1
 125.134765625 357.282226562 l 1
 385.760742188 357.282226562 l 1
 385.760742188 293.419921875 l 1
 125.134765625 293.419921875 l 1
 125.134765625 62.1357421875 l 1
 438.404296875 62.1357421875 l 1
 438.404296875 0 l 1
 58.68359375 0 l 1
 58.68359375 623.94921875 l 1
EndSplineSet
Validated: 1
EndChar

StartChar: Ecircumflex
Encoding: 458 202 196
Width: 500
GlyphClass: 2
Flags: W
LayerCount: 2
Back
Fore
SplineSet
110.463867188 692.125976562 m 1
 241.639648438 791.37109375 l 1
 263.21484375 791.37109375 l 1
 386.624023438 693.852539062 l 1
 353.830078125 655.879882812 l 1
 250.26953125 726.646484375 l 1
 138.942382812 658.46875 l 1
 110.463867188 692.125976562 l 1
58.68359375 623.94921875 m 1
 440.993164062 623.94921875 l 1
 440.993164062 561.813476562 l 1
 125.134765625 561.813476562 l 1
 125.134765625 357.282226562 l 1
 385.760742188 357.282226562 l 1
 385.760742188 293.419921875 l 1
 125.134765625 293.419921875 l 1
 125.134765625 62.1357421875 l 1
 438.404296875 62.1357421875 l 1
 438.404296875 0 l 1
 58.68359375 0 l 1
 58.68359375 623.94921875 l 1
EndSplineSet
Validated: 1
EndChar

StartChar: Edieresis
Encoding: 459 203 197
Width: 500
GlyphClass: 2
Flags: W
LayerCount: 2
Back
Fore
SplineSet
208.861328125 738.294921875 m 0
 208.861328125 710.431640625 186.225585938 687.794921875 158.361328125 687.794921875 c 0
 130.495117188 687.794921875 107.858398438 710.4296875 107.858398438 738.294921875 c 0
 107.858398438 766.162109375 130.494140625 788.798828125 158.360351562 788.798828125 c 0
 186.2265625 788.798828125 208.861328125 766.162109375 208.861328125 738.294921875 c 0
386.625 738.306640625 m 0
 386.625 710.39453125 364.147460938 687.802734375 336.57421875 687.802734375 c 0
 309.005859375 687.802734375 286.513671875 710.3828125 286.513671875 738.30859375 c 0
 286.513671875 766.224609375 308.998046875 788.8125 336.576171875 788.8125 c 0
 364.129882812 788.8125 386.625 766.23828125 386.625 738.306640625 c 0
58.68359375 623.94921875 m 1
 440.993164062 623.94921875 l 1
 440.993164062 561.813476562 l 1
 125.134765625 561.813476562 l 1
 125.134765625 357.282226562 l 1
 385.760742188 357.282226562 l 1
 385.760742188 293.419921875 l 1
 125.134765625 293.419921875 l 1
 125.134765625 62.1357421875 l 1
 438.404296875 62.1357421875 l 1
 438.404296875 0 l 1
 58.68359375 0 l 1
 58.68359375 623.94921875 l 1
EndSplineSet
Validated: 1
EndChar

StartChar: Igrave
Encoding: 460 204 198
Width: 500
GlyphClass: 2
Flags: W
LayerCount: 2
Back
Fore
SplineSet
181.23046875 791.37109375 m 1
 333.981445312 701.619140625 l 1
 310.680664062 660.194335938 l 1
 141.532226562 721.467773438 l 1
 181.23046875 791.37109375 l 1
88.0263671875 623.0859375 m 1
 396.98046875 623.0859375 l 1
 396.98046875 564.40234375 l 1
 273.571289062 564.40234375 l 1
 273.571289062 56.9580078125 l 1
 403.021484375 56.9580078125 l 1
 403.021484375 -0.86328125 l 1
 81.1220703125 -0.86328125 l 1
 81.1220703125 57.8212890625 l 1
 203.66796875 57.8212890625 l 1
 203.66796875 564.40234375 l 1
 88.0263671875 564.40234375 l 1
 88.0263671875 623.0859375 l 1
EndSplineSet
Validated: 1
EndChar

StartChar: Iacute
Encoding: 461 205 199
Width: 500
GlyphClass: 2
Flags: W
LayerCount: 2
Back
Fore
SplineSet
325.350585938 791.37109375 m 1
 365.048828125 721.467773438 l 1
 195.901367188 660.194335938 l 1
 172.599609375 701.619140625 l 1
 325.350585938 791.37109375 l 1
88.0263671875 623.0859375 m 1
 396.98046875 623.0859375 l 1
 396.98046875 564.40234375 l 1
 273.571289062 564.40234375 l 1
 273.571289062 56.9580078125 l 1
 403.021484375 56.9580078125 l 1
 403.021484375 -0.86328125 l 1
 81.1220703125 -0.86328125 l 1
 81.1220703125 57.8212890625 l 1
 203.66796875 57.8212890625 l 1
 203.66796875 564.40234375 l 1
 88.0263671875 564.40234375 l 1
 88.0263671875 623.0859375 l 1
EndSplineSet
Validated: 1
EndChar

StartChar: Icircumflex
Encoding: 462 206 200
Width: 500
GlyphClass: 2
Flags: W
LayerCount: 2
Back
Fore
SplineSet
100.970703125 692.125976562 m 1
 232.146484375 791.37109375 l 1
 253.721679688 791.37109375 l 1
 377.130859375 693.852539062 l 1
 344.336914062 655.879882812 l 1
 240.776367188 726.646484375 l 1
 129.44921875 658.46875 l 1
 100.970703125 692.125976562 l 1
88.0263671875 623.0859375 m 1
 396.98046875 623.0859375 l 1
 396.98046875 564.40234375 l 1
 273.571289062 564.40234375 l 1
 273.571289062 56.9580078125 l 1
 403.021484375 56.9580078125 l 1
 403.021484375 -0.86328125 l 1
 81.1220703125 -0.86328125 l 1
 81.1220703125 57.8212890625 l 1
 203.66796875 57.8212890625 l 1
 203.66796875 564.40234375 l 1
 88.0263671875 564.40234375 l 1
 88.0263671875 623.0859375 l 1
EndSplineSet
Validated: 1
EndChar

StartChar: Idieresis
Encoding: 463 207 201
Width: 500
GlyphClass: 2
Flags: W
LayerCount: 2
Back
Fore
SplineSet
205.41015625 738.294921875 m 0
 205.41015625 710.431640625 182.774414062 687.794921875 154.91015625 687.794921875 c 0
 127.043945312 687.794921875 104.407226562 710.4296875 104.407226562 738.294921875 c 0
 104.407226562 766.162109375 127.04296875 788.798828125 154.909179688 788.798828125 c 0
 182.775390625 788.798828125 205.41015625 766.162109375 205.41015625 738.294921875 c 0
383.173828125 738.306640625 m 0
 383.173828125 710.39453125 360.696289062 687.802734375 333.123046875 687.802734375 c 0
 305.5546875 687.802734375 283.0625 710.3828125 283.0625 738.30859375 c 0
 283.0625 766.224609375 305.546875 788.8125 333.125 788.8125 c 0
 360.678710938 788.8125 383.173828125 766.23828125 383.173828125 738.306640625 c 0
88.0263671875 623.0859375 m 1
 396.98046875 623.0859375 l 1
 396.98046875 564.40234375 l 1
 273.571289062 564.40234375 l 1
 273.571289062 56.9580078125 l 1
 403.021484375 56.9580078125 l 1
 403.021484375 -0.86328125 l 1
 81.1220703125 -0.86328125 l 1
 81.1220703125 57.8212890625 l 1
 203.66796875 57.8212890625 l 1
 203.66796875 564.40234375 l 1
 88.0263671875 564.40234375 l 1
 88.0263671875 623.0859375 l 1
EndSplineSet
Validated: 1
EndChar

StartChar: Eth
Encoding: 464 208 202
Width: 500
GlyphClass: 2
Flags: W
LayerCount: 2
Back
Fore
SplineSet
78.533203125 623.0859375 m 1
 218.338867188 623.0859375 l 2
 272.389648438 623.0859375 315.637695312 618.25390625 359.076171875 586.088867188 c 0
 434.071289062 530.556640625 466.118164062 421.109375 466.118164062 315.09375 c 0
 466.118164062 182.282226562 415.07421875 62.9833984375 319.186523438 18.337890625 c 0
 283.810546875 1.8671875 250.466796875 -0.86328125 206.256835938 -0.86328125 c 2
 78.533203125 -0.86328125 l 1
 78.533203125 301.1875 l 1
 30.205078125 301.1875 l 1
 30.205078125 359.0078125 l 1
 78.533203125 359.0078125 l 1
 78.533203125 623.0859375 l 1
143.2578125 301.1875 m 1
 143.2578125 56.9580078125 l 1
 202.8046875 56.9580078125 l 2
 238.41015625 56.9580078125 271.60546875 58.8896484375 306.840820312 82.6728515625 c 0
 367.100585938 123.345703125 398.926757812 207.818359375 398.926757812 306.442382812 c 0
 398.926757812 375.89453125 383.885742188 453.052734375 346.358398438 504.4375 c 0
 303.794921875 562.71875 252.54296875 564.40234375 214.024414062 564.40234375 c 2
 143.2578125 564.40234375 l 1
 143.2578125 359.0078125 l 1
 247.680664062 359.0078125 l 1
 247.680664062 301.1875 l 1
 143.2578125 301.1875 l 1
EndSplineSet
Validated: 1
EndChar

StartChar: Ntilde
Encoding: 465 209 203
Width: 500
GlyphClass: 2
Flags: W
LayerCount: 2
Back
Fore
SplineSet
135.491210938 683.49609375 m 1
 90.615234375 715.426757812 l 1
 127.603515625 773.970703125 164.70703125 801.958007812 203.693359375 801.958007812 c 0
 244.110351562 801.958007812 270.956054688 772.443359375 283.807617188 759.051757812 c 0
 300.014648438 742.161132812 315.030273438 727.448242188 333.685546875 727.448242188 c 0
 358.349609375 727.448242188 370.053710938 750.802734375 391.801757812 780.15234375 c 1
 428.911132812 740.454101562 l 1
 394.342773438 697.424804688 367.111328125 669.475585938 330.227539062 669.475585938 c 0
 272.072265625 669.475585938 244.9921875 745.141601562 200.944335938 745.141601562 c 0
 174.458007812 745.141601562 159.450195312 722.146484375 135.491210938 683.49609375 c 1
50.0537109375 0 m 1
 50.0537109375 623.0859375 l 1
 118.231445312 623.0859375 l 1
 379.719726562 161.380859375 l 1
 379.719726562 623.94921875 l 1
 453.938476562 623.94921875 l 1
 454.739257812 618.127929688 452.139648438 613.319335938 451.022460938 611.193359375 c 0
 448.625 606.634765625 447.034179688 604.149414062 447.034179688 597.196289062 c 2
 447.034179688 -0.86328125 l 1
 391.801757812 -0.86328125 l 1
 117.368164062 490.18359375 l 1
 117.368164062 0 l 1
 50.0537109375 0 l 1
EndSplineSet
Validated: 1
EndChar

StartChar: Ograve
Encoding: 466 210 204
Width: 500
GlyphClass: 2
Flags: W
LayerCount: 2
Back
Fore
SplineSet
181.23046875 791.37109375 m 1
 333.981445312 701.619140625 l 1
 310.680664062 660.194335938 l 1
 141.532226562 721.467773438 l 1
 181.23046875 791.37109375 l 1
471.205078125 310.251953125 m 0
 471.205078125 255.529296875 467.251953125 178.013671875 434.1484375 111.020507812 c 0
 393.12890625 28.0107421875 321.403320312 -9.505859375 254.140625 -9.505859375 c 0
 158.770507812 -9.505859375 29.341796875 67.658203125 29.341796875 312.50390625 c 0
 29.341796875 557.397460938 160.587890625 629.990234375 253.515625 629.990234375 c 0
 321.33984375 629.990234375 392.184570312 592.595703125 433.046875 512.538085938 c 0
 467.03125 445.953125 471.205078125 368.543945312 471.205078125 310.251953125 c 0
250.58203125 564.41015625 m 0
 185.110351562 564.41015625 98.3564453125 507.3671875 98.3564453125 321.604492188 c 0
 98.3564453125 123.454101562 184.353515625 58.6728515625 254.44140625 58.6728515625 c 0
 296.3671875 58.6728515625 344.643554688 82.369140625 373.475585938 143.013671875 c 0
 399.012695312 196.721679688 401.368164062 260.29296875 401.368164062 301.098632812 c 0
 401.368164062 353.838867188 398.17578125 413.509765625 377.1171875 465.889648438 c 0
 348.078125 538.1171875 294.79296875 564.41015625 250.58203125 564.41015625 c 0
EndSplineSet
Validated: 1
EndChar

StartChar: Oacute
Encoding: 467 211 205
Width: 500
GlyphClass: 2
Flags: W
LayerCount: 2
Back
Fore
SplineSet
325.350585938 791.37109375 m 1
 365.048828125 721.467773438 l 1
 195.901367188 660.194335938 l 1
 172.599609375 701.619140625 l 1
 325.350585938 791.37109375 l 1
471.205078125 310.251953125 m 0
 471.205078125 255.529296875 467.251953125 178.013671875 434.1484375 111.020507812 c 0
 393.12890625 28.0107421875 321.403320312 -9.505859375 254.140625 -9.505859375 c 0
 158.770507812 -9.505859375 29.341796875 67.658203125 29.341796875 312.50390625 c 0
 29.341796875 557.397460938 160.587890625 629.990234375 253.515625 629.990234375 c 0
 321.33984375 629.990234375 392.184570312 592.595703125 433.046875 512.538085938 c 0
 467.03125 445.953125 471.205078125 368.543945312 471.205078125 310.251953125 c 0
250.58203125 564.41015625 m 0
 185.110351562 564.41015625 98.3564453125 507.3671875 98.3564453125 321.604492188 c 0
 98.3564453125 123.454101562 184.353515625 58.6728515625 254.44140625 58.6728515625 c 0
 296.3671875 58.6728515625 344.643554688 82.369140625 373.475585938 143.013671875 c 0
 399.012695312 196.721679688 401.368164062 260.29296875 401.368164062 301.098632812 c 0
 401.368164062 353.838867188 398.17578125 413.509765625 377.1171875 465.889648438 c 0
 348.078125 538.1171875 294.79296875 564.41015625 250.58203125 564.41015625 c 0
EndSplineSet
Validated: 1
EndChar

StartChar: Ocircumflex
Encoding: 468 212 206
Width: 500
GlyphClass: 2
Flags: W
LayerCount: 2
Back
Fore
SplineSet
113.052734375 692.125976562 m 1
 244.228515625 791.37109375 l 1
 265.803710938 791.37109375 l 1
 389.212890625 693.852539062 l 1
 356.418945312 655.879882812 l 1
 252.858398438 726.646484375 l 1
 141.53125 658.46875 l 1
 113.052734375 692.125976562 l 1
471.205078125 310.251953125 m 0
 471.205078125 255.529296875 467.251953125 178.013671875 434.1484375 111.020507812 c 0
 393.12890625 28.0107421875 321.403320312 -9.505859375 254.140625 -9.505859375 c 0
 158.770507812 -9.505859375 29.341796875 67.658203125 29.341796875 312.50390625 c 0
 29.341796875 557.397460938 160.587890625 629.990234375 253.515625 629.990234375 c 0
 321.33984375 629.990234375 392.184570312 592.595703125 433.046875 512.538085938 c 0
 467.03125 445.953125 471.205078125 368.543945312 471.205078125 310.251953125 c 0
250.58203125 564.41015625 m 0
 185.110351562 564.41015625 98.3564453125 507.3671875 98.3564453125 321.604492188 c 0
 98.3564453125 123.454101562 184.353515625 58.6728515625 254.44140625 58.6728515625 c 0
 296.3671875 58.6728515625 344.643554688 82.369140625 373.475585938 143.013671875 c 0
 399.012695312 196.721679688 401.368164062 260.29296875 401.368164062 301.098632812 c 0
 401.368164062 353.838867188 398.17578125 413.509765625 377.1171875 465.889648438 c 0
 348.078125 538.1171875 294.79296875 564.41015625 250.58203125 564.41015625 c 0
EndSplineSet
Validated: 1
EndChar

StartChar: Otilde
Encoding: 469 213 207
Width: 500
GlyphClass: 2
Flags: W
LayerCount: 2
Back
Fore
SplineSet
135.491210938 683.49609375 m 1
 90.615234375 715.426757812 l 1
 127.603515625 773.970703125 164.70703125 801.958007812 203.693359375 801.958007812 c 0
 244.110351562 801.958007812 270.956054688 772.443359375 283.807617188 759.051757812 c 0
 300.014648438 742.161132812 315.030273438 727.448242188 333.685546875 727.448242188 c 0
 358.349609375 727.448242188 370.053710938 750.802734375 391.801757812 780.15234375 c 1
 428.911132812 740.454101562 l 1
 394.342773438 697.424804688 367.111328125 669.475585938 330.227539062 669.475585938 c 0
 272.072265625 669.475585938 244.9921875 745.141601562 200.944335938 745.141601562 c 0
 174.458007812 745.141601562 159.450195312 722.146484375 135.491210938 683.49609375 c 1
471.205078125 310.251953125 m 0
 471.205078125 255.529296875 467.251953125 178.013671875 434.1484375 111.020507812 c 0
 393.12890625 28.0107421875 321.403320312 -9.505859375 254.140625 -9.505859375 c 0
 158.770507812 -9.505859375 29.341796875 67.658203125 29.341796875 312.50390625 c 0
 29.341796875 557.397460938 160.587890625 629.990234375 253.515625 629.990234375 c 0
 321.33984375 629.990234375 392.184570312 592.595703125 433.046875 512.538085938 c 0
 467.03125 445.953125 471.205078125 368.543945312 471.205078125 310.251953125 c 0
250.58203125 564.41015625 m 0
 185.110351562 564.41015625 98.3564453125 507.3671875 98.3564453125 321.604492188 c 0
 98.3564453125 123.454101562 184.353515625 58.6728515625 254.44140625 58.6728515625 c 0
 296.3671875 58.6728515625 344.643554688 82.369140625 373.475585938 143.013671875 c 0
 399.012695312 196.721679688 401.368164062 260.29296875 401.368164062 301.098632812 c 0
 401.368164062 353.838867188 398.17578125 413.509765625 377.1171875 465.889648438 c 0
 348.078125 538.1171875 294.79296875 564.41015625 250.58203125 564.41015625 c 0
EndSplineSet
Validated: 1
EndChar

StartChar: Odieresis
Encoding: 470 214 208
Width: 500
GlyphClass: 2
Flags: W
LayerCount: 2
Back
Fore
SplineSet
208.861328125 738.294921875 m 0
 208.861328125 710.431640625 186.225585938 687.794921875 158.361328125 687.794921875 c 0
 130.495117188 687.794921875 107.858398438 710.4296875 107.858398438 738.294921875 c 0
 107.858398438 766.162109375 130.494140625 788.798828125 158.360351562 788.798828125 c 0
 186.2265625 788.798828125 208.861328125 766.162109375 208.861328125 738.294921875 c 0
386.625 738.306640625 m 0
 386.625 710.39453125 364.147460938 687.802734375 336.57421875 687.802734375 c 0
 309.005859375 687.802734375 286.513671875 710.3828125 286.513671875 738.30859375 c 0
 286.513671875 766.224609375 308.998046875 788.8125 336.576171875 788.8125 c 0
 364.129882812 788.8125 386.625 766.23828125 386.625 738.306640625 c 0
471.205078125 310.251953125 m 0
 471.205078125 255.529296875 467.251953125 178.013671875 434.1484375 111.020507812 c 0
 393.12890625 28.0107421875 321.403320312 -9.505859375 254.140625 -9.505859375 c 0
 158.770507812 -9.505859375 29.341796875 67.658203125 29.341796875 312.50390625 c 0
 29.341796875 557.397460938 160.587890625 629.990234375 253.515625 629.990234375 c 0
 321.33984375 629.990234375 392.184570312 592.595703125 433.046875 512.538085938 c 0
 467.03125 445.953125 471.205078125 368.543945312 471.205078125 310.251953125 c 0
250.58203125 564.41015625 m 0
 185.110351562 564.41015625 98.3564453125 507.3671875 98.3564453125 321.604492188 c 0
 98.3564453125 123.454101562 184.353515625 58.6728515625 254.44140625 58.6728515625 c 0
 296.3671875 58.6728515625 344.643554688 82.369140625 373.475585938 143.013671875 c 0
 399.012695312 196.721679688 401.368164062 260.29296875 401.368164062 301.098632812 c 0
 401.368164062 353.838867188 398.17578125 413.509765625 377.1171875 465.889648438 c 0
 348.078125 538.1171875 294.79296875 564.41015625 250.58203125 564.41015625 c 0
EndSplineSet
Validated: 1
EndChar

StartChar: multiply
Encoding: 471 215 209
Width: 500
GlyphClass: 2
Flags: W
LayerCount: 2
Back
Fore
SplineSet
382.30859375 503.12890625 m 1
 429.774414062 459.116210938 l 1
 300.049804688 325.291992188 l 1
 427.184570312 190.72265625 l 1
 380.583007812 144.984375 l 1
 254.37890625 278.177734375 l 1
 129.450195312 149.298828125 l 1
 84.57421875 193.3125 l 1
 210.567382812 324.41796875 l 1
 84.57421875 457.389648438 l 1
 132.0390625 503.12890625 l 1
 256.107421875 371.805664062 l 1
 382.30859375 503.12890625 l 1
EndSplineSet
Validated: 1
EndChar

StartChar: Oslash
Encoding: 472 216 210
Width: 500
GlyphClass: 2
Flags: W
LayerCount: 2
Back
Fore
SplineSet
250.58203125 564.41015625 m 0
 185.110351562 564.41015625 98.3564453125 507.3671875 98.3564453125 321.604492188 c 0
 98.3564453125 243.185546875 111.826171875 185.655273438 132.447265625 144.76171875 c 1
 336.361328125 528.435546875 l 1
 309.690429688 554.041015625 278.346679688 564.41015625 250.58203125 564.41015625 c 0
471.205078125 310.251953125 m 0
 471.205078125 255.529296875 467.251953125 178.013671875 434.1484375 111.020507812 c 0
 393.12890625 28.0107421875 321.403320312 -9.505859375 254.140625 -9.505859375 c 0
 217.333007812 -9.505859375 175.451171875 1.98828125 137.895507812 30.1806640625 c 1
 88.0263671875 -62.9990234375 l 1
 36.24609375 -36.24609375 l 1
 94.5986328125 73.546875 l 1
 56.263671875 124.044921875 29.341796875 200.834960938 29.341796875 312.50390625 c 0
 29.341796875 557.397460938 160.587890625 629.990234375 253.515625 629.990234375 c 0
 293.282226562 629.990234375 334.0859375 617.135742188 369.275390625 590.365234375 c 1
 415.103515625 676.591796875 l 1
 468.609375 648.11328125 l 1
 413.3515625 544.866210938 l 1
 420.486328125 534.987304688 427.0859375 524.215820312 433.046875 512.538085938 c 0
 467.03125 445.953125 471.205078125 368.543945312 471.205078125 310.251953125 c 0
374.46484375 472.20703125 m 1
 171.168945312 92.3515625 l 1
 197.310546875 68.5400390625 227.087890625 58.6728515625 254.44140625 58.6728515625 c 0
 296.3671875 58.6728515625 344.642578125 82.369140625 373.475585938 143.013671875 c 0
 399.010742188 196.721679688 401.368164062 260.29296875 401.368164062 301.098632812 c 0
 401.368164062 353.838867188 398.17578125 413.509765625 377.1171875 465.889648438 c 2
 374.46484375 472.20703125 l 1
EndSplineSet
Validated: 1
EndChar

StartChar: Ugrave
Encoding: 473 217 211
Width: 500
GlyphClass: 2
Flags: W
LayerCount: 2
Back
Fore
SplineSet
181.23046875 791.37109375 m 1
 333.981445312 701.619140625 l 1
 310.680664062 660.194335938 l 1
 141.532226562 721.467773438 l 1
 181.23046875 791.37109375 l 1
50.0537109375 623.0859375 m 1
 128.586914062 623.0859375 l 2
 129.26953125 621.500976562 129.623046875 619.782226562 129.623046875 618.038085938 c 0
 129.623046875 612.0703125 125.6796875 607.981445312 123.0390625 604.268554688 c 0
 119.349609375 599.079101562 119.09375 595.69921875 119.09375 591.155273438 c 2
 119.09375 214.024414062 l 2
 119.09375 183.078125 119.69921875 152.884765625 134.0546875 122.181640625 c 0
 156.4609375 74.263671875 203.499023438 48.259765625 252.916992188 48.259765625 c 0
 301.543945312 48.259765625 348.46484375 73.6513671875 371.493164062 121.293945312 c 0
 386.817382812 153 387.487304688 184.416992188 387.487304688 216.61328125 c 2
 387.487304688 623.0859375 l 1
 453.938476562 623.0859375 l 1
 453.938476562 218.338867188 l 2
 453.938476562 172.765625 452.564453125 129.599609375 428.984375 86.138671875 c 0
 393.54296875 20.8203125 323.547851562 -11.2822265625 251.53125 -11.2822265625 c 0
 178.006835938 -11.2822265625 108.872070312 21.5556640625 74.33984375 85.6240234375 c 0
 51.2705078125 128.426757812 50.0537109375 170.83984375 50.0537109375 214.88671875 c 1
 50.0537109375 214.88671875 l 1
 50.0537109375 623.0859375 l 1
EndSplineSet
Validated: 5
EndChar

StartChar: Uacute
Encoding: 474 218 212
Width: 500
GlyphClass: 2
Flags: W
LayerCount: 2
Back
Fore
SplineSet
325.350585938 791.37109375 m 1
 365.048828125 721.467773438 l 1
 195.901367188 660.194335938 l 1
 172.599609375 701.619140625 l 1
 325.350585938 791.37109375 l 1
50.0537109375 623.0859375 m 1
 128.586914062 623.0859375 l 2
 129.26953125 621.500976562 129.623046875 619.782226562 129.623046875 618.038085938 c 0
 129.623046875 612.0703125 125.6796875 607.981445312 123.0390625 604.268554688 c 0
 119.349609375 599.079101562 119.09375 595.69921875 119.09375 591.155273438 c 2
 119.09375 214.024414062 l 2
 119.09375 183.078125 119.69921875 152.884765625 134.0546875 122.181640625 c 0
 156.4609375 74.263671875 203.499023438 48.259765625 252.916992188 48.259765625 c 0
 301.543945312 48.259765625 348.46484375 73.6513671875 371.493164062 121.293945312 c 0
 386.817382812 153 387.487304688 184.416992188 387.487304688 216.61328125 c 2
 387.487304688 623.0859375 l 1
 453.938476562 623.0859375 l 1
 453.938476562 218.338867188 l 2
 453.938476562 172.765625 452.564453125 129.599609375 428.984375 86.138671875 c 0
 393.54296875 20.8203125 323.547851562 -11.2822265625 251.53125 -11.2822265625 c 0
 178.006835938 -11.2822265625 108.872070312 21.5556640625 74.33984375 85.6240234375 c 0
 51.2705078125 128.426757812 50.0537109375 170.83984375 50.0537109375 214.88671875 c 1
 50.0537109375 214.88671875 l 1
 50.0537109375 623.0859375 l 1
EndSplineSet
Validated: 5
EndChar

StartChar: Ucircumflex
Encoding: 475 219 213
Width: 500
GlyphClass: 2
Flags: W
LayerCount: 2
Back
Fore
SplineSet
113.052734375 692.125976562 m 1
 244.228515625 791.37109375 l 1
 265.803710938 791.37109375 l 1
 389.212890625 693.852539062 l 1
 356.418945312 655.879882812 l 1
 252.858398438 726.646484375 l 1
 141.53125 658.46875 l 1
 113.052734375 692.125976562 l 1
50.0537109375 623.0859375 m 1
 128.586914062 623.0859375 l 2
 129.26953125 621.500976562 129.623046875 619.782226562 129.623046875 618.038085938 c 0
 129.623046875 612.0703125 125.6796875 607.981445312 123.0390625 604.268554688 c 0
 119.349609375 599.079101562 119.09375 595.69921875 119.09375 591.155273438 c 2
 119.09375 214.024414062 l 2
 119.09375 183.078125 119.69921875 152.884765625 134.0546875 122.181640625 c 0
 156.4609375 74.263671875 203.499023438 48.259765625 252.916992188 48.259765625 c 0
 301.543945312 48.259765625 348.46484375 73.6513671875 371.493164062 121.293945312 c 0
 386.817382812 153 387.487304688 184.416992188 387.487304688 216.61328125 c 2
 387.487304688 623.0859375 l 1
 453.938476562 623.0859375 l 1
 453.938476562 218.338867188 l 2
 453.938476562 172.765625 452.564453125 129.599609375 428.984375 86.138671875 c 0
 393.54296875 20.8203125 323.547851562 -11.2822265625 251.53125 -11.2822265625 c 0
 178.006835938 -11.2822265625 108.872070312 21.5556640625 74.33984375 85.6240234375 c 0
 51.2705078125 128.426757812 50.0537109375 170.83984375 50.0537109375 214.88671875 c 1
 50.0537109375 214.88671875 l 1
 50.0537109375 623.0859375 l 1
EndSplineSet
Validated: 5
EndChar

StartChar: Udieresis
Encoding: 476 220 214
Width: 500
GlyphClass: 2
Flags: W
LayerCount: 2
Back
Fore
SplineSet
217.4921875 738.294921875 m 0
 217.4921875 710.431640625 194.856445312 687.794921875 166.9921875 687.794921875 c 0
 139.125976562 687.794921875 116.489257812 710.4296875 116.489257812 738.294921875 c 0
 116.489257812 766.162109375 139.125 788.798828125 166.991210938 788.798828125 c 0
 194.857421875 788.798828125 217.4921875 766.162109375 217.4921875 738.294921875 c 0
395.255859375 738.306640625 m 0
 395.255859375 710.39453125 372.778320312 687.802734375 345.205078125 687.802734375 c 0
 317.63671875 687.802734375 295.14453125 710.3828125 295.14453125 738.30859375 c 0
 295.14453125 766.224609375 317.62890625 788.8125 345.20703125 788.8125 c 0
 372.760742188 788.8125 395.255859375 766.23828125 395.255859375 738.306640625 c 0
50.0537109375 623.0859375 m 1
 128.586914062 623.0859375 l 2
 129.26953125 621.500976562 129.623046875 619.782226562 129.623046875 618.038085938 c 0
 129.623046875 612.0703125 125.6796875 607.981445312 123.0390625 604.268554688 c 0
 119.349609375 599.079101562 119.09375 595.69921875 119.09375 591.155273438 c 2
 119.09375 214.024414062 l 2
 119.09375 183.078125 119.69921875 152.884765625 134.0546875 122.181640625 c 0
 156.4609375 74.263671875 203.499023438 48.259765625 252.916992188 48.259765625 c 0
 301.543945312 48.259765625 348.46484375 73.6513671875 371.493164062 121.293945312 c 0
 386.817382812 153 387.487304688 184.416992188 387.487304688 216.61328125 c 2
 387.487304688 623.0859375 l 1
 453.938476562 623.0859375 l 1
 453.938476562 218.338867188 l 2
 453.938476562 172.765625 452.564453125 129.599609375 428.984375 86.138671875 c 0
 393.54296875 20.8203125 323.547851562 -11.2822265625 251.53125 -11.2822265625 c 0
 178.006835938 -11.2822265625 108.872070312 21.5556640625 74.33984375 85.6240234375 c 0
 51.2705078125 128.426757812 50.0537109375 170.83984375 50.0537109375 214.88671875 c 1
 50.0537109375 214.88671875 l 1
 50.0537109375 623.0859375 l 1
EndSplineSet
Validated: 5
EndChar

StartChar: Yacute
Encoding: 477 221 215
Width: 500
GlyphClass: 2
Flags: W
LayerCount: 2
Back
Fore
SplineSet
325.350585938 791.37109375 m 1
 365.048828125 721.467773438 l 1
 195.901367188 660.194335938 l 1
 172.599609375 701.619140625 l 1
 325.350585938 791.37109375 l 1
28.478515625 623.94921875 m 1
 107.875 623.94921875 l 1
 260.625976562 321.036132812 l 1
 398.706054688 623.0859375 l 1
 472.923828125 623.0859375 l 1
 296.008789062 245.955078125 l 1
 296.008789062 0 l 1
 220.065429688 0 l 1
 220.065429688 245.955078125 l 1
 28.478515625 623.94921875 l 1
EndSplineSet
Validated: 1
EndChar

StartChar: Thorn
Encoding: 478 222 216
Width: 500
GlyphClass: 2
Flags: W
LayerCount: 2
Back
Fore
SplineSet
58.68359375 623.0859375 m 1
 137.216796875 623.0859375 l 2
 137.666992188 621.76171875 137.89453125 620.3671875 137.89453125 618.95703125 c 0
 137.89453125 613.413085938 134.47265625 609.5859375 132.313476562 606.154296875 c 0
 129.608398438 601.854492188 129.450195312 599.068359375 129.450195312 595.469726562 c 2
 129.450195312 505.717773438 l 1
 248.543945312 505.717773438 l 2
 288.74609375 505.717773438 327.38671875 504.686523438 366.450195312 484.569335938 c 0
 425.310546875 454.2578125 455.677734375 393.284179688 455.677734375 330.26953125 c 0
 455.677734375 267.100585938 425.357421875 207.423828125 367.736328125 178.130859375 c 0
 329.891601562 158.892578125 292.537109375 157.928710938 253.721679688 157.928710938 c 2
 129.450195312 157.928710938 l 1
 129.450195312 0 l 1
 58.68359375 0 l 1
 58.68359375 623.0859375 l 1
129.450195312 440.129882812 m 1
 129.450195312 219.202148438 l 1
 256.310546875 219.202148438 l 2
 280.876953125 219.202148438 304.6328125 219.787109375 328.657226562 231.942382812 c 0
 364.754882812 250.206054688 384.037109375 287.331054688 384.037109375 327.065429688 c 0
 384.037109375 367.625 363.866210938 407.267578125 325.022460938 426.75390625 c 0
 299.625 439.494140625 274.576171875 440.129882812 248.543945312 440.129882812 c 2
 129.450195312 440.129882812 l 1
EndSplineSet
Validated: 1
EndChar

StartChar: germandbls
Encoding: 479 223 217
Width: 500
GlyphClass: 2
Flags: W
LayerCount: 2
Back
Fore
SplineSet
55.232421875 0 m 1
 55.232421875 422.870117188 l 2
 55.232421875 468.442382812 55.8076171875 514.55078125 76.1240234375 560.700195312 c 0
 106.779296875 630.3359375 171.130859375 668.828125 239.30859375 668.828125 c 0
 339.077148438 668.828125 420.461914062 587.95703125 420.461914062 492.866210938 c 0
 420.461914062 435.373046875 389.990234375 384.2890625 340.884765625 359.0078125 c 1
 415.872070312 335.775390625 464.298828125 263.732421875 464.298828125 180.643554688 c 0
 464.298828125 72 383.336914062 -10.380859375 280.831054688 -10.380859375 c 0
 244.036132812 -10.380859375 207.915039062 0.40625 176.915039062 20.7119140625 c 1
 212.297851562 76.806640625 l 1
 231.413085938 61.7119140625 255.135742188 53.4765625 279.650390625 53.4765625 c 0
 343.388671875 53.4765625 397.95703125 108.298828125 397.95703125 180.711914062 c 0
 397.95703125 233.252929688 369.76171875 279.203125 332.073242188 302.810546875 c 0
 303.837890625 320.497070312 276.80859375 322.76171875 244.228515625 322.76171875 c 2
 214.024414062 322.76171875 l 1
 214.024414062 379.719726562 l 1
 242.502929688 379.719726562 l 2
 257.434570312 379.719726562 271.696289062 380.163085938 288.416015625 387.64453125 c 0
 326.107421875 404.509765625 352.203125 447.521484375 352.203125 494.606445312 c 0
 352.203125 560.515625 302.608398438 611.171875 243.1640625 611.171875 c 0
 210.427734375 611.171875 175.939453125 595.296875 152.5078125 561.266601562 c 0
 124.038085938 519.91796875 123.409179688 468.78515625 123.409179688 424.595703125 c 2
 123.409179688 0 l 1
 55.232421875 0 l 1
EndSplineSet
Validated: 1
EndChar

StartChar: agrave
Encoding: 480 224 218
Width: 500
GlyphClass: 2
Flags: W
LayerCount: 2
Back
Fore
SplineSet
243.366210938 699.030273438 m 1
 331.391601562 552.3203125 l 1
 281.337890625 522.115234375 l 1
 180.3671875 656.743164062 l 1
 243.366210938 699.030273438 l 1
90.615234375 403.021484375 m 1
 133.295898438 447.10546875 192.02734375 466.930664062 253.657226562 466.930664062 c 0
 324.56640625 466.930664062 382.5390625 440.989257812 412.520507812 391.022460938 c 0
 433.607421875 355.879882812 434.952148438 320.509765625 434.952148438 283.064453125 c 2
 434.952148438 0 l 1
 366.775390625 0 l 1
 366.775390625 50.0537109375 l 1
 316.928710938 9.2041015625 258.848632812 -11.220703125 202.734375 -11.220703125 c 0
 107.28515625 -11.220703125 49.0341796875 51.0576171875 49.0341796875 118.080078125 c 0
 49.0341796875 168.72265625 81.732421875 222.118164062 153.791015625 248.600585938 c 0
 211.915039062 269.9609375 283.947265625 269.255859375 351.241210938 269.255859375 c 2
 365.912109375 269.255859375 l 1
 365.912109375 285.653320312 l 2
 365.912109375 309.864257812 366.265625 339.2578125 351.044921875 364.25390625 c 0
 338.149414062 385.428710938 311.323242188 408.225585938 257.061523438 408.225585938 c 0
 214.848632812 408.225585938 163.416015625 396.456054688 125.998046875 357.282226562 c 1
 90.615234375 403.021484375 l 1
368.500976562 214.024414062 m 1
 352.103515625 214.024414062 l 2
 304.631835938 214.024414062 243.46484375 217.014648438 201.97265625 207.109375 c 0
 144.6953125 193.435546875 121.396484375 156.125 121.396484375 122.939453125 c 0
 121.396484375 82.1025390625 156.790039062 43.8525390625 217.358398438 43.8525390625 c 0
 277.1953125 43.8525390625 320.883789062 80.1240234375 337.482421875 97.7666015625 c 0
 368.301757812 130.522460938 368.500976562 160.154296875 368.500976562 183.819335938 c 2
 368.500976562 214.024414062 l 1
EndSplineSet
Validated: 33
EndChar

StartChar: aacute
Encoding: 481 225 219
Width: 500
GlyphClass: 2
Flags: W
LayerCount: 2
Back
Fore
SplineSet
291.694335938 699.030273438 m 1
 354.693359375 656.743164062 l 1
 253.721679688 522.115234375 l 1
 203.66796875 552.3203125 l 1
 291.694335938 699.030273438 l 1
90.615234375 403.021484375 m 1
 133.295898438 447.10546875 192.02734375 466.930664062 253.657226562 466.930664062 c 0
 324.56640625 466.930664062 382.5390625 440.989257812 412.520507812 391.022460938 c 0
 433.607421875 355.879882812 434.952148438 320.509765625 434.952148438 283.064453125 c 2
 434.952148438 0 l 1
 366.775390625 0 l 1
 366.775390625 50.0537109375 l 1
 316.928710938 9.2041015625 258.848632812 -11.220703125 202.734375 -11.220703125 c 0
 107.28515625 -11.220703125 49.0341796875 51.0576171875 49.0341796875 118.080078125 c 0
 49.0341796875 168.72265625 81.732421875 222.118164062 153.791015625 248.600585938 c 0
 211.915039062 269.9609375 283.947265625 269.255859375 351.241210938 269.255859375 c 2
 365.912109375 269.255859375 l 1
 365.912109375 285.653320312 l 2
 365.912109375 309.864257812 366.265625 339.2578125 351.044921875 364.25390625 c 0
 338.149414062 385.428710938 311.323242188 408.225585938 257.061523438 408.225585938 c 0
 214.848632812 408.225585938 163.416015625 396.456054688 125.998046875 357.282226562 c 1
 90.615234375 403.021484375 l 1
368.500976562 214.024414062 m 1
 352.103515625 214.024414062 l 2
 304.631835938 214.024414062 243.46484375 217.014648438 201.97265625 207.109375 c 0
 144.6953125 193.435546875 121.396484375 156.125 121.396484375 122.939453125 c 0
 121.396484375 82.1025390625 156.790039062 43.8525390625 217.358398438 43.8525390625 c 0
 277.1953125 43.8525390625 320.883789062 80.1240234375 337.482421875 97.7666015625 c 0
 368.301757812 130.522460938 368.500976562 160.154296875 368.500976562 183.819335938 c 2
 368.500976562 214.024414062 l 1
EndSplineSet
Validated: 33
EndChar

StartChar: acircumflex
Encoding: 482 226 220
Width: 500
GlyphClass: 2
Flags: W
LayerCount: 2
Back
Fore
SplineSet
140.668945312 544.552734375 m 1
 251.99609375 685.221679688 l 1
 273.571289062 685.221679688 l 1
 384.03515625 543.690429688 l 1
 337.43359375 509.169921875 l 1
 259.763671875 611.8671875 l 1
 178.641601562 510.033203125 l 1
 140.668945312 544.552734375 l 1
90.615234375 403.021484375 m 1
 133.295898438 447.10546875 192.02734375 466.930664062 253.657226562 466.930664062 c 0
 324.56640625 466.930664062 382.5390625 440.989257812 412.520507812 391.022460938 c 0
 433.607421875 355.879882812 434.952148438 320.509765625 434.952148438 283.064453125 c 2
 434.952148438 0 l 1
 366.775390625 0 l 1
 366.775390625 50.0537109375 l 1
 316.928710938 9.2041015625 258.848632812 -11.220703125 202.734375 -11.220703125 c 0
 107.28515625 -11.220703125 49.0341796875 51.0576171875 49.0341796875 118.080078125 c 0
 49.0341796875 168.72265625 81.732421875 222.118164062 153.791015625 248.600585938 c 0
 211.915039062 269.9609375 283.947265625 269.255859375 351.241210938 269.255859375 c 2
 365.912109375 269.255859375 l 1
 365.912109375 285.653320312 l 2
 365.912109375 309.864257812 366.265625 339.2578125 351.044921875 364.25390625 c 0
 338.149414062 385.428710938 311.323242188 408.225585938 257.061523438 408.225585938 c 0
 214.848632812 408.225585938 163.416015625 396.456054688 125.998046875 357.282226562 c 1
 90.615234375 403.021484375 l 1
368.500976562 214.024414062 m 1
 352.103515625 214.024414062 l 2
 304.631835938 214.024414062 243.46484375 217.014648438 201.97265625 207.109375 c 0
 144.6953125 193.435546875 121.396484375 156.125 121.396484375 122.939453125 c 0
 121.396484375 82.1025390625 156.790039062 43.8525390625 217.358398438 43.8525390625 c 0
 277.1953125 43.8525390625 320.883789062 80.1240234375 337.482421875 97.7666015625 c 0
 368.301757812 130.522460938 368.500976562 160.154296875 368.500976562 183.819335938 c 2
 368.500976562 214.024414062 l 1
EndSplineSet
Validated: 33
EndChar

StartChar: atilde
Encoding: 483 227 221
Width: 500
GlyphClass: 2
Flags: W
LayerCount: 2
Back
Fore
SplineSet
144.984375 557.498046875 m 1
 100.108398438 589.428710938 l 1
 137.096679688 647.97265625 174.200195312 675.959960938 213.186523438 675.959960938 c 0
 253.603515625 675.959960938 280.44921875 646.4453125 293.30078125 633.053710938 c 0
 309.5078125 616.163085938 324.5234375 601.450195312 343.178710938 601.450195312 c 0
 367.842773438 601.450195312 379.546875 624.8046875 401.294921875 654.154296875 c 1
 438.404296875 614.456054688 l 1
 403.8359375 571.426757812 376.604492188 543.477539062 339.720703125 543.477539062 c 0
 281.565429688 543.477539062 254.485351562 619.143554688 210.4375 619.143554688 c 0
 183.951171875 619.143554688 168.943359375 596.1484375 144.984375 557.498046875 c 1
90.615234375 403.021484375 m 1
 133.295898438 447.10546875 192.02734375 466.930664062 253.657226562 466.930664062 c 0
 324.56640625 466.930664062 382.5390625 440.989257812 412.520507812 391.022460938 c 0
 433.607421875 355.879882812 434.952148438 320.509765625 434.952148438 283.064453125 c 2
 434.952148438 0 l 1
 366.775390625 0 l 1
 366.775390625 50.0537109375 l 1
 316.928710938 9.2041015625 258.848632812 -11.220703125 202.734375 -11.220703125 c 0
 107.28515625 -11.220703125 49.0341796875 51.0576171875 49.0341796875 118.080078125 c 0
 49.0341796875 168.72265625 81.732421875 222.118164062 153.791015625 248.600585938 c 0
 211.915039062 269.9609375 283.947265625 269.255859375 351.241210938 269.255859375 c 2
 365.912109375 269.255859375 l 1
 365.912109375 285.653320312 l 2
 365.912109375 309.864257812 366.265625 339.2578125 351.044921875 364.25390625 c 0
 338.149414062 385.428710938 311.323242188 408.225585938 257.061523438 408.225585938 c 0
 214.848632812 408.225585938 163.416015625 396.456054688 125.998046875 357.282226562 c 1
 90.615234375 403.021484375 l 1
368.500976562 214.024414062 m 1
 352.103515625 214.024414062 l 2
 304.631835938 214.024414062 243.46484375 217.014648438 201.97265625 207.109375 c 0
 144.6953125 193.435546875 121.396484375 156.125 121.396484375 122.939453125 c 0
 121.396484375 82.1025390625 156.790039062 43.8525390625 217.358398438 43.8525390625 c 0
 277.1953125 43.8525390625 320.883789062 80.1240234375 337.482421875 97.7666015625 c 0
 368.301757812 130.522460938 368.500976562 160.154296875 368.500976562 183.819335938 c 2
 368.500976562 214.024414062 l 1
EndSplineSet
Validated: 33
EndChar

StartChar: adieresis
Encoding: 484 228 222
Width: 500
GlyphClass: 2
Flags: W
LayerCount: 2
Back
Fore
SplineSet
226.122070312 614.022460938 m 0
 226.122070312 586.159179688 203.486328125 563.5234375 175.622070312 563.5234375 c 0
 147.755859375 563.5234375 125.119140625 586.157226562 125.119140625 614.0234375 c 0
 125.119140625 641.889648438 147.754882812 664.526367188 175.62109375 664.526367188 c 0
 203.487304688 664.526367188 226.122070312 641.889648438 226.122070312 614.022460938 c 0
403.885742188 614.03515625 m 0
 403.885742188 586.122070312 381.408203125 563.53125 353.834960938 563.53125 c 0
 326.266601562 563.53125 303.774414062 586.111328125 303.774414062 614.036132812 c 0
 303.774414062 641.953125 326.258789062 664.540039062 353.836914062 664.540039062 c 0
 381.390625 664.540039062 403.885742188 641.965820312 403.885742188 614.03515625 c 0
90.615234375 403.021484375 m 1
 133.295898438 447.10546875 192.02734375 466.930664062 253.657226562 466.930664062 c 0
 324.56640625 466.930664062 382.5390625 440.989257812 412.520507812 391.022460938 c 0
 433.607421875 355.879882812 434.952148438 320.509765625 434.952148438 283.064453125 c 2
 434.952148438 0 l 1
 366.775390625 0 l 1
 366.775390625 50.0537109375 l 1
 316.928710938 9.2041015625 258.848632812 -11.220703125 202.734375 -11.220703125 c 0
 107.28515625 -11.220703125 49.0341796875 51.0576171875 49.0341796875 118.080078125 c 0
 49.0341796875 168.72265625 81.732421875 222.118164062 153.791015625 248.600585938 c 0
 211.915039062 269.9609375 283.947265625 269.255859375 351.241210938 269.255859375 c 2
 365.912109375 269.255859375 l 1
 365.912109375 285.653320312 l 2
 365.912109375 309.864257812 366.265625 339.2578125 351.044921875 364.25390625 c 0
 338.149414062 385.428710938 311.323242188 408.225585938 257.061523438 408.225585938 c 0
 214.848632812 408.225585938 163.416015625 396.456054688 125.998046875 357.282226562 c 1
 90.615234375 403.021484375 l 1
368.500976562 214.024414062 m 1
 352.103515625 214.024414062 l 2
 304.631835938 214.024414062 243.46484375 217.014648438 201.97265625 207.109375 c 0
 144.6953125 193.435546875 121.396484375 156.125 121.396484375 122.939453125 c 0
 121.396484375 82.1025390625 156.790039062 43.8525390625 217.358398438 43.8525390625 c 0
 277.1953125 43.8525390625 320.883789062 80.1240234375 337.482421875 97.7666015625 c 0
 368.301757812 130.522460938 368.500976562 160.154296875 368.500976562 183.819335938 c 2
 368.500976562 214.024414062 l 1
EndSplineSet
Validated: 33
EndChar

StartChar: aring
Encoding: 485 229 223
Width: 500
GlyphClass: 2
Flags: W
LayerCount: 2
Back
Fore
SplineSet
347.79296875 604.9609375 m 0
 347.79296875 556.759765625 307.26171875 516.900390625 256.245117188 516.900390625 c 0
 205.350585938 516.900390625 164.764648438 556.721679688 164.764648438 605.01953125 c 0
 164.764648438 653.166992188 205.2734375 692.993164062 256.234375 692.993164062 c 0
 307.239257812 692.993164062 347.79296875 653.150390625 347.79296875 604.9609375 c 0
215.67578125 605.630859375 m 0
 215.67578125 580.03125 234.4140625 559.998046875 257.169921875 559.998046875 c 0
 279.639648438 559.998046875 298.627929688 579.794921875 298.627929688 605.884765625 c 0
 298.627929688 631.567382812 279.8984375 651.575195312 257.193359375 651.575195312 c 0
 234.736328125 651.575195312 215.67578125 631.778320312 215.67578125 605.630859375 c 0
90.615234375 403.021484375 m 1
 133.295898438 447.10546875 192.02734375 466.930664062 253.657226562 466.930664062 c 0
 324.56640625 466.930664062 382.5390625 440.989257812 412.520507812 391.022460938 c 0
 433.607421875 355.879882812 434.952148438 320.509765625 434.952148438 283.064453125 c 2
 434.952148438 0 l 1
 366.775390625 0 l 1
 366.775390625 50.0537109375 l 1
 316.928710938 9.2041015625 258.848632812 -11.220703125 202.734375 -11.220703125 c 0
 107.28515625 -11.220703125 49.0341796875 51.0576171875 49.0341796875 118.080078125 c 0
 49.0341796875 168.72265625 81.732421875 222.118164062 153.791015625 248.600585938 c 0
 211.915039062 269.9609375 283.947265625 269.255859375 351.241210938 269.255859375 c 2
 365.912109375 269.255859375 l 1
 365.912109375 285.653320312 l 2
 365.912109375 309.864257812 366.265625 339.2578125 351.044921875 364.25390625 c 0
 338.149414062 385.428710938 311.323242188 408.225585938 257.061523438 408.225585938 c 0
 214.848632812 408.225585938 163.416015625 396.456054688 125.998046875 357.282226562 c 1
 90.615234375 403.021484375 l 1
368.500976562 214.024414062 m 1
 352.103515625 214.024414062 l 2
 304.631835938 214.024414062 243.46484375 217.014648438 201.97265625 207.109375 c 0
 144.6953125 193.435546875 121.396484375 156.125 121.396484375 122.939453125 c 0
 121.396484375 82.1025390625 156.790039062 43.8525390625 217.358398438 43.8525390625 c 0
 277.1953125 43.8525390625 320.883789062 80.1240234375 337.482421875 97.7666015625 c 0
 368.301757812 130.522460938 368.500976562 160.154296875 368.500976562 183.819335938 c 2
 368.500976562 214.024414062 l 1
EndSplineSet
Validated: 33
EndChar

StartChar: ae
Encoding: 486 230 224
Width: 500
GlyphClass: 2
Flags: W
LayerCount: 2
Back
Fore
SplineSet
31.068359375 411.651367188 m 1
 59.4091796875 447.185546875 102.294921875 466.918945312 146.53515625 466.918945312 c 0
 195.1328125 466.918945312 236.478515625 442.979492188 258.037109375 404.747070312 c 1
 280.3515625 443.326171875 321.0625 466.936523438 363.354492188 466.936523438 c 0
 399.336914062 466.936523438 438.96875 449.388671875 463.858398438 408.606445312 c 0
 490.482421875 364.98046875 490.18359375 313.41015625 490.18359375 268.392578125 c 2
 490.18359375 230.420898438 l 1
 282.201171875 221.791015625 l 1
 282.201171875 175.189453125 l 2
 282.201171875 151.450195312 283.083007812 130.973632812 292.612304688 109.268554688 c 0
 309.518554688 70.7587890625 346.513671875 47.453125 385.529296875 47.453125 c 0
 414.827148438 47.453125 441.940429688 60.7294921875 459.116210938 83.7109375 c 1
 494.499023438 42.287109375 l 1
 466.236328125 8.3955078125 424.368164062 -11.2197265625 380.208007812 -11.2197265625 c 0
 329.286132812 -11.2197265625 281.881835938 14.833984375 254.584960938 57.8212890625 c 1
 233.103515625 15.421875 189.541015625 -11.3525390625 141.736328125 -11.3525390625 c 0
 69.705078125 -11.3525390625 10.2138671875 48.5126953125 10.2138671875 123.65234375 c 0
 10.2138671875 174.823242188 38.826171875 230.397460938 101.53515625 258.697265625 c 0
 138.8046875 275.517578125 174.450195312 276.9609375 198.490234375 277.885742188 c 2
 220.927734375 278.749023438 l 1
 220.927734375 304.638671875 l 2
 220.927734375 323.01953125 220.240234375 339.6171875 214.393554688 356 c 0
 202.2890625 389.923828125 173.079101562 410.857421875 141.857421875 410.857421875 c 0
 113.768554688 410.857421875 84.9033203125 394.16796875 66.451171875 367.637695312 c 1
 31.068359375 411.651367188 l 1
220.927734375 219.202148438 m 1
 199.352539062 218.338867188 l 2
 173.79296875 217.317382812 147.419921875 216.684570312 122.049804688 203.68359375 c 0
 89.369140625 186.936523438 74.201171875 156.352539062 74.201171875 127.778320312 c 0
 74.201171875 84.2490234375 108.098632812 50.0283203125 148.614257812 50.0283203125 c 0
 175.72265625 50.0283203125 203.264648438 65.8115234375 214.541015625 96.4794921875 c 0
 223.267578125 120.211914062 220.927734375 146.470703125 220.927734375 181.23046875 c 2
 220.927734375 219.202148438 l 1
282.201171875 278.749023438 m 1
 432.36328125 284.790039062 l 1
 432.36328125 304.638671875 l 2
 432.36328125 325.252929688 431.98046875 346.079101562 423.09375 366.727539062 c 0
 411.107421875 394.575195312 387.8515625 410.950195312 362.475585938 410.950195312 c 0
 337.814453125 410.950195312 315.685546875 395.30078125 301.122070312 373.487304688 c 0
 283.4296875 346.985351562 282.201171875 320.405273438 282.201171875 296.008789062 c 2
 282.201171875 278.749023438 l 1
EndSplineSet
Validated: 33
EndChar

StartChar: ccedilla
Encoding: 487 231 225
Width: 500
GlyphClass: 2
Flags: W
LayerCount: 2
Back
Fore
SplineSet
456.52734375 381.446289062 m 1
 405.610351562 321.899414062 l 1
 397.692382812 327.874023438 403.129882812 337.267578125 399.3125 344.986328125 c 0
 396.6640625 350.34375 359.149414062 404.811523438 281.1484375 404.811523438 c 0
 197.19921875 404.811523438 130.286132812 339.821289062 130.286132812 235.708007812 c 0
 130.286132812 128.94921875 198.14453125 54.3505859375 287.16796875 54.3505859375 c 0
 332.954101562 54.3505859375 377.311523438 74.6005859375 408.19921875 109.600585938 c 1
 449.623046875 61.2734375 l 1
 411.181640625 19.8359375 359.072265625 -4.9150390625 303.530273438 -10.166015625 c 1
 299.4609375 -47.46484375 l 1
 315.858398438 -48.328125 l 2
 328.6171875 -49 341.743164062 -49.8095703125 354.591796875 -56.044921875 c 0
 373.655273438 -65.294921875 384.095703125 -83.2724609375 384.095703125 -102.659179688 c 0
 384.095703125 -138.383789062 349.025390625 -176.994140625 275.6328125 -176.994140625 c 0
 237.213867188 -176.994140625 194.430664062 -166.08203125 157.06640625 -139.805664062 c 1
 182.092773438 -98.3818359375 l 1
 213.50390625 -123.712890625 251.16015625 -133.774414062 281.393554688 -133.774414062 c 0
 320.275390625 -133.774414062 327.079101562 -118.081054688 327.079101562 -109.375976562 c 0
 327.079101562 -103.486328125 324.021484375 -96.8076171875 316.185546875 -92.005859375 c 0
 305.41796875 -85.40625 291.00390625 -85.4365234375 279.612304688 -85.4365234375 c 2
 250.26953125 -85.4365234375 l 1
 260.135742188 -10.306640625 l 1
 141.674804688 0.0830078125 56.0947265625 98.099609375 56.0947265625 228.271484375 c 0
 56.0947265625 365.376953125 151.435546875 466.044921875 285.697265625 466.044921875 c 0
 359.163085938 466.044921875 420.552734375 434.177734375 456.52734375 381.446289062 c 1
EndSplineSet
Validated: 33
EndChar

